<svg width="17" height="13" viewBox="0 0 17 13" fill="none" xmlns="http://www.w3.org/2000/svg">
<path d="M13.7642 9.83821C13.6968 9.83821 13.6294 9.81221 13.5768 9.75964L10.4228 6.64089C10.3126 6.53227 10.3071 6.34912 10.4107 6.23299C10.5143 6.11571 10.687 6.11051 10.7982 6.22028L13.9523 9.33903C14.0624 9.44765 14.0679 9.6308 13.9643 9.74692C13.9101 9.80759 13.8377 9.83821 13.7642 9.83821Z" fill="white"/>
<path d="M3.23601 9.83853C3.16311 9.83853 3.09021 9.80791 3.03594 9.74724C2.93234 9.63111 2.93782 9.44796 3.048 9.33935L6.20312 6.2206C6.31385 6.11198 6.48761 6.1166 6.59066 6.23331C6.69426 6.34944 6.68878 6.53259 6.5786 6.64121L3.42348 9.75995C3.37086 9.81253 3.30344 9.83853 3.23601 9.83853Z" fill="white"/>
<path d="M15.629 12.7379H1.37061C0.615263 12.7379 0.000244141 12.0902 0.000244141 11.2935V1.4444C0.000244141 0.647668 0.615263 0 1.37061 0H15.629C16.3843 0 16.9993 0.647668 16.9993 1.4444V11.2935C16.9993 12.0902 16.3843 12.7379 15.629 12.7379ZM1.37061 0.577759C0.917291 0.577759 0.548389 0.966592 0.548389 1.4444V11.2935C0.548389 11.7713 0.917291 12.1601 1.37061 12.1601H15.629C16.0823 12.1601 16.4512 11.7713 16.4512 11.2935V1.4444C16.4512 0.966592 16.0823 0.577759 15.629 0.577759H1.37061Z" fill="white"/>
<path d="M8.49947 7.82065C8.13496 7.82065 7.77044 7.69296 7.49308 7.43817L0.454895 0.966689C0.340881 0.862114 0.328822 0.679542 0.428036 0.558791C0.528347 0.438617 0.701012 0.427639 0.815026 0.531058L7.85321 7.00196C8.20347 7.32377 8.79547 7.32377 9.14519 7.00196L16.1746 0.541458C16.2881 0.436884 16.4607 0.448439 16.5616 0.56919C16.6608 0.689942 16.6493 0.871936 16.5353 0.977088L9.50587 7.43759C9.22796 7.69296 8.86399 7.82065 8.49947 7.82065Z" fill="white"/>
</svg>
