<svg width="39" height="39" viewBox="0 0 39 39" fill="none" xmlns="http://www.w3.org/2000/svg">
<path d="M19.5 0C8.74774 0 0 8.74774 0 19.5C0 30.2515 8.74774 39 19.5 39C30.2515 39 39 30.2515 39 19.5C39 8.74774 30.253 0 19.5 0ZM24.3495 20.1865H21.177C21.177 25.2551 21.177 31.4941 21.177 31.4941H16.476C16.476 31.4941 16.476 25.3156 16.476 20.1865H14.2413V16.19H16.476V13.6051C16.476 11.7537 17.3557 8.86085 21.2202 8.86085L24.7037 8.8742V12.7536C24.7037 12.7536 22.5869 12.7536 22.1753 12.7536C21.7637 12.7536 21.1785 12.9594 21.1785 13.8423V16.1908H24.7603L24.3495 20.1865Z" fill="white"/>
</svg>
