<svg width="39" height="39" viewBox="0 0 39 39" fill="none" xmlns="http://www.w3.org/2000/svg">
<path d="M19.4982 24C21.9782 24 24 21.9818 24 19.5C24 18.5203 23.6795 17.6158 23.1489 16.877C22.3313 15.7434 21.0021 15 19.5009 15C17.9988 15 16.6705 15.7425 15.8511 16.8761C15.3187 17.6149 15.0009 18.5194 15 19.4991C14.9973 21.9809 17.0173 24 19.4982 24Z" fill="white"/>
<path d="M28 13.9933V12.2582V12L27.6096 12.0008L25 12.0062L25.01 14L28 13.9933Z" fill="white"/>
<path d="M19.5 0C8.74774 0 0 8.74774 0 19.5C0 30.2515 8.74774 39 19.5 39C30.2515 39 39 30.2515 39 19.5C39 8.74774 30.253 0 19.5 0ZM30.59 17.2245V26.3045C30.59 28.6695 28.6672 30.5916 26.3037 30.5916H12.6963C10.332 30.5916 8.40999 28.6695 8.40999 26.3045V17.2245V12.6971C8.40999 10.3328 10.332 8.41078 12.6963 8.41078H26.3029C28.6672 8.41078 30.59 10.3328 30.59 12.6971V17.2245Z" fill="white"/>
<path d="M25.276 19.2341C25.276 22.517 22.6858 25.1898 19.5011 25.1898C16.3165 25.1898 13.727 22.517 13.727 19.2341C13.727 18.4444 13.8796 17.6894 14.1517 17H11V25.9147C11 27.0669 11.907 28 13.0234 28H25.9766C27.0915 28 28 27.0669 28 25.9147V17H24.8468C25.1212 17.6894 25.276 18.4444 25.276 19.2341Z" fill="white"/>
</svg>
