<svg width="184" height="52" viewBox="0 0 184 52" fill="none" xmlns="http://www.w3.org/2000/svg">
<path fill-rule="evenodd" clip-rule="evenodd" d="M7.68534 44.4511C4.30428 41.0949 1.90998 36.8739 0.763832 32.249C-0.382311 27.6241 -0.236236 22.7731 1.18611 18.2256L12.4943 14.8539C10.2239 17.6097 8.8499 20.9939 8.55663 24.553C8.26335 28.112 9.06479 31.6756 10.8535 34.7661C12.6422 37.8566 15.3326 40.3262 18.5641 41.8437C21.7956 43.3613 25.4136 43.8543 28.9331 43.2566L28.9506 43.3139L29.4866 43.1543C29.6985 43.1119 29.9104 43.0645 30.1223 43.0147C30.9326 42.8218 31.7281 42.5718 32.5031 42.2665L49.4729 37.204C47.6819 40.9508 45.0204 44.2144 41.7109 46.7219C38.4013 49.2295 34.5398 50.9081 30.4491 51.6175C26.3584 52.327 22.1574 52.0466 18.1972 50.7999C14.237 49.5531 10.6326 47.3762 7.68534 44.4511ZM11.8013 29.4331C11.121 26.6233 11.289 23.6749 12.2839 20.9606C13.2789 18.2464 15.0561 15.8882 17.3908 14.1844C19.7255 12.4806 22.5129 11.5076 25.4004 11.3885C28.2879 11.2694 31.1459 12.0096 33.6128 13.5154C36.0798 15.0213 38.045 17.2251 39.2599 19.8482C40.4747 22.4713 40.8847 25.396 40.438 28.2522C39.9912 31.1084 38.7078 33.768 36.75 35.8945C34.7923 38.021 32.2481 39.5191 29.4392 40.1991C25.6731 41.1109 21.6992 40.4889 18.3915 38.4699C15.0839 36.4509 12.7133 33.2003 11.8013 29.4331ZM2.5772 14.7043C5.42813 8.79664 10.405 4.18462 16.511 1.79198C22.617 -0.600648 29.4011 -0.597209 35.5047 1.80161C41.6082 4.20043 46.5804 8.8175 49.4254 14.728C52.2703 20.6386 52.7779 27.4061 50.8465 33.6751L39.5932 37.0319C41.9026 34.1872 43.2618 30.6895 43.4793 27.0313C43.6967 23.3731 42.7614 19.7389 40.8052 16.6405C38.849 13.5421 35.9704 11.1357 32.5749 9.76025C29.1794 8.38479 25.4381 8.10957 21.878 8.97338C21.6785 9.02076 21.4816 9.07313 21.2846 9.13049L2.57222 14.7043H2.5772Z" fill="white"/>
<path d="M86.8362 16.8188C87.8009 16.7904 88.7493 17.0754 89.542 17.6321C90.2719 18.1495 90.7845 18.9238 90.9793 19.8034H93C92.7601 18.4191 92.0073 17.1794 90.8949 16.3369C89.7301 15.4408 88.2995 14.9701 86.8362 15.0015C84.8685 15.0015 83.2384 15.6708 81.9459 17.0096C81.3083 17.6625 80.8076 18.4387 80.4736 19.2919C80.1397 20.145 79.9793 21.0574 80.0021 21.9747C79.9853 23.2206 80.2862 24.45 80.8759 25.5441C81.4428 26.5991 82.2874 27.4748 83.3161 28.0743C84.3853 28.6984 85.6018 29.0177 86.8362 28.9981C88.2985 29.0341 89.7296 28.5668 90.8949 27.6727C92.0078 26.8295 92.7607 25.5889 93 24.2037H90.9793C90.7856 25.0837 90.2728 25.8584 89.542 26.375C88.5845 27.0059 87.4406 27.2825 86.3044 27.1575C85.1682 27.0326 84.1097 26.514 83.3087 25.6897C82.4035 24.6775 81.9189 23.3514 81.9558 21.9872C81.92 20.6289 82.4088 19.3099 83.3186 18.3098C83.7636 17.8191 84.3085 17.4318 84.9157 17.1744C85.523 16.917 86.1782 16.7957 86.8362 16.8188Z" fill="white"/>
<path d="M71.7053 15C69.7578 15 68.1542 15.6698 66.8944 17.0094C66.2722 17.6678 65.7844 18.4474 65.4594 19.3023C65.1345 20.1572 64.9791 21.0701 65.0023 21.9876C64.9788 22.9085 65.1339 23.8249 65.4588 24.6835C65.7837 25.5421 66.2717 26.3257 66.8944 26.9884C68.1558 28.328 69.7594 28.9978 71.7053 28.9978C73.0123 29.0314 74.3017 28.683 75.4234 27.9931C76.4349 27.3774 77.1981 26.4097 77.5746 25.2654H75.5115C75.2042 25.9155 74.6986 26.4447 74.0716 26.7724C73.3583 27.151 72.5642 27.3401 71.7615 27.3225C70.4056 27.3225 69.2974 26.8921 68.4369 26.0314C67.574 25.1607 67.0396 24.0037 66.9286 22.7662H77.8607V22.7135L77.9756 22.7612C77.9902 22.5929 78 22.3216 78 21.9374C77.9853 19.928 77.3905 18.2703 76.2155 16.9642C75.0405 15.6581 73.5371 15.0033 71.7053 15ZM66.9262 21.2491C67.041 20.0252 67.5685 18.8809 68.4174 18.0141C68.8418 17.5833 69.3473 17.2462 69.903 17.0233C70.4587 16.8005 71.0529 16.6966 71.6491 16.718C72.2169 16.6974 72.7826 16.7984 73.3104 17.0146C73.8381 17.2308 74.3163 17.5575 74.7145 17.9739C75.5346 18.8678 76.0152 20.0345 76.0688 21.2617H66.9262V21.2491Z" fill="white"/>
<path d="M136.018 15.0018C134.771 14.9892 133.543 15.3046 132.456 15.9166C131.401 16.5037 130.525 17.3678 129.923 18.4162C129.308 19.4877 128.989 20.7044 129 21.9406C128.988 23.192 129.306 24.4245 129.923 25.5125C130.517 26.5775 131.393 27.4566 132.456 28.052C133.539 28.6773 134.768 29.0041 136.018 28.9994C136.941 29.0119 137.857 28.8383 138.712 28.4888C139.567 28.1393 140.343 27.6211 140.994 26.965C141.645 26.3089 142.158 25.5282 142.502 24.6693C142.847 23.8105 143.015 22.891 142.998 21.9656C143.02 21.0457 142.852 20.1312 142.504 19.2795C142.157 18.4278 141.637 17.6573 140.979 17.0165C140.333 16.359 139.559 15.8412 138.706 15.4947C137.853 15.1482 136.938 14.9805 136.018 15.0018ZM139.61 25.6849C139.145 26.1699 138.587 26.5558 137.969 26.8193C137.352 27.0829 136.688 27.2187 136.017 27.2187C135.346 27.2187 134.681 27.0829 134.064 26.8193C133.446 26.5558 132.888 26.1699 132.423 25.6849C131.945 25.1906 131.57 24.6059 131.32 23.9647C131.069 23.3236 130.949 22.6389 130.965 21.9506C130.951 21.2752 131.073 20.604 131.323 19.9769C131.574 19.3499 131.948 18.78 132.423 18.3012C132.894 17.8258 133.454 17.4484 134.07 17.1909C134.687 16.9334 135.349 16.8009 136.017 16.8009C136.685 16.8009 137.346 16.9334 137.963 17.1909C138.58 17.4484 139.14 17.8258 139.61 18.3012C140.082 18.7821 140.452 19.3527 140.7 19.9795C140.948 20.6063 141.068 21.2765 141.054 21.9506C141.071 22.6391 140.952 23.3242 140.704 23.9664C140.456 24.6086 140.083 25.1952 139.608 25.6924L139.61 25.6849Z" fill="white"/>
<path d="M153.018 15.0018C151.771 14.9892 150.543 15.3046 149.456 15.9166C148.401 16.5037 147.525 17.3678 146.923 18.4162C146.308 19.4877 145.989 20.7044 146 21.9406C145.988 23.192 146.306 24.4245 146.923 25.5125C147.517 26.5775 148.393 27.4566 149.456 28.052C150.539 28.6772 151.768 29.004 153.018 28.9994C153.941 29.0119 154.857 28.8383 155.712 28.4888C156.567 28.1393 157.343 27.6211 157.994 26.965C158.645 26.3089 159.158 25.5282 159.502 24.6693C159.847 23.8105 160.015 22.891 159.998 21.9656C160.02 21.0469 159.852 20.1335 159.506 19.2828C159.159 18.432 158.641 17.6622 157.984 17.0215C157.338 16.3625 156.564 15.8434 155.71 15.496C154.855 15.1486 153.939 14.9804 153.018 15.0018ZM156.61 25.6849C156.145 26.1699 155.587 26.5558 154.969 26.8193C154.352 27.0829 153.688 27.2187 153.017 27.2187C152.346 27.2187 151.681 27.0829 151.064 26.8193C150.446 26.5558 149.888 26.1699 149.423 25.6849C148.945 25.1906 148.57 24.6059 148.32 23.9647C148.069 23.3236 147.949 22.6389 147.965 21.9506C147.951 21.2752 148.073 20.604 148.323 19.9769C148.574 19.3499 148.948 18.78 149.423 18.3012C149.894 17.8258 150.454 17.4484 151.07 17.1909C151.687 16.9334 152.349 16.8009 153.017 16.8009C153.685 16.8009 154.346 16.9334 154.963 17.1909C155.58 17.4484 156.14 17.8258 156.61 18.3012C157.082 18.7821 157.452 19.3527 157.7 19.9795C157.948 20.6063 158.068 21.2765 158.054 21.9506C158.071 22.6391 157.952 23.3242 157.704 23.9664C157.456 24.6086 157.083 25.1952 156.608 25.6924L156.61 25.6849Z" fill="white"/>
<path d="M182.544 16.6806C181.571 15.5572 180.305 15.0006 178.748 15.0006C176.613 15.0006 174.892 15.8419 173.6 17.5168C173.161 16.7305 172.528 16.0849 171.767 15.6495C170.981 15.2099 170.102 14.9867 169.211 15.0006C167.444 15.0006 166.003 15.6641 164.889 16.991V15.452H163V29H164.889V19.3097C165.922 17.6681 167.25 16.8474 168.873 16.8474C170.024 16.8474 170.928 17.2338 171.587 18.0067C172.246 18.7796 172.577 19.868 172.58 21.2719V28.9897H174.471V21.1821C174.475 20.6003 174.418 20.0198 174.303 19.4508C175.296 17.7117 176.669 16.8431 178.421 16.8448C179.582 16.8448 180.488 17.2312 181.14 18.0041C181.792 18.777 182.117 19.8654 182.114 21.2693V28.9872H184V21.1821C184.005 19.3046 183.518 17.7989 182.544 16.6806Z" fill="white"/>
<path d="M123.467 16.4321C122.396 15.8306 121.17 15.5164 119.922 15.5237C117.958 15.5237 116.317 16.1147 115.001 17.2969V9H113V28.663H115.001V27.2265C116.317 28.4087 117.958 28.9998 119.922 28.9998C121.17 29.0098 122.397 28.6981 123.47 28.0986C124.541 27.5119 125.427 26.6673 126.035 25.6519C126.983 24.1066 127.245 22.2725 126.765 20.5469C126.284 18.8212 125.099 17.3429 123.467 16.4321ZM123.439 25.8433C122.961 26.3255 122.38 26.7078 121.734 26.9653C121.088 27.2228 120.392 27.3498 119.69 27.338C117.695 27.338 116.131 26.5442 114.998 24.9567V19.5764C116.153 17.9744 117.717 17.1725 119.69 17.1709C120.392 17.1593 121.089 17.287 121.735 17.5458C122.381 17.8047 122.962 18.1887 123.439 18.6729C124.422 19.6381 124.97 20.9223 124.97 22.2581C124.97 23.5938 124.422 24.8781 123.439 25.8433Z" fill="white"/>
<path d="M103.018 15.0023C101.771 14.9897 100.543 15.3056 99.4556 15.9186C98.4005 16.5066 97.5249 17.3721 96.9228 18.4221C96.3079 19.4953 95.9895 20.7139 96.0004 21.952C95.9875 23.2054 96.3058 24.4399 96.9228 25.5295C97.5166 26.5962 98.3934 27.4767 99.4556 28.0731C100.541 28.6914 101.77 29.011 103.018 28.9994C103.941 29.0119 104.857 28.838 105.712 28.488C106.567 28.138 107.343 27.619 107.994 26.9618C108.645 26.3046 109.158 25.5227 109.502 24.6625C109.847 23.8024 110.015 22.8815 109.998 21.9545C110.02 21.0344 109.852 20.1196 109.506 19.2675C109.159 18.4154 108.641 17.6444 107.984 17.0026C107.336 16.3467 106.561 15.8309 105.707 15.4869C104.853 15.1429 103.938 14.978 103.018 15.0023ZM106.61 25.7023C106.145 26.188 105.587 26.5744 104.969 26.8384C104.352 27.1024 103.688 27.2384 103.017 27.2384C102.346 27.2384 101.681 27.1024 101.064 26.8384C100.446 26.5744 99.8884 26.188 99.4232 25.7023C98.9451 25.2072 98.57 24.6215 98.3196 23.9794C98.0693 23.3372 97.9486 22.6515 97.9648 21.9621C97.9507 21.2856 98.0726 20.6133 98.3232 19.9853C98.5738 19.3573 98.9479 18.7865 99.4232 18.307C99.8938 17.8308 100.454 17.4528 101.07 17.1949C101.687 16.937 102.349 16.8042 103.017 16.8042C103.685 16.8042 104.346 16.937 104.963 17.1949C105.58 17.4528 106.14 17.8308 106.61 18.307C107.082 18.7885 107.452 19.3601 107.7 19.9879C107.948 20.6156 108.068 21.2869 108.054 21.9621C108.071 22.6516 107.952 23.3378 107.704 23.981C107.456 24.6243 107.083 25.2118 106.608 25.7098L106.61 25.7023Z" fill="white"/>
<path d="M79.9201 40.8718C79.9248 40.9039 79.9195 40.9366 79.905 40.966C79.8904 40.9955 79.8672 41.0205 79.8379 41.0381C79.7263 41.0785 79.6064 41.095 79.487 41.0866C79.3899 41.0866 79.3103 41.0866 79.2381 41.0866C79.1891 41.0849 79.1405 41.0771 79.0937 41.0635C79.0646 41.0564 79.0391 41.04 79.0216 41.0173C79.0067 40.9942 78.9982 40.968 78.9967 40.9411L78.6159 38.1193C78.6159 38.0177 78.591 37.9115 78.581 37.796C78.5711 37.6805 78.5586 37.5651 78.5487 37.4473C78.5387 37.3296 78.5238 37.2164 78.5138 37.094C78.5039 36.9716 78.4939 36.8631 78.4815 36.7592V36.6368C78.4466 36.7407 78.4093 36.8492 78.3695 36.9647C78.3296 37.0802 78.2898 37.1956 78.245 37.3157C78.2002 37.4358 78.1579 37.5466 78.1181 37.669C78.0783 37.7914 78.0384 37.8999 78.0061 38.0038L76.911 40.8672C76.8979 40.9054 76.8795 40.9419 76.8562 40.9758C76.8334 41.0048 76.8035 41.0285 76.7691 41.045C76.7249 41.0638 76.6779 41.0763 76.6297 41.082C76.5609 41.0863 76.4919 41.0863 76.4231 41.082C76.3552 41.0864 76.287 41.0864 76.219 41.082C76.1719 41.0766 76.1257 41.0649 76.0821 41.0473C76.0463 41.0329 76.0153 41.0098 75.9925 40.9804C75.9664 40.9483 75.9462 40.9124 75.9328 40.8741L74.8775 38.0061C74.8377 37.9045 74.7978 37.796 74.758 37.6829C74.7182 37.5697 74.6759 37.4519 74.6361 37.3296C74.5962 37.2072 74.5539 37.0986 74.5166 36.9716C74.4793 36.8446 74.4444 36.7407 74.417 36.6391V36.7615C74.417 36.8654 74.3946 36.9762 74.3822 37.0963C74.3698 37.2164 74.3573 37.3272 74.3449 37.4496C74.3324 37.572 74.32 37.6805 74.305 37.7983C74.2901 37.9161 74.2802 38.0292 74.2752 38.1216L73.9217 40.8926C73.9199 40.9283 73.9115 40.9635 73.8969 40.9965C73.8883 41.0105 73.8769 41.0228 73.8632 41.0328C73.8496 41.0427 73.8339 41.05 73.8172 41.0543C73.7688 41.0689 73.7187 41.0782 73.6679 41.082C73.6057 41.082 73.5235 41.082 73.419 41.082C73.3427 41.0867 73.2662 41.0867 73.19 41.082C73.1446 41.0778 73.1006 41.0652 73.0606 41.045C73.0339 41.0299 73.0144 41.006 73.0058 40.9781C72.9981 40.9454 72.9981 40.9115 73.0058 40.8788L73.5833 36.2927C73.5944 36.1949 73.6398 36.1032 73.7127 36.0318C73.7982 35.9679 73.9068 35.9365 74.0163 35.944H74.4743C74.5695 35.9422 74.6646 35.95 74.758 35.9671C74.832 35.9813 74.9017 36.0105 74.9621 36.0526C75.0206 36.0947 75.0682 36.1483 75.1015 36.2096C75.1472 36.2893 75.1847 36.3728 75.2135 36.459L75.9851 38.5165C76.0274 38.6435 76.0722 38.7705 76.117 38.8975C76.1618 39.0245 76.2091 39.1492 76.2489 39.2739C76.2887 39.3986 76.3285 39.5187 76.3659 39.6341C76.4032 39.7496 76.4356 39.865 76.4679 39.9736C76.5028 39.8612 76.5384 39.7434 76.5749 39.6203C76.6123 39.4979 76.6521 39.3709 76.6944 39.2439L76.8238 38.8652L76.9533 38.5049L77.7248 36.4567C77.7528 36.3775 77.7869 36.3003 77.8269 36.2258C77.8604 36.164 77.907 36.109 77.9638 36.0641C78.0215 36.0207 78.0885 35.9892 78.1604 35.9718C78.2497 35.95 78.3419 35.9399 78.4342 35.9417H78.8872C78.9993 35.9348 79.1108 35.9633 79.2033 36.0226C79.2448 36.0562 79.278 36.0978 79.3008 36.1444C79.3236 36.191 79.3353 36.2416 79.3352 36.2927L79.9176 40.8834L79.9201 40.8718ZM87.5038 40.9111C87.5046 40.9376 87.4958 40.9636 87.4789 40.985C87.4588 41.0073 87.4332 41.0247 87.4043 41.0358C87.3569 41.052 87.3076 41.0629 87.2574 41.0681C87.1745 41.0731 87.0914 41.0731 87.0085 41.0681C86.9306 41.0726 86.8525 41.0726 86.7746 41.0681C86.7236 41.0629 86.6735 41.052 86.6252 41.0358C86.5949 41.0259 86.5682 41.0083 86.5481 40.985C86.5419 40.9604 86.5437 40.9347 86.5531 40.9111V36.0618C86.5517 36.0359 86.5586 36.0102 86.573 35.9879C86.5935 35.9645 86.62 35.9462 86.6501 35.9348C86.6974 35.9158 86.748 35.9048 86.7995 35.9025C86.8617 35.9025 86.9388 35.9025 87.0334 35.9025C87.128 35.9025 87.2101 35.9025 87.2823 35.9025C87.333 35.9049 87.3827 35.9159 87.4292 35.9348C87.4579 35.9473 87.4833 35.9655 87.5038 35.9879C87.5207 36.0093 87.5294 36.0353 87.5287 36.0618V40.9111H87.5038ZM82.3219 37.7845C82.4638 37.7845 82.6081 37.7637 82.7525 37.7591C82.8968 37.7544 83.0536 37.7591 83.2229 37.7591C83.5803 37.7526 83.937 37.7915 84.2832 37.8745C84.547 37.9379 84.7942 38.0503 85.0099 38.2047C85.1945 38.34 85.3392 38.5163 85.4306 38.7174C85.5216 38.9295 85.5665 39.1564 85.5625 39.3847C85.5646 39.622 85.5164 39.8574 85.4206 40.0775C85.3235 40.2947 85.1705 40.4865 84.9751 40.6363C84.7447 40.8072 84.4798 40.9336 84.196 41.0081C83.8248 41.1068 83.4397 41.1535 83.0536 41.1466H82.745H82.4389L82.1402 41.1258C82.0406 41.1258 81.9436 41.112 81.8415 41.1004C81.707 41.0939 81.5796 41.0422 81.4831 40.955C81.397 40.8517 81.3553 40.7225 81.3661 40.5924V36.078C81.3648 36.0521 81.3717 36.0264 81.386 36.0041C81.4066 35.9807 81.4331 35.9624 81.4632 35.951C81.5089 35.9325 81.5578 35.9215 81.6076 35.9186C81.6698 35.9186 81.742 35.9186 81.8341 35.9186C81.9651 35.9121 82.0964 35.9261 82.2223 35.9602C82.2524 35.9681 82.279 35.9846 82.2983 36.0074C82.3175 36.0303 82.3284 36.0582 82.3293 36.0872V37.7914L82.3219 37.7845ZM84.5619 39.4401C84.5647 39.3025 84.5402 39.1655 84.4897 39.036C84.4417 38.916 84.3601 38.81 84.2533 38.7289C84.1243 38.6353 83.9748 38.5691 83.8152 38.5349C83.5978 38.4859 83.3744 38.4633 83.1507 38.468C82.9914 38.468 82.847 38.468 82.7102 38.468L82.3169 38.4957V40.3638L82.7176 40.4008C82.8495 40.4008 83.0088 40.4169 83.1955 40.4169C83.5633 40.4449 83.9299 40.3517 84.2309 40.1537C84.3414 40.0638 84.4285 39.9518 84.4858 39.8263C84.5432 39.7007 84.5692 39.5648 84.5619 39.4286V39.4401ZM96.3594 40.9111C96.3602 40.9376 96.3514 40.9636 96.3346 40.985C96.3145 41.0073 96.2889 41.0248 96.2599 41.0358C96.2134 41.052 96.1649 41.0629 96.1155 41.0681C96.0385 41.0726 95.9611 41.0726 95.8841 41.0681C95.8012 41.0731 95.718 41.0731 95.6352 41.0681C95.5843 41.0625 95.5342 41.0516 95.4858 41.0358C95.4561 41.0249 95.4296 41.0074 95.4087 40.985C95.3918 40.9636 95.3831 40.9376 95.3838 40.9111V36.6853H92.8949V40.9111C92.8956 40.9376 92.8868 40.9636 92.87 40.985C92.8484 41.0078 92.821 41.0253 92.7903 41.0358C92.7421 41.052 92.692 41.0629 92.641 41.0681C92.5639 41.0726 92.4866 41.0726 92.4095 41.0681C92.3316 41.0726 92.2535 41.0726 92.1756 41.0681C92.1246 41.0629 92.0744 41.052 92.0262 41.0358C91.9959 41.0259 91.9691 41.0083 91.9491 40.985C91.9346 40.9628 91.9276 40.937 91.9291 40.9111V36.2627C91.9242 36.1793 91.9525 36.097 92.0088 36.0318C92.037 36.0056 92.0709 35.9852 92.1082 35.9721C92.1456 35.9589 92.1855 35.9533 92.2253 35.9556H96.0458C96.0853 35.9532 96.1249 35.9587 96.1619 35.9719C96.1988 35.9851 96.2323 36.0055 96.2599 36.0318C96.3128 36.0984 96.3392 36.18 96.3346 36.2627V40.9111H96.3594ZM102.93 38.4102C102.935 38.795 102.885 39.1785 102.781 39.551C102.698 39.8599 102.551 40.1509 102.348 40.4077C102.163 40.6386 101.92 40.8248 101.641 40.9503C101.339 41.0818 101.009 41.1473 100.675 41.142C100.531 41.143 100.388 41.1291 100.247 41.1004C100.113 41.0705 99.9832 41.0247 99.8614 40.9642C99.7296 40.8992 99.6053 40.8218 99.4905 40.7333C99.3661 40.6409 99.2416 40.5324 99.0973 40.4077V42.8323C99.0978 42.8595 99.0891 42.8862 99.0724 42.9085C99.0538 42.9334 99.0279 42.9526 98.9977 42.964C98.9504 42.9802 98.901 42.9911 98.8509 42.9963C98.768 43.0012 98.6848 43.0012 98.602 42.9963C98.5241 43.0008 98.4459 43.0008 98.368 42.9963C98.317 42.9911 98.2669 42.9803 98.2187 42.964C98.1892 42.9557 98.1635 42.9384 98.1459 42.915C98.1283 42.8915 98.1197 42.8632 98.1216 42.8346V36.078C98.1202 36.0509 98.1262 36.0239 98.139 35.9995C98.1562 35.9769 98.1806 35.96 98.2087 35.951C98.2514 35.9337 98.2968 35.9228 98.3431 35.9186C98.4086 35.9155 98.4742 35.9155 98.5397 35.9186C98.6069 35.9154 98.6742 35.9154 98.7413 35.9186C98.7857 35.9236 98.8291 35.9337 98.8708 35.9487C98.8992 35.9595 98.9241 35.977 98.943 35.9995C98.9574 36.0234 98.9643 36.0506 98.9629 36.078V36.7269C99.1077 36.5884 99.2606 36.4574 99.4208 36.3343C99.5587 36.2298 99.7071 36.1378 99.8639 36.0595C100.009 35.9871 100.162 35.9312 100.322 35.8932C100.484 35.854 100.652 35.8345 100.82 35.8355C101.155 35.8261 101.487 35.896 101.785 36.0387C102.048 36.1733 102.27 36.3651 102.435 36.5975C102.61 36.8502 102.735 37.1303 102.803 37.4242C102.882 37.7517 102.92 38.0863 102.918 38.4218L102.93 38.4102ZM101.935 38.5142C101.935 38.2728 101.914 38.0319 101.872 37.7937C101.838 37.5796 101.768 37.3717 101.666 37.1771C101.574 37.0047 101.437 36.8562 101.268 36.7453C101.084 36.6324 100.866 36.5759 100.645 36.5837C100.521 36.5833 100.398 36.6004 100.28 36.6345C100.151 36.6734 100.028 36.7277 99.9136 36.7961C99.7742 36.8811 99.6442 36.9785 99.5254 37.0871C99.3716 37.2269 99.2278 37.3757 99.0948 37.5328V39.4586C99.3113 39.7177 99.5622 39.9505 99.8415 40.1514C100.057 40.3004 100.319 40.3813 100.588 40.3823C100.807 40.3881 101.022 40.3317 101.205 40.2206C101.38 40.11 101.524 39.9619 101.624 39.7888C101.734 39.5998 101.813 39.3967 101.86 39.1861C101.909 38.9643 101.934 38.7384 101.935 38.5119V38.5142ZM109.215 38.4333C109.219 38.8025 109.161 39.1701 109.046 39.5233C108.944 39.8374 108.775 40.129 108.548 40.38C108.32 40.624 108.035 40.816 107.714 40.9411C107.345 41.0813 106.95 41.1497 106.552 41.142C106.169 41.1501 105.788 41.0897 105.429 40.9642C105.124 40.8543 104.851 40.6777 104.635 40.4493C104.416 40.2096 104.254 39.9294 104.16 39.6272C104.05 39.2706 103.997 38.9011 104.003 38.5303C103.999 38.1622 104.055 37.7957 104.167 37.4427C104.268 37.1277 104.437 36.8353 104.665 36.5837C104.892 36.3402 105.176 36.1489 105.496 36.0249C105.865 35.8862 106.261 35.8186 106.659 35.8263C107.042 35.8182 107.423 35.8786 107.781 36.0041C108.087 36.1137 108.359 36.2904 108.575 36.519C108.795 36.7587 108.958 37.0388 109.053 37.3411C109.163 37.696 109.217 38.064 109.212 38.4333H109.215ZM108.219 38.4911C108.221 38.2413 108.194 37.9921 108.14 37.7475C108.098 37.5304 108.013 37.3222 107.891 37.1333C107.768 36.9555 107.596 36.8119 107.393 36.7176C107.155 36.6077 106.892 36.5545 106.626 36.5629C106.375 36.5562 106.125 36.6036 105.897 36.7015C105.698 36.7936 105.527 36.9301 105.399 37.0986C105.261 37.2812 105.161 37.4865 105.106 37.7036C105.038 37.9536 105.006 38.2104 105.008 38.468C105.007 38.7193 105.033 38.97 105.088 39.2162C105.129 39.4329 105.213 39.6405 105.337 39.8281C105.462 40.0029 105.634 40.1452 105.835 40.2414C106.073 40.3512 106.338 40.4044 106.604 40.3961C106.854 40.4024 107.103 40.355 107.331 40.2576C107.529 40.1665 107.7 40.0317 107.828 39.865C107.967 39.6831 108.066 39.4775 108.12 39.26C108.183 39.008 108.214 38.7499 108.212 38.4911H108.219ZM110.35 42.6684C110.351 42.6903 110.345 42.7121 110.332 42.7307C110.315 42.7492 110.293 42.7628 110.268 42.77C110.227 42.7809 110.185 42.7894 110.143 42.7954C110.082 42.7998 110.02 42.7998 109.959 42.7954C109.893 42.7999 109.826 42.7999 109.76 42.7954C109.717 42.7896 109.675 42.7811 109.633 42.77C109.607 42.7623 109.583 42.7488 109.563 42.7307C109.549 42.7127 109.542 42.6907 109.543 42.6684V40.5185C109.535 40.4559 109.552 40.3927 109.591 40.3407C109.643 40.3073 109.707 40.2925 109.77 40.2992H110.141C110.293 40.127 110.428 39.9413 110.541 39.745C110.685 39.4954 110.802 39.2332 110.89 38.9621C111.012 38.5907 111.11 38.2129 111.184 37.8306C111.273 37.3896 111.355 36.8631 111.432 36.2512C111.439 36.2043 111.45 36.158 111.465 36.1126C111.476 36.0769 111.496 36.0438 111.522 36.0156C111.549 35.9925 111.58 35.9738 111.614 35.9602C111.652 35.9443 111.694 35.9364 111.736 35.9371H114.631C114.671 35.9347 114.711 35.9402 114.748 35.9534C114.785 35.9665 114.819 35.987 114.847 36.0133C114.903 36.0786 114.932 36.1608 114.927 36.2442V40.2876H115.651C115.713 40.2827 115.774 40.2973 115.825 40.3292C115.867 40.38 115.886 40.4437 115.878 40.507V42.6568C115.879 42.6788 115.873 42.7005 115.86 42.7192C115.843 42.7375 115.821 42.7511 115.795 42.7584C115.753 42.7697 115.71 42.7781 115.666 42.7838C115.603 42.788 115.54 42.788 115.477 42.7838C115.414 42.7883 115.351 42.7883 115.288 42.7838C115.246 42.7778 115.204 42.7693 115.163 42.7584C115.137 42.7507 115.113 42.7373 115.094 42.7192C115.079 42.7011 115.072 42.6791 115.074 42.6568V41.0404H110.345V42.6568L110.35 42.6684ZM113.959 36.6645H112.309C112.227 37.2495 112.144 37.7429 112.06 38.1447C111.989 38.4882 111.895 38.8275 111.781 39.1607C111.702 39.3946 111.597 39.6205 111.47 39.835C111.372 39.9975 111.26 40.152 111.134 40.2969H113.961V36.6714L113.959 36.6645ZM120.858 40.918C120.859 40.9363 120.856 40.9546 120.848 40.9714C120.84 40.9883 120.828 41.0032 120.813 41.015C120.774 41.0396 120.73 41.0561 120.684 41.0635C120.602 41.077 120.518 41.0824 120.435 41.0797C120.352 41.0817 120.268 41.0763 120.186 41.0635C120.139 41.0573 120.095 41.0407 120.057 41.015C120.042 41.003 120.03 40.9879 120.023 40.9711C120.016 40.9543 120.013 40.9361 120.014 40.918V40.4493C119.798 40.6675 119.54 40.8461 119.253 40.9758C118.974 41.0984 118.67 41.1615 118.362 41.1605C118.109 41.1636 117.857 41.1301 117.615 41.0612C117.407 41.0014 117.214 40.9032 117.047 40.7725C116.89 40.6457 116.765 40.4879 116.682 40.3107C116.592 40.1136 116.548 39.9012 116.552 39.6872C116.544 39.4398 116.606 39.1947 116.731 38.976C116.853 38.7705 117.031 38.5978 117.247 38.4749C117.5 38.3308 117.779 38.2292 118.07 38.1747C118.431 38.1054 118.798 38.0721 119.166 38.0754H119.905V37.6967C119.907 37.5294 119.886 37.3625 119.842 37.2002C119.805 37.0674 119.735 36.9446 119.636 36.8423C119.535 36.7431 119.408 36.6693 119.268 36.6276C119.088 36.5743 118.901 36.5493 118.713 36.5537C118.499 36.5505 118.286 36.5769 118.08 36.6322C117.91 36.6773 117.743 36.7352 117.583 36.8054C117.443 36.87 117.334 36.9278 117.229 36.9809C117.167 37.0225 117.096 37.0494 117.02 37.0594C116.991 37.06 116.962 37.052 116.938 37.0363C116.911 37.0202 116.89 36.9979 116.876 36.9716C116.856 36.9379 116.844 36.9011 116.838 36.8631C116.817 36.7438 116.817 36.6221 116.838 36.5029C116.856 36.4458 116.89 36.3946 116.938 36.3551C117.02 36.2899 117.11 36.234 117.207 36.1888C117.348 36.1198 117.496 36.0611 117.647 36.0133C117.826 35.9587 118.008 35.9154 118.192 35.884C118.708 35.7979 119.238 35.8208 119.743 35.951C119.983 36.0177 120.201 36.1374 120.38 36.2997C120.546 36.4591 120.667 36.6543 120.731 36.8677C120.81 37.1253 120.847 37.3921 120.843 37.6598V40.9273L120.858 40.918ZM119.91 38.7012H119.093C118.864 38.6979 118.635 38.7188 118.411 38.7636C118.24 38.7962 118.078 38.8581 117.931 38.946C117.812 39.0189 117.715 39.1191 117.65 39.2369C117.588 39.359 117.558 39.4925 117.56 39.6272C117.553 39.7379 117.572 39.8488 117.615 39.9523C117.658 40.0558 117.724 40.1497 117.809 40.2276C118.008 40.3885 118.267 40.4713 118.531 40.4585C118.776 40.4602 119.018 40.3987 119.228 40.2807C119.481 40.1322 119.708 39.9492 119.902 39.738V38.7081L119.91 38.7012ZM127.055 38.2809C127.061 38.3355 127.055 38.3907 127.035 38.4425C127.016 38.4944 126.985 38.5417 126.943 38.5811C126.874 38.6363 126.786 38.6674 126.695 38.6689H123.25C123.247 38.9137 123.276 39.158 123.337 39.3963C123.388 39.5998 123.487 39.79 123.628 39.9528C123.768 40.1099 123.949 40.2315 124.153 40.3061C124.407 40.3948 124.676 40.4372 124.947 40.4308C125.17 40.4331 125.391 40.4138 125.609 40.3731C125.778 40.3419 125.944 40.3003 126.107 40.2484C126.247 40.2022 126.356 40.1606 126.456 40.1237C126.52 40.092 126.59 40.0724 126.662 40.0659C126.688 40.0655 126.713 40.0719 126.734 40.0844C126.756 40.0986 126.773 40.1188 126.782 40.1421C126.796 40.1753 126.805 40.2104 126.809 40.246C126.812 40.3007 126.812 40.3554 126.809 40.41C126.811 40.45 126.811 40.4901 126.809 40.5301C126.809 40.5624 126.809 40.5947 126.794 40.6201C126.789 40.6462 126.779 40.6712 126.764 40.694C126.749 40.7157 126.732 40.7359 126.712 40.7541C126.654 40.7926 126.591 40.8244 126.525 40.8487C126.394 40.9022 126.258 40.9462 126.12 40.9804C125.93 41.0273 125.738 41.0651 125.545 41.0935C125.314 41.129 125.081 41.146 124.848 41.1443C124.465 41.1519 124.084 41.0956 123.723 40.9781C123.413 40.8757 123.134 40.7063 122.909 40.4839C122.678 40.2473 122.508 39.9656 122.411 39.6595C122.291 39.285 122.234 38.8956 122.242 38.5049C122.236 38.1247 122.295 37.7459 122.416 37.3827C122.518 37.0724 122.687 36.7847 122.914 36.5375C123.131 36.3071 123.402 36.1248 123.705 36.0041C124.033 35.8776 124.386 35.8148 124.741 35.8193C125.099 35.8103 125.456 35.8733 125.786 36.0041C126.06 36.116 126.302 36.2842 126.495 36.4959C126.684 36.7095 126.823 36.9572 126.904 37.2233C126.992 37.5125 127.036 37.8118 127.033 38.1124V38.274L127.055 38.2809ZM126.095 38.0177C126.131 37.6259 126.013 37.2351 125.761 36.9185C125.631 36.7812 125.468 36.6741 125.285 36.6055C125.102 36.537 124.905 36.5089 124.708 36.5236C124.493 36.5188 124.28 36.5607 124.086 36.646C123.912 36.7275 123.759 36.8434 123.638 36.9855C123.515 37.1269 123.42 37.2881 123.359 37.4612C123.293 37.6446 123.255 37.8359 123.247 38.0292H126.085L126.095 38.0177ZM124.243 34.4985C124.26 34.6421 124.218 34.7864 124.126 34.9026C124.003 34.9878 123.85 35.0266 123.698 35.0111C123.548 35.0276 123.396 34.9905 123.275 34.9072C123.188 34.794 123.149 34.6551 123.165 34.517C123.147 34.3726 123.187 34.2272 123.277 34.1082C123.407 34.0374 123.555 34 123.705 34C123.856 34 124.004 34.0374 124.133 34.1082C124.22 34.2224 124.259 34.362 124.243 34.5008V34.4985ZM126.296 34.4985C126.314 34.6421 126.272 34.7864 126.179 34.9026C126.057 34.9878 125.904 35.0266 125.751 35.0111C125.601 35.0276 125.45 34.9905 125.328 34.9072C125.241 34.794 125.202 34.6551 125.219 34.517C125.201 34.3726 125.241 34.2272 125.331 34.1082C125.46 34.0374 125.608 34 125.759 34C125.909 34 126.057 34.0374 126.187 34.1082C126.275 34.222 126.314 34.3617 126.299 34.5008L126.296 34.4985ZM135.035 40.8626C135.04 40.8947 135.034 40.9273 135.02 40.9568C135.005 40.9862 134.982 41.0112 134.953 41.0289C134.841 41.0692 134.721 41.0858 134.602 41.0774C134.505 41.0774 134.425 41.0774 134.353 41.0774C134.304 41.0756 134.255 41.0679 134.209 41.0543C134.179 41.0471 134.154 41.0308 134.136 41.0081C134.122 40.9849 134.113 40.9588 134.112 40.9319L133.731 38.1101C133.731 38.0085 133.706 37.9022 133.696 37.7868C133.686 37.6713 133.673 37.5559 133.664 37.4381C133.654 37.3203 133.639 37.2072 133.629 37.0848C133.619 36.9624 133.609 36.8539 133.596 36.7499V36.6276C133.561 36.7315 133.524 36.84 133.484 36.9555C133.444 37.0709 133.405 37.1864 133.36 37.3065C133.315 37.4265 133.273 37.5374 133.233 37.6598C133.193 37.7822 133.153 37.8907 133.121 37.9946L132.026 40.858C132.013 40.8962 131.994 40.9327 131.971 40.9665C131.948 40.9956 131.918 41.0193 131.884 41.0358C131.84 41.0546 131.793 41.0671 131.745 41.0727C131.676 41.0771 131.607 41.0771 131.538 41.0727C131.47 41.0772 131.402 41.0772 131.334 41.0727C131.287 41.0673 131.241 41.0557 131.197 41.0381C131.161 41.0237 131.13 41.0005 131.107 40.9711C131.081 40.9391 131.061 40.9032 131.048 40.8649L129.992 37.9969C129.953 37.8953 129.913 37.7868 129.873 37.6736C129.833 37.5605 129.791 37.4427 129.751 37.3203C129.711 37.1979 129.669 37.0894 129.631 36.9624C129.594 36.8354 129.559 36.7315 129.532 36.6299V36.7523C129.532 36.8562 129.509 36.967 129.497 37.0871C129.485 37.2072 129.472 37.318 129.46 37.4404C129.447 37.5628 129.435 37.6713 129.42 37.7891C129.405 37.9068 129.395 38.02 129.39 38.1124L129.037 40.8834C129.035 40.9191 129.026 40.9542 129.012 40.9873C129.003 41.0013 128.992 41.0136 128.978 41.0235C128.964 41.0334 128.949 41.0407 128.932 41.045C128.884 41.0596 128.833 41.0689 128.783 41.0727C128.72 41.0727 128.638 41.0727 128.534 41.0727C128.458 41.0775 128.381 41.0775 128.305 41.0727C128.259 41.0686 128.215 41.056 128.175 41.0358C128.149 41.0206 128.129 40.9967 128.121 40.9688C128.113 40.9361 128.113 40.9022 128.121 40.8695L128.688 36.2927C128.699 36.1949 128.745 36.1032 128.818 36.0318C128.903 35.9679 129.012 35.9365 129.121 35.944H129.579C129.674 35.9422 129.77 35.95 129.863 35.9671C129.937 35.9813 130.007 36.0105 130.067 36.0526C130.125 36.0947 130.173 36.1483 130.206 36.2096C130.252 36.2893 130.29 36.3728 130.318 36.459L131.09 38.5165C131.132 38.6435 131.177 38.7705 131.222 38.8975C131.267 39.0245 131.314 39.1492 131.354 39.2739C131.394 39.3986 131.433 39.5187 131.471 39.6341C131.508 39.7496 131.54 39.865 131.573 39.9736C131.608 39.8612 131.643 39.7434 131.68 39.6203C131.717 39.4979 131.757 39.3709 131.799 39.2439L131.929 38.8652L132.058 38.5049L132.83 36.4567C132.858 36.3775 132.892 36.3003 132.932 36.2258C132.965 36.164 133.012 36.109 133.069 36.0641C133.126 36.0207 133.193 35.9892 133.265 35.9718C133.355 35.95 133.447 35.9399 133.539 35.9417H133.992C134.104 35.9348 134.216 35.9633 134.308 36.0226C134.346 36.0553 134.377 36.0949 134.399 36.1389C134.42 36.183 134.432 36.2306 134.433 36.2789L135.015 40.8695L135.035 40.8626ZM142.999 38.3687C143.006 38.7664 142.951 39.1629 142.838 39.5464C142.744 39.8633 142.582 40.1594 142.362 40.4169C142.154 40.6543 141.885 40.8407 141.581 40.9596C141.239 41.0879 140.872 41.1508 140.503 41.1443C140.307 41.1453 140.111 41.1307 139.918 41.1004C139.754 41.0742 139.591 41.0364 139.433 40.9873C139.308 40.9479 139.188 40.8969 139.074 40.8349C139.002 40.7947 138.933 40.7492 138.868 40.6986C138.835 40.6744 138.806 40.6465 138.781 40.6155C138.761 40.5914 138.747 40.5639 138.738 40.5347C138.728 40.4969 138.721 40.4582 138.719 40.4192C138.719 40.3754 138.719 40.3176 138.719 40.2507C138.71 40.1565 138.724 40.0618 138.761 39.9736C138.77 39.9527 138.786 39.9348 138.805 39.9217C138.825 39.9086 138.849 39.901 138.873 39.8997C138.938 39.9108 138.997 39.9407 139.042 39.9851C139.134 40.0547 139.232 40.1165 139.336 40.1698C139.485 40.2451 139.642 40.3062 139.804 40.3523C140.028 40.4141 140.262 40.443 140.496 40.4377C140.699 40.4465 140.902 40.4139 141.09 40.3421C141.279 40.2702 141.448 40.161 141.586 40.0221C141.886 39.6591 142.042 39.2115 142.029 38.7543H139.401C139.373 38.754 139.346 38.7464 139.324 38.7325C139.301 38.7186 139.282 38.6989 139.271 38.6758C139.21 38.5088 139.21 38.3279 139.271 38.1609C139.282 38.1377 139.301 38.1181 139.324 38.1042C139.346 38.0903 139.373 38.0827 139.401 38.0823H142.021C142.002 37.8632 141.952 37.6473 141.872 37.4404C141.801 37.264 141.695 37.1017 141.558 36.9624C141.424 36.8268 141.259 36.7197 141.076 36.6483C140.873 36.5718 140.655 36.5341 140.436 36.5375C140.232 36.5339 140.029 36.5637 139.836 36.6253C139.565 36.7134 139.313 36.8438 139.089 37.0109C139.044 37.0555 138.985 37.0861 138.92 37.0986C138.898 37.0995 138.876 37.093 138.858 37.0802C138.839 37.0638 138.824 37.0442 138.813 37.0224C138.797 36.9881 138.786 36.9514 138.783 36.9139C138.78 36.8562 138.78 36.7984 138.783 36.7407C138.78 36.69 138.78 36.6391 138.783 36.5883C138.788 36.5533 138.796 36.5185 138.806 36.4844C138.811 36.4588 138.821 36.4339 138.833 36.4105C138.85 36.3849 138.871 36.3616 138.895 36.3412C139.061 36.2172 139.246 36.116 139.443 36.041C139.604 35.9797 139.771 35.9303 139.941 35.8932C140.148 35.849 140.36 35.8273 140.573 35.8286C140.908 35.8252 141.24 35.8824 141.551 35.9972C141.843 36.1076 142.105 36.2772 142.318 36.4936C142.541 36.7256 142.71 36.9975 142.815 37.2926C142.938 37.6413 142.998 38.0065 142.992 38.3733L142.999 38.3687Z" fill="white"/>
<path d="M150.892 41.048C150.897 41.0802 150.891 41.1129 150.877 41.1424C150.862 41.1719 150.839 41.197 150.81 41.2146C150.699 41.2551 150.58 41.2717 150.461 41.2632C150.364 41.2632 150.285 41.2632 150.213 41.2632C150.164 41.2615 150.116 41.2537 150.069 41.2401C150.04 41.2329 150.015 41.2166 149.997 41.1938C149.982 41.1706 149.974 41.1444 149.972 41.1174L149.593 38.2895C149.593 38.1876 149.568 38.0812 149.558 37.9655C149.548 37.8498 149.536 37.7341 149.526 37.616C149.516 37.498 149.501 37.3846 149.491 37.262C149.482 37.1393 149.472 37.0305 149.459 36.9264V36.8037C149.424 36.9079 149.387 37.0167 149.348 37.1324C149.308 37.2481 149.268 37.3638 149.224 37.4841C149.179 37.6045 149.137 37.7156 149.097 37.8382C149.058 37.9609 149.018 38.0696 148.986 38.1738L147.895 41.0434C147.882 41.0817 147.864 41.1183 147.841 41.1522C147.818 41.1813 147.788 41.2051 147.754 41.2216C147.71 41.2404 147.663 41.2529 147.615 41.2586C147.546 41.263 147.478 41.263 147.409 41.2586C147.342 41.2631 147.274 41.2631 147.206 41.2586C147.159 41.2532 147.113 41.2415 147.07 41.2239C147.034 41.2094 147.003 41.1863 146.98 41.1568C146.954 41.1247 146.934 41.0887 146.921 41.0503L145.87 38.1761C145.83 38.0743 145.791 37.9655 145.751 37.8521C145.711 37.7387 145.669 37.6207 145.629 37.498C145.59 37.3754 145.548 37.2666 145.51 37.1393C145.473 37.012 145.439 36.9079 145.411 36.8061V36.9287C145.411 37.0329 145.389 37.1439 145.377 37.2643C145.364 37.3846 145.352 37.4957 145.339 37.6184C145.327 37.741 145.315 37.8498 145.3 37.9678C145.285 38.0858 145.275 38.1992 145.27 38.2918L144.918 41.0688C144.916 41.1046 144.908 41.1399 144.893 41.173C144.885 41.187 144.873 41.1994 144.86 41.2093C144.846 41.2192 144.831 41.2265 144.814 41.2308C144.766 41.2455 144.716 41.2548 144.665 41.2586C144.603 41.2586 144.521 41.2586 144.417 41.2586C144.341 41.2633 144.265 41.2633 144.189 41.2586C144.144 41.2544 144.1 41.2418 144.06 41.2216C144.034 41.2064 144.014 41.1824 144.006 41.1545C143.998 41.1217 143.998 41.0877 144.006 41.055L144.578 36.4589C144.589 36.3609 144.635 36.269 144.707 36.1974C144.793 36.1334 144.901 36.1019 145.01 36.1095H145.461C145.556 36.1077 145.65 36.1154 145.743 36.1326C145.817 36.1468 145.887 36.1761 145.947 36.2183C146.005 36.2604 146.052 36.3142 146.086 36.3756C146.131 36.4555 146.168 36.5392 146.197 36.6256L146.966 38.6875C147.008 38.8148 147.052 38.9421 147.097 39.0694C147.141 39.1966 147.189 39.3216 147.228 39.4466C147.268 39.5715 147.308 39.6919 147.345 39.8076C147.382 39.9233 147.414 40.039 147.446 40.1478C147.481 40.0352 147.517 39.9171 147.553 39.7937C147.59 39.6711 147.63 39.5438 147.672 39.4165L147.801 39.037L147.93 38.6759L148.698 36.6232C148.726 36.5439 148.76 36.4666 148.8 36.3918C148.833 36.3299 148.88 36.2748 148.936 36.2298C148.994 36.1863 149.06 36.1548 149.132 36.1373C149.221 36.1155 149.313 36.1053 149.405 36.1072H149.856C149.968 36.1002 150.078 36.1288 150.171 36.1882C150.209 36.221 150.239 36.2606 150.261 36.3048C150.282 36.3489 150.294 36.3966 150.295 36.445L150.875 41.0457L150.892 41.048ZM157.156 38.6135C157.16 38.9835 157.103 39.3518 156.987 39.7058C156.887 40.0206 156.718 40.3128 156.492 40.5643C156.265 40.8089 155.981 41.0014 155.661 41.1267C155.294 41.2672 154.9 41.3357 154.504 41.328C154.122 41.3361 153.743 41.2756 153.386 41.1498C153.081 41.0397 152.81 40.8627 152.595 40.6338C152.376 40.3936 152.215 40.1128 152.121 39.8099C152.012 39.4525 151.96 39.0822 151.965 38.7107C151.962 38.3418 152.017 37.9744 152.129 37.6207C152.229 37.305 152.398 37.0119 152.625 36.7598C152.85 36.5158 153.134 36.3241 153.453 36.1997C153.82 36.0607 154.214 35.993 154.61 36.0007C154.992 35.9926 155.371 36.0531 155.728 36.1789C156.032 36.2888 156.304 36.4659 156.519 36.695C156.738 36.9351 156.9 37.2159 156.995 37.5188C157.105 37.8745 157.158 38.2433 157.153 38.6135H157.156ZM156.164 38.6713C156.166 38.421 156.139 38.1713 156.085 37.9261C156.043 37.7085 155.959 37.4999 155.837 37.3106C155.715 37.1324 155.544 36.9884 155.341 36.894C155.105 36.7838 154.842 36.7305 154.578 36.739C154.328 36.7322 154.079 36.7798 153.852 36.8778C153.654 36.9702 153.483 37.1069 153.356 37.2758C153.218 37.4588 153.119 37.6646 153.063 37.8822C152.997 38.1327 152.964 38.3901 152.967 38.6482C152.965 38.9 152.992 39.1513 153.046 39.398C153.086 39.6152 153.171 39.8233 153.294 40.0113C153.419 40.1865 153.589 40.3291 153.79 40.4255C154.027 40.5355 154.291 40.5888 154.556 40.5805C154.805 40.5868 155.053 40.5393 155.279 40.4417C155.477 40.3504 155.647 40.2153 155.775 40.0483C155.914 39.8659 156.012 39.6599 156.065 39.442C156.129 39.1894 156.16 38.9307 156.157 38.6713H156.164ZM163.923 42.8809C163.917 42.9033 163.905 42.9237 163.887 42.9393C163.869 42.955 163.846 42.9653 163.821 42.9688C163.726 42.9924 163.628 43.0025 163.529 42.9989C163.424 43.0037 163.32 42.9928 163.219 42.9665C163.195 42.964 163.172 42.9543 163.154 42.9389C163.137 42.9235 163.125 42.9031 163.12 42.8809V41.2332H158.861C158.821 41.2355 158.781 41.2296 158.744 41.216C158.707 41.2024 158.673 41.1814 158.646 41.1545C158.588 41.0899 158.56 41.0069 158.566 40.923V36.2483C158.565 36.2224 158.572 36.1966 158.586 36.1743C158.607 36.1508 158.633 36.1325 158.663 36.1211C158.71 36.102 158.761 36.091 158.812 36.0887C158.874 36.0887 158.951 36.0887 159.045 36.0887C159.139 36.0887 159.221 36.0887 159.293 36.0887C159.343 36.0911 159.393 36.1021 159.439 36.1211C159.467 36.1336 159.493 36.1518 159.513 36.1743C159.53 36.1957 159.539 36.2218 159.538 36.2483V40.4741H162.017V36.2437C162.016 36.2171 162.025 36.1911 162.042 36.1697C162.063 36.1471 162.089 36.129 162.119 36.1164C162.166 36.0979 162.216 36.0869 162.267 36.084C162.329 36.084 162.406 36.084 162.498 36.084C162.589 36.084 162.674 36.084 162.746 36.084C162.795 36.0865 162.844 36.0975 162.889 36.1164C162.918 36.129 162.943 36.1471 162.964 36.1697C162.981 36.1911 162.989 36.2171 162.989 36.2437V40.4695H163.712C163.745 40.4655 163.779 40.4678 163.811 40.4762C163.843 40.4845 163.872 40.4988 163.898 40.5181C163.935 40.5689 163.952 40.6304 163.945 40.6916V42.8809H163.923ZM169.592 41.1036C169.592 41.1286 169.583 41.1529 169.567 41.173C169.549 41.1969 169.523 41.2147 169.493 41.2239C169.447 41.2392 169.398 41.2493 169.349 41.254C169.196 41.2686 169.041 41.2686 168.888 41.254C168.838 41.2487 168.788 41.2386 168.739 41.2239C168.707 41.2159 168.678 41.198 168.658 41.173C168.642 41.1528 168.633 41.1285 168.633 41.1036V38.3103C168.633 38.1691 168.633 38.028 168.633 37.8799C168.633 37.7317 168.65 37.5929 168.663 37.4517C168.573 37.5975 168.474 37.7364 168.37 37.8775L168.05 38.2895L165.849 41.1036L165.777 41.1799C165.754 41.2018 165.726 41.2191 165.695 41.2308C165.655 41.2454 165.612 41.2548 165.569 41.2586C165.507 41.262 165.445 41.262 165.383 41.2586C165.314 41.2632 165.244 41.2632 165.175 41.2586C165.13 41.2539 165.086 41.2437 165.044 41.2285C165.014 41.2195 164.989 41.2016 164.972 41.1776C164.958 41.1566 164.951 41.1326 164.952 41.1082V36.2275C164.951 36.1999 164.96 36.1727 164.977 36.1505C164.995 36.1282 165.02 36.1121 165.048 36.1049C165.096 36.0869 165.146 36.076 165.197 36.0725C165.259 36.0725 165.334 36.0725 165.423 36.0725C165.552 36.0657 165.681 36.0798 165.805 36.1141C165.833 36.1214 165.859 36.1369 165.877 36.1585C165.896 36.1801 165.907 36.2067 165.909 36.2345V39.0439C165.909 39.1828 165.909 39.3239 165.909 39.4605C165.909 39.597 165.891 39.7359 165.879 39.8747C165.968 39.7359 166.057 39.6039 166.149 39.472C166.241 39.3401 166.337 39.2128 166.439 39.0879L168.67 36.2345C168.69 36.2068 168.714 36.1819 168.742 36.1604C168.768 36.1382 168.8 36.1217 168.834 36.1118C168.875 36.0985 168.919 36.0899 168.963 36.0863C169.028 36.0828 169.093 36.0828 169.158 36.0863C169.227 36.083 169.296 36.083 169.364 36.0863C169.41 36.0895 169.455 36.0997 169.498 36.1164C169.526 36.1276 169.55 36.146 169.567 36.1697C169.581 36.1929 169.588 36.2193 169.587 36.246V41.1059L169.592 41.1036ZM175.983 41.1036C175.983 41.1286 175.974 41.153 175.958 41.173C175.939 41.1969 175.913 41.2147 175.883 41.2239C175.837 41.2393 175.789 41.2494 175.74 41.254C175.586 41.2686 175.432 41.2686 175.279 41.254C175.228 41.2487 175.178 41.2386 175.13 41.2239C175.097 41.2159 175.068 41.198 175.048 41.173C175.032 41.1528 175.024 41.1285 175.023 41.1036V38.3103C175.023 38.1691 175.023 38.028 175.023 37.8799C175.023 37.7317 175.041 37.5929 175.053 37.4517C174.964 37.5975 174.865 37.7364 174.76 37.8775L174.463 38.2872L172.262 41.1012L172.19 41.1776C172.167 41.1995 172.139 41.2168 172.108 41.2285C172.068 41.2431 172.025 41.2525 171.982 41.2563C171.92 41.2597 171.858 41.2597 171.796 41.2563C171.726 41.2608 171.657 41.2608 171.588 41.2563C171.543 41.2516 171.498 41.2415 171.456 41.2262C171.427 41.2172 171.402 41.1993 171.384 41.1753C171.371 41.1543 171.364 41.1303 171.364 41.1059V36.2275C171.363 36.1999 171.372 36.1727 171.39 36.1505C171.408 36.1282 171.433 36.1121 171.461 36.1049C171.509 36.0869 171.559 36.076 171.61 36.0725C171.672 36.0725 171.746 36.0725 171.835 36.0725C171.964 36.0657 172.093 36.0798 172.217 36.1141C172.246 36.1214 172.271 36.1369 172.29 36.1585C172.309 36.1801 172.32 36.2067 172.321 36.2345V39.0439C172.321 39.1828 172.321 39.3239 172.321 39.4605C172.321 39.597 172.304 39.7359 172.292 39.8747C172.381 39.7359 172.47 39.6039 172.562 39.472C172.653 39.3401 172.75 39.2128 172.852 39.0879L175.083 36.2345C175.103 36.2068 175.127 36.1819 175.155 36.1604C175.181 36.1382 175.212 36.1217 175.246 36.1118C175.288 36.0985 175.331 36.0899 175.375 36.0863C175.44 36.0828 175.506 36.0828 175.571 36.0863C175.64 36.083 175.708 36.083 175.777 36.0863C175.823 36.0895 175.868 36.0997 175.911 36.1164C175.939 36.1276 175.963 36.146 175.98 36.1697C175.994 36.1929 176.001 36.2193 176 36.246V41.1059L175.983 41.1036Z" fill="white"/>
</svg>
