<svg width="17" height="18" viewBox="0 0 17 18" fill="none" xmlns="http://www.w3.org/2000/svg">
<path d="M13.6603 17.5146C12.9531 17.5146 12.0991 17.3319 11.1604 16.9673C9.10068 16.1666 6.86089 14.5854 4.85205 12.5153C2.84322 10.4451 1.30886 8.1363 0.531969 6.0131C-0.175182 4.08372 -0.176897 2.50015 0.526253 1.77553C0.628009 1.67067 0.731481 1.55874 0.837811 1.44386C1.47979 0.74869 2.22239 -0.0413245 3.16621 0.0016815C3.82934 0.0299594 4.47132 0.454129 5.12988 1.29658C7.07126 3.78562 6.19604 4.67284 5.18305 5.70145L5.00355 5.88408C4.83776 6.05493 4.52392 6.84553 7.43885 9.84888C8.39124 10.8298 9.20187 11.5473 9.84956 11.9815C10.2583 12.2549 10.9878 12.6673 11.2867 12.3591L11.4668 12.1718C12.4638 11.129 13.3247 10.23 15.7394 12.2301C16.5575 12.9076 16.9685 13.5692 16.996 14.2532C17.0354 15.2441 16.2694 15.9934 15.5937 16.6544C15.4828 16.7634 15.3741 16.8689 15.2735 16.9726C14.9225 17.3337 14.3646 17.5146 13.6603 17.5146ZM3.09818 0.588449C2.41561 0.588449 1.79821 1.25769 1.25227 1.84917C1.14194 1.96818 1.03504 2.08423 0.930421 2.19204C0.406774 2.73109 0.460511 4.1497 1.06648 5.80573C1.81536 7.85175 3.30341 10.0869 5.25622 12.0993C7.20904 14.1118 9.37737 15.6447 11.3622 16.4164C12.9691 17.0415 14.3457 17.0957 14.8694 16.5555C14.974 16.4482 15.0855 16.3387 15.1998 16.2267C15.7875 15.6512 16.4535 14.9996 16.4249 14.2761C16.4049 13.7795 16.0539 13.2452 15.381 12.6885C13.3687 11.0224 12.8068 11.6115 11.8738 12.5848L11.6909 12.7751C11.2467 13.2352 10.5224 13.1344 9.538 12.4746C8.85772 12.0186 8.01509 11.2746 7.03468 10.2648C4.61596 7.77222 3.84192 6.24757 4.59938 5.46639L4.78174 5.28023C5.72956 4.31878 6.30123 3.73849 4.68398 1.66478C4.14319 0.972557 3.62469 0.610835 3.14277 0.589627C3.12791 0.589038 3.11247 0.588449 3.09818 0.588449Z" fill="white"/>
<path d="M13.7607 7.23846C13.7246 7.23846 13.6886 7.23139 13.6532 7.21666C13.5068 7.1554 13.436 6.98396 13.496 6.83373C13.8596 5.90999 13.6515 4.85722 12.9678 4.15204C12.2652 3.42801 11.1853 3.22712 10.2792 3.64658C10.1369 3.71315 9.96594 3.64834 9.90134 3.49988C9.83617 3.35142 9.89962 3.17704 10.0437 3.11047C11.1647 2.58733 12.5018 2.83889 13.3719 3.73612C14.2186 4.60861 14.4752 5.91117 14.0253 7.05524C13.9808 7.16836 13.8733 7.23846 13.7607 7.23846Z" fill="white"/>
<path d="M16.3123 8.30592C16.2763 8.30592 16.2403 8.29885 16.2048 8.28412C16.0579 8.22285 15.9876 8.05142 16.0476 7.90119C16.828 5.91761 16.3838 3.65832 14.9152 2.14486C13.4071 0.590753 11.0878 0.154802 9.14418 1.06028C9.00012 1.12509 8.83091 1.06146 8.76574 0.913004C8.70114 0.763956 8.7646 0.589575 8.90866 0.522415C11.0678 -0.48263 13.6438 0.00104074 15.3193 1.72776C16.9509 3.40912 17.4448 5.91879 16.577 8.12211C16.5324 8.2364 16.4249 8.30592 16.3123 8.30592Z" fill="white"/>
</svg>
