<svg width="22" height="18" viewBox="0 0 22 18" fill="none" xmlns="http://www.w3.org/2000/svg">
<path d="M19.3823 2.63985C16.324 -0.439014 11.5282 -0.876312 7.97879 1.60005C7.78375 1.73614 7.7352 2.00564 7.87042 2.20203C8.0056 2.39838 8.2733 2.44718 8.46833 2.31117C9.2935 1.73545 10.1934 1.33449 11.1217 1.10314C10.9524 1.31398 10.7901 1.55398 10.6357 1.82292C10.0202 2.89564 9.56283 4.36304 9.31314 6.06643C9.27846 6.30275 9.44071 6.52263 9.67549 6.55754C9.91002 6.5921 10.1286 6.4291 10.1633 6.19274C10.2157 5.83586 10.2784 5.48811 10.3505 5.15229H15.7766C16.0008 6.20014 16.1309 7.36011 16.156 8.5697H14.9527C14.7154 8.5697 14.523 8.76336 14.523 9.00228C14.523 9.24115 14.7154 9.43486 14.9527 9.43486H16.156C16.1309 10.6444 16.0008 11.8044 15.7766 12.8523H13.6498C13.4126 12.8523 13.2202 13.046 13.2202 13.2848C13.2202 13.5237 13.4126 13.7174 13.6498 13.7174H15.5627C15.4447 14.1345 15.3104 14.5282 15.1601 14.8931C14.6156 16.215 13.9181 17.0134 13.2242 17.1217C13.1176 17.124 13.011 17.1244 12.9044 17.1225C11.692 16.9388 10.5426 14.6673 10.1317 11.5856C10.1001 11.3488 9.88389 11.1826 9.6486 11.2145C9.41339 11.2463 9.24834 11.464 9.27992 11.7008C9.51492 13.4628 9.96901 14.9862 10.5931 16.1062C10.7571 16.4006 10.9305 16.6615 11.1118 16.889C10.096 16.6386 9.11806 16.1872 8.2415 15.5291C8.05123 15.3864 7.78208 15.4258 7.6402 15.6173C7.49831 15.8088 7.53754 16.0799 7.72781 16.2227C9.26807 17.379 11.1419 17.9997 13.062 18C13.0622 18 13.0624 18 13.0626 18C13.0627 18 13.0628 18 13.0628 18C13.063 18 13.0632 18 13.0634 18C13.2671 18 13.4714 17.993 13.6758 17.9789C15.8284 17.8308 17.855 16.9023 19.3824 15.3646C21.0704 13.6651 22 11.4056 22 9.00223C22 6.59885 21.0704 4.33934 19.3823 2.63985ZM21.1292 8.56965H17.0155C16.9915 7.36949 16.8676 6.21186 16.6537 5.15225H20.1821C20.7417 6.19784 21.0666 7.3592 21.1292 8.56965ZM10.5645 4.28708C10.7866 3.5006 11.0633 2.8073 11.3798 2.25567C11.8927 1.36192 12.4902 0.869679 13.0625 0.869679C13.8087 0.869679 14.5732 1.68678 15.16 3.11145C15.3103 3.47634 15.4446 3.87003 15.5626 4.28708H10.5645ZM15.9539 2.78009C15.6751 2.10332 15.3549 1.54178 15.0036 1.10474C16.392 1.45116 17.7016 2.17141 18.7746 3.25165C19.0962 3.5754 19.3869 3.9219 19.6462 4.28708H16.4535C16.3118 3.74891 16.1448 3.24356 15.9539 2.78009ZM18.7746 14.7528C17.7114 15.8232 16.4044 16.5368 15.0177 16.8822C15.3635 16.4477 15.6788 15.8921 15.9539 15.2243C16.1448 14.7608 16.3118 14.2555 16.4535 13.7173H19.6462C19.387 14.0826 19.0963 14.4291 18.7746 14.7528ZM16.6538 12.8522C16.8676 11.7926 16.9916 10.635 17.0155 9.43482H21.1292C21.0666 10.6453 20.7418 11.8066 20.1822 12.8522H16.6538Z" fill="#514EC1"/>
<path d="M12.149 12.9788C12.0691 12.8983 11.9582 12.8521 11.8452 12.8521C11.7318 12.8521 11.6214 12.8983 11.5414 12.9788C11.4611 13.0593 11.4155 13.1709 11.4155 13.2846C11.4155 13.3984 11.4611 13.51 11.5414 13.5904C11.6213 13.6709 11.7322 13.7172 11.8452 13.7172C11.9582 13.7172 12.0691 13.6709 12.149 13.5904C12.2289 13.51 12.2749 13.3984 12.2749 13.2846C12.2749 13.1709 12.2289 13.0593 12.149 12.9788Z" fill="#514EC1"/>
<path d="M13.4036 8.73704C12.7292 7.85076 11.6646 7.32167 10.5557 7.32167H8.99569L7.42119 3.50919C7.35454 3.34784 7.19805 3.24268 7.02446 3.24268H5.40192C5.16464 3.24268 4.97223 3.43634 4.97223 3.67526V7.32167H3.40417L2.30645 5.99762C2.22481 5.89917 2.10394 5.84224 1.97654 5.84224H0.429707C0.276653 5.84224 0.135157 5.92421 0.0582 6.05741C-0.018714 6.19064 -0.0194445 6.35498 0.0563093 6.48886L1.47677 9.00009L0.0563093 11.5113C-0.0194445 11.6452 -0.018714 11.8096 0.0582 11.9428C0.135114 12.076 0.27661 12.158 0.429707 12.158H1.97658C2.10398 12.158 2.22481 12.1011 2.30645 12.0026L3.40426 10.6786H4.97232V14.3295C4.97232 14.5684 5.16473 14.7621 5.402 14.7621H7.02454C7.19818 14.7621 7.3548 14.6568 7.42136 14.4954L8.99591 10.6786H10.5557V10.6785C11.6646 10.6785 12.7293 10.1494 13.4036 9.26315C13.5218 9.10793 13.5218 8.89225 13.4036 8.73704ZM5.83165 4.10784H6.73781L8.06507 7.32167H5.83165V4.10784ZM6.73769 13.8969H5.83165V10.6759H8.06641L6.73769 13.8969ZM10.5558 9.81335H3.26985C3.24253 9.80928 3.21455 9.80794 3.18675 9.80915C3.06657 9.81491 2.95425 9.8711 2.87716 9.96406L1.77553 11.2928H1.16886L2.34461 9.21413C2.41967 9.08146 2.41967 8.91872 2.34461 8.78605L1.16886 6.7074H1.77553L2.87716 8.03613C2.95446 8.12939 3.06717 8.18563 3.18774 8.19108C3.21537 8.19229 3.24304 8.19086 3.27015 8.18684H10.5557C11.2827 8.18684 11.9846 8.48584 12.493 9.00009C11.9846 9.51435 11.2827 9.81335 10.5558 9.81335Z" fill="#514EC1"/>
<path d="M0.797886 3.36893C0.718007 3.28847 0.607148 3.24219 0.49414 3.24219C0.381133 3.24219 0.270273 3.28847 0.190351 3.36893C0.11043 3.44939 0.0644531 3.561 0.0644531 3.67477C0.0644531 3.78854 0.110387 3.90015 0.190351 3.98061C0.270273 4.0615 0.381133 4.10735 0.49414 4.10735C0.607148 4.10735 0.718007 4.0615 0.797886 3.98061C0.877808 3.90015 0.923827 3.78897 0.923827 3.67477C0.923784 3.561 0.877808 3.44939 0.797886 3.36893Z" fill="#514EC1"/>
<path d="M3.88867 3.24268H2.0625C1.82523 3.24268 1.63281 3.43634 1.63281 3.67526C1.63281 3.91417 1.82518 4.10784 2.0625 4.10784H3.88867C4.12594 4.10784 4.31836 3.91417 4.31836 3.67526C4.31836 3.43634 4.12599 3.24268 3.88867 3.24268Z" fill="#514EC1"/>
<path d="M3.46835 13.897H0.816406C0.579133 13.897 0.386719 14.0907 0.386719 14.3296C0.386719 14.5684 0.579133 14.7621 0.816406 14.7621H3.46835C3.70562 14.7621 3.89804 14.5684 3.89804 14.3296C3.89804 14.0907 3.70562 13.897 3.46835 13.897Z" fill="#514EC1"/>
</svg>
