<?xml version="1.0" encoding="utf-8"?>
<!-- Generator: Adobe Illustrator 16.0.0, SVG Export Plug-In . SVG Version: 6.00 Build 0)  -->
<!DOCTYPE svg PUBLIC "-//W3C//DTD SVG 1.1//EN" "http://www.w3.org/Graphics/SVG/1.1/DTD/svg11.dtd">
<svg version="1.1" id="Layer_1" xmlns="http://www.w3.org/2000/svg" xmlns:xlink="http://www.w3.org/1999/xlink" x="0px" y="0px"
	 width="24px" height="24px" viewBox="0 0 24 24" enable-background="new 0 0 24 24" xml:space="preserve">
<path style="fill:#fff;" d="M8.375,13.746V4.419L5.027,7.558V4.489l4.458-4.188l4.472,4.188v3.069l-3.352-3.139v8.67h9.281l-3.141-3.346h3.07L24,14.213
	l-4.184,4.458h-3.07l3.141-3.348H9.949l-6.141,6.139h4.566l-2.236,2.237H0v-6.139l2.236-2.237v4.563L8.375,13.746z M11.865,18.41
	l-1.377,2.693v1.479H9.542v-1.467L8.233,18.41h1.068l0.671,1.558l0.094,0.341h0.01l0.092-0.328l0.695-1.57H11.865z M16.476,12.533
	H15.34l-0.727-1.357l-0.089-0.277H14.52l-0.099,0.29l-0.739,1.345h-1.131l1.347-2.084l-1.229-2.082h1.156l0.603,1.248l0.133,0.352
	h0.007l0.137-0.363l0.66-1.236h1.055l-1.246,2.068L16.476,12.533z M7.277,13.09H3.881v-0.545l2.167-2.848H4.066V8.924h3.211v0.536
	L5.165,12.32h2.112V13.09z"/>
</svg>
