<!-- Generator: Avocode undefined - http://avocode.com -->
<svg height="25" width="24" xmlns:xlink="http://www.w3.org/1999/xlink" xmlns="http://www.w3.org/2000/svg" viewBox="0 0 24 25">
    <path fill="#fff" fill-rule="evenodd" d="M 20.49 17.35 C 19.53 17.35 18.66 17 17.97 16.44 C 17.97 16.44 7.83 21.7 7.83 21.7 C 7.83 21.7 7.83 21.71 7.83 21.72 C 7.83 23.56 6.33 25.06 4.49 25.06 C 2.65 25.06 1.15 23.56 1.15 21.72 C 1.15 19.88 2.65 18.38 4.49 18.38 C 5.37 18.38 6.16 18.73 6.76 19.29 C 6.76 19.29 16.76 14.88 16.76 14.88 C 16.55 14.39 16.44 13.86 16.44 13.29 C 16.44 12.81 16.54 12.35 16.7 11.91 C 16.7 11.91 7.82 7.1 7.82 7.1 C 7.01 8.05 5.83 8.66 4.49 8.66 C 2.08 8.66 0.12 6.71 0.12 4.29 C 0.12 1.88 2.08 -0.08 4.49 -0.08 C 6.91 -0.08 8.86 1.88 8.86 4.29 C 8.86 4.52 8.83 4.74 8.8 4.95 C 8.8 4.95 17.75 10.32 17.75 10.32 C 18.48 9.66 19.43 9.24 20.49 9.24 C 22.73 9.24 24.54 11.06 24.54 13.29 C 24.54 15.53 22.73 17.35 20.49 17.35 Z" />
</svg>