<?xml version="1.0" encoding="iso-8859-1"?>
<!-- Generator: Adobe Illustrator 16.0.0, SVG Export Plug-In . SVG Version: 6.00 Build 0)  -->
<!DOCTYPE svg PUBLIC "-//W3C//DTD SVG 1.1//EN" "http://www.w3.org/Graphics/SVG/1.1/DTD/svg11.dtd">
<svg version="1.1" id="Capa_1" xmlns="http://www.w3.org/2000/svg" xmlns:xlink="http://www.w3.org/1999/xlink" x="0px" y="0px"
	 width="95.438px" height="95.438px" viewBox="0 0 95.438 95.438" style="enable-background:new 0 0 95.438 95.438;"
	 xml:space="preserve">
<g>
	<path d="M54.719,6.974c0-1.043-0.84-1.884-1.883-1.884h-10.23c-1.045,0-1.884,0.841-1.884,1.884v0.05
		c0,1.043,0.839,1.884,1.884,1.884h10.23c1.043,0,1.883-0.84,1.883-1.884V6.974z"/>
	<g>
		<path d="M69.352,0H26.086c-4.212,0-7.635,3.423-7.635,7.635v80.168c0,4.212,3.423,7.636,7.635,7.636h43.265
			c4.214,0,7.636-3.424,7.636-7.636V7.636C76.987,3.423,73.565,0,69.352,0z M47.719,92.574c-2.277,0-4.136-1.856-4.136-4.136
			c0-2.276,1.858-4.136,4.136-4.136s4.136,1.857,4.136,4.136C51.855,90.718,49.997,92.574,47.719,92.574z M70.624,80.169
			c0,0.698-0.571,1.272-1.272,1.272H26.086c-0.699,0-1.272-0.574-1.272-1.272V15.271c0-0.7,0.573-1.272,1.272-1.272h43.265
			c0.701,0,1.272,0.573,1.272,1.272V80.169z"/>
		<path d="M43.583,66.171c-0.877,0-1.59,0.713-1.59,1.591c0,0.318,0.095,0.611,0.255,0.859l-2.617,3.365
			c-0.158-0.056-0.324-0.09-0.502-0.09c-0.357,0-0.687,0.124-0.952,0.324l-3.237-2.158c0.032-0.126,0.055-0.257,0.055-0.393
			c0-0.878-0.714-1.592-1.591-1.592c-0.878,0-1.591,0.714-1.591,1.592c0,0.285,0.082,0.546,0.211,0.777l-2.482,2.838
			c-0.184-0.072-0.382-0.116-0.592-0.116c-0.877,0-1.59,0.713-1.59,1.591c0,0.877,0.713,1.591,1.59,1.591
			c0.878,0,1.592-0.714,1.592-1.591c0-0.286-0.081-0.547-0.212-0.777l2.482-2.839c0.184,0.073,0.382,0.117,0.592,0.117
			c0.359,0,0.688-0.125,0.953-0.325l3.238,2.159c-0.034,0.125-0.056,0.256-0.056,0.394c0,0.877,0.714,1.59,1.59,1.59
			c0.878,0,1.592-0.713,1.592-1.59c0-0.318-0.096-0.611-0.256-0.861l2.616-3.364c0.16,0.056,0.326,0.09,0.502,0.09
			c0.877,0,1.591-0.714,1.591-1.591S44.46,66.171,43.583,66.171z"/>
		<path d="M36.267,40.085v-5.727c-3.514,0-6.362,2.85-6.362,6.363h5.726C35.982,40.721,36.267,40.435,36.267,40.085z"/>
		<path d="M42.544,41.781c0.57-3.533-1.772-6.638-5.005-7.293v6.233c0,0.702-0.57,1.272-1.272,1.272h-6.233
			c0.656,3.232,3.761,5.576,7.293,5.006C39.965,46.572,42.117,44.419,42.544,41.781z"/>
		<rect x="33.721" y="22.906" width="3.818" height="7.635"/>
		<rect x="28.632" y="26.723" width="3.816" height="3.817"/>
		<rect x="38.812" y="17.816" width="3.817" height="12.725"/>
		<path d="M48.98,27.995h16.555c0.696,0,1.26-0.563,1.26-1.26v-0.024c0-0.696-0.562-1.26-1.26-1.26H48.98
			c-0.696,0-1.261,0.564-1.261,1.26v0.024C47.719,27.432,48.283,27.995,48.98,27.995z"/>
		<path d="M36.659,63.687v-1.354c1.794-0.236,2.84-1.517,2.84-3.017c0-3.299-4.96-2.988-4.96-4.74c0-0.735,0.691-1.25,1.574-1.25
			c1.311,0,2.311,0.912,2.311,0.912l0.824-1.545c0,0-0.884-0.928-2.589-1.074v-1.355h-1.268v1.384
			c-1.633,0.267-2.766,1.442-2.766,2.958c0,3.164,4.974,2.987,4.974,4.752c0,0.855-0.722,1.268-1.515,1.268
			c-1.473,0-2.604-1.104-2.604-1.104l-1.032,1.426c0,0,1.045,1.164,2.943,1.386v1.354H36.659z"/>
		<path d="M65.547,50.9H48.991c-0.695,0-1.26,0.564-1.26,1.26v0.025c0,0.695,0.564,1.26,1.26,1.26h16.556
			c0.696,0,1.26-0.563,1.26-1.26V52.16C66.807,51.466,66.243,50.9,65.547,50.9z"/>
		<path d="M65.547,41.993H48.991c-0.695,0-1.26,0.564-1.26,1.26v0.024c0,0.696,0.564,1.26,1.26,1.26h16.556
			c0.696,0,1.26-0.564,1.26-1.26v-0.024C66.807,42.557,66.243,41.993,65.547,41.993z"/>
		<path d="M48.98,21.633h16.555c0.696,0,1.26-0.564,1.26-1.26v-0.025c0-0.696-0.562-1.26-1.26-1.26H48.98
			c-0.696,0-1.261,0.564-1.261,1.26v0.025C47.719,21.069,48.283,21.633,48.98,21.633z"/>
		<path d="M65.547,72.533H48.991c-0.695,0-1.26,0.563-1.26,1.261v0.024c0,0.695,0.564,1.26,1.26,1.26h16.556
			c0.696,0,1.26-0.563,1.26-1.26v-0.024C66.807,73.098,66.243,72.533,65.547,72.533z"/>
		<path d="M65.547,66.171H48.991c-0.695,0-1.26,0.563-1.26,1.26v0.024c0,0.697,0.564,1.261,1.26,1.261h16.556
			c0.696,0,1.26-0.563,1.26-1.261v-0.024C66.807,66.736,66.243,66.171,65.547,66.171z"/>
		<path d="M65.547,57.263H48.991c-0.695,0-1.26,0.563-1.26,1.26v0.025c0,0.696,0.564,1.26,1.26,1.26h16.556
			c0.696,0,1.26-0.563,1.26-1.26v-0.025C66.807,57.828,66.243,57.263,65.547,57.263z"/>
		<path d="M65.547,35.631H48.991c-0.695,0-1.26,0.563-1.26,1.26v0.025c0,0.695,0.564,1.26,1.26,1.26h16.556
			c0.696,0,1.26-0.564,1.26-1.26v-0.025C66.807,36.195,66.243,35.631,65.547,35.631z"/>
	</g>
</g>
<g>
</g>
<g>
</g>
<g>
</g>
<g>
</g>
<g>
</g>
<g>
</g>
<g>
</g>
<g>
</g>
<g>
</g>
<g>
</g>
<g>
</g>
<g>
</g>
<g>
</g>
<g>
</g>
<g>
</g>
</svg>
