<?xml version="1.0" encoding="utf-8"?>
<!-- Generator: Adobe Illustrator 16.0.0, SVG Export Plug-In . SVG Version: 6.00 Build 0)  -->
<!DOCTYPE svg PUBLIC "-//W3C//DTD SVG 1.1//EN" "http://www.w3.org/Graphics/SVG/1.1/DTD/svg11.dtd">
<svg version="1.1" id="Layer_1" xmlns="http://www.w3.org/2000/svg" xmlns:xlink="http://www.w3.org/1999/xlink" x="0px" y="0px"
	 width="512px" height="512px" viewBox="0 0 512 512" enable-background="new 0 0 512 512" xml:space="preserve">
<path d="M450.167,135.802v-21h-64.03l-40.61,33.759c-24.065-18.744-54.297-29.925-87.093-29.925
	c-15.915,0-31.226,2.632-45.521,7.482l-41.484-41.483H61.833v21H162.73l29.442,29.441c-21.488,11.386-39.721,28.123-52.909,48.429
	l-22.062-30.545H61.833v21h44.631l21.741,30.1c-7.564,17.344-11.771,36.476-11.771,56.575c0,78.298,63.701,141.999,141.999,141.999
	c10.361,0,20.462-1.126,30.198-3.243l31.214,27.973h130.321v-21H327.879L312,392.134c51.821-21.187,88.432-72.144,88.432-131.499
	c0-37.885-14.914-72.351-39.178-97.839l32.473-26.994H450.167z M258.434,315.564c-30.288,0-54.929-24.641-54.929-54.929
	s24.641-54.929,54.929-54.929s54.929,24.641,54.929,54.929S288.721,315.564,258.434,315.564z M217.875,196.495l-32.355-32.356
	c17.667-13.382,39.105-22.028,62.414-24.041v45.352C237.001,186.969,226.812,190.824,217.875,196.495z M178.507,351.396
	l31.956-31.956c13.087,10.695,29.79,17.125,47.97,17.125c15.641,0,30.19-4.757,42.283-12.895l32.233,32.233
	c-20.555,16.113-46.433,25.731-74.516,25.731C227.825,381.634,199.84,370.204,178.507,351.396z"/>
</svg>
