<?xml version="1.0" encoding="iso-8859-1"?>
<!-- Generator: Adobe Illustrator 16.0.0, SVG Export Plug-In . SVG Version: 6.00 Build 0)  -->
<!DOCTYPE svg PUBLIC "-//W3C//DTD SVG 1.1//EN" "http://www.w3.org/Graphics/SVG/1.1/DTD/svg11.dtd">
<svg version="1.1" id="Capa_1" xmlns="http://www.w3.org/2000/svg" xmlns:xlink="http://www.w3.org/1999/xlink" x="0px" y="0px"
	 width="60.897px" height="60.897px" viewBox="0 0 60.897 60.897" style="enable-background:new 0 0 60.897 60.897;"
	 xml:space="preserve">
<g>
	<g>
		<path d="M45.078,31.491c-1.073,1.492-2.555,2.324-4.132,2.225c-1.459-0.085-2.839-0.903-4.036-2.324
			c-0.657,0.938-1.249,2.086-1.749,3.413c1.641,1.538,3.533,2.432,5.569,2.554c2.304,0.132,4.459-0.739,6.15-2.383
			c-0.543-0.824-1.065-1.798-1.552-2.96C45.254,31.831,45.164,31.662,45.078,31.491z"/>
		<path d="M16.212,29.039c0.934-5.797,4.47-8.704,7.482-8.947c3.042-0.228,5.564,2.093,6.749,6.254
			c0.401,1.408,0.896,2.696,1.462,3.865c0.745-1.308,1.595-2.435,2.532-3.359c-0.176-0.482-0.34-0.98-0.488-1.505
			c-1.999-7.016-6.753-9.194-10.547-8.888c-4.015,0.322-7.454,3.153-9.391,7.362C14.927,25.28,15.694,27.004,16.212,29.039z"/>
		<path d="M47.655,26.76c0.895,0.938,1.652,2.072,2.218,3.384c1.079-2.077,2.387-3.343,3.618-3.437
			c0.931-0.062,1.874,0.561,2.589,1.731c0.526,0.857,1.648,1.127,2.507,0.604c0.859-0.525,1.129-1.646,0.604-2.506
			c-1.454-2.381-3.639-3.643-5.977-3.464C51.9,23.173,49.687,23.843,47.655,26.76z"/>
		<path d="M59.073,55.365c-0.001,0-0.002,0-0.003,0l-2.928,0.006v-2.825c0-1.008-0.816-1.823-1.823-1.823
			c-1.005,0-1.823,0.815-1.823,1.823v2.83l-16.862,0.027v-2.857c0-1.008-0.817-1.823-1.823-1.823s-1.823,0.815-1.823,1.823v2.864
			l-18.002,0.028v-2.893c0-1.008-0.817-1.823-1.823-1.823s-1.823,0.815-1.823,1.823v2.898l-6.695,0.011V44.959
			c2.328-0.675,6.701-2.489,9.642-7.02c-0.698-1.576-1.212-3.389-1.456-5.454c-0.002-0.019-0.006-0.032-0.008-0.049
			c-1.698,5.546-5.701,7.827-8.177,8.719V21.19v-0.551v-0.551c2.649,0.933,7.114,3.429,8.745,9.796
			c0.199,0.775,0.37,1.584,0.475,2.48c0.196,1.656,0.576,3.133,1.085,4.451c1.986,5.149,6.029,7.758,9.586,7.997
			c0.182,0.013,0.366,0.02,0.552,0.02c3.511,0,7.696-2.233,9.501-8.577c0.23-0.809,0.493-1.563,0.778-2.273
			c0.543-1.349,1.176-2.517,1.884-3.469c1.358-1.829,2.984-2.882,4.719-2.969c0.066-0.003,0.134-0.004,0.198-0.004
			c1.76,0,3.407,1.083,4.523,2.918c0.218,0.36,0.425,0.738,0.598,1.155c0.416,0.995,0.858,1.84,1.314,2.56
			c2.047,3.245,4.349,3.933,5.685,4.022c0.111,0.006,0.225,0.01,0.337,0.01c2.067,0,3.976-1.171,5.266-3.279
			c0.387-0.635,0.14-1.435-0.553-1.788c-0.224-0.114-0.465-0.167-0.701-0.167c-0.504,0-0.992,0.242-1.256,0.673
			c-0.762,1.25-1.763,1.936-2.77,1.936c-0.039,0-0.077-0.002-0.116-0.005c-1.461-0.096-2.999-1.658-4.199-4.201
			c-0.107-0.229-0.217-0.451-0.319-0.695c-0.486-1.167-1.142-2.167-1.898-3.009c-1.57-1.746-3.627-2.758-5.863-2.758
			c-0.134,0-0.269,0.003-0.4,0.01c-2.21,0.112-4.248,1.162-5.963,2.99c-0.881,0.937-1.675,2.08-2.364,3.404
			c-0.661,1.268-1.228,2.697-1.678,4.28c-1.188,4.173-3.65,6.611-6.679,6.611c-0.126,0-0.253-0.004-0.381-0.013
			c-3.423-0.23-7.279-3.778-8.025-10.109c-0.002-0.017-0.005-0.033-0.007-0.049c-0.339-2.828-1.144-5.13-2.2-7.007
			c-2.818-5.012-7.434-6.979-9.871-7.696V16.79v-0.537V3.612c0-1.008-0.816-1.823-1.823-1.823C0.817,1.789,0,2.604,0,3.612v13.052
			v0.935v1.298v0.931v39.28l59.078-0.095c1.007-0.004,1.821-0.82,1.819-1.827C60.894,56.181,60.079,55.365,59.073,55.365z"/>
	</g>
</g>
<g>
</g>
<g>
</g>
<g>
</g>
<g>
</g>
<g>
</g>
<g>
</g>
<g>
</g>
<g>
</g>
<g>
</g>
<g>
</g>
<g>
</g>
<g>
</g>
<g>
</g>
<g>
</g>
<g>
</g>
</svg>
