<?xml version="1.0" encoding="utf-8"?>
<!-- Generator: Adobe Illustrator 16.0.0, SVG Export Plug-In . SVG Version: 6.00 Build 0)  -->
<!DOCTYPE svg PUBLIC "-//W3C//DTD SVG 1.1//EN" "http://www.w3.org/Graphics/SVG/1.1/DTD/svg11.dtd">
<svg version="1.1" id="Layer_1" xmlns="http://www.w3.org/2000/svg" xmlns:xlink="http://www.w3.org/1999/xlink" x="0px" y="0px"
	 width="512px" height="512px" viewBox="0 0 512 512" enable-background="new 0 0 512 512" xml:space="preserve">
<g>
	<path d="M255.246,421.67c91.955,0,166.5-74.546,166.5-166.501c0-91.956-74.545-166.5-166.5-166.5v172.019h-166.4
		C91.76,350.087,165.137,421.67,255.246,421.67z"/>
	<path d="M228.246,230.929V58.91c-91.957,0-166.5,74.544-166.5,166.5c0,1.848,0.041,3.685,0.1,5.519H228.246z"/>
	<path d="M408.027,103.973C367.42,63.364,313.428,41,256,41v18.836c108.164,0,196.164,87.999,196.164,196.164
		s-88,196.164-196.164,196.164S59.836,364.165,59.836,256H41c0,57.429,22.363,111.419,62.973,152.027
		C144.58,448.636,198.57,471,256,471c57.428,0,111.42-22.364,152.027-62.973C448.635,367.419,471,313.429,471,256
		S448.635,144.581,408.027,103.973z"/>
</g>
</svg>
