<?xml version="1.0" encoding="utf-8"?>
<!-- Generator: Adobe Illustrator 16.0.0, SVG Export Plug-In . SVG Version: 6.00 Build 0)  -->
<!DOCTYPE svg PUBLIC "-//W3C//DTD SVG 1.1//EN" "http://www.w3.org/Graphics/SVG/1.1/DTD/svg11.dtd">
<svg version="1.1" id="Layer_1" xmlns="http://www.w3.org/2000/svg" xmlns:xlink="http://www.w3.org/1999/xlink" x="0px" y="0px"
	 width="512px" height="512px" viewBox="0 0 512 512" enable-background="new 0 0 512 512" xml:space="preserve">
<g>
	<path d="M61,61v390h390V61H61z M366,91h55v55h-55V91z M226,91h60v55h-60V91z M156,91h60v55h-60V91z M156,156h59.967l-0.017,60H156
		V156z M91,91h55v55H91V91z M91,156h55v60H91V156z M91,226h55v60H91V226z M146,296v24.34c0.139-0.365,0.284-0.728,0.419-1.095
		c1.61-4.391,3.084-8.83,4.412-13.314c2.013-6.793,3.611-13.712,5.169-20.641V226h24.635c0.448-0.39,0.898-0.777,1.366-1.144
		c10.651-8.332,25.202-10.64,36.802-2.29c2.563,1.845,4.965,3.851,7.197,6.006V226h50.752c0.822-3.341,1.669-6.676,2.545-10H226v-60
		h60v37.296c1.785-5.325,3.73-10.593,5.889-15.778c1.296-3.115,2.65-6.18,4.111-9.162V156h7.234c2.566-3.609,5.484-6.97,8.883-10
		H296V91h60v53.54c4.438,3.21,8.144,7.117,11.295,11.46H421v60h-32.566c0.735,3.338,1.475,6.673,2.237,10H421v68.129
		c-25.453-7.088-33.194-41.814-40.674-75.438c-7.736-34.783-15.044-67.638-42.134-72.717l-0.194-0.033
		c-22.298-3.495-33.817,23.947-37.603,32.961c-8.096,19.28-14.177,44.584-20.058,69.056c-6.704,27.896-15.047,62.612-23.742,67.516
		c-0.613,0.347-0.993,0.389-1.54,0.216c-8.021-2.674-12.721-22.132-16.497-37.767c-2.698-11.172-5.489-22.726-9.702-31.334
		c-9.053-18.799-20.785-20.611-26.959-20.017c-13.525,1.3-26.257,16.021-31.674,36.611c-0.938,3.514-1.954,7.973-3.131,13.137
		c-5.438,23.851-16.754,73.479-36.601,76.612l-0.203,0.036c-14.102,2.68-21.001-9.07-30.665-28.762
		c-2.808-5.721-5.537-11.268-8.624-16.102V296H146z M216,421h-60v-55h60V421z M286,421h-60v-55h60V421z M356,421h-60v-55h60V421z
		 M356,356h-60v-60h60V356z M421,421h-55v-55h55V421z M366,356v-60h20.959c-1.496-1.744-2.904-3.543-4.189-5.39
		c-1.051-1.511-2.043-3.05-2.994-4.61H366v-33.537c-3.99-14.396-6.605-29.373-10-43.748V216h-45.407
		c-0.93,3.324-1.827,6.658-2.693,10H356v60h-60v-11.652c-0.551,2.162-1.092,4.327-1.664,6.483
		c-2.384,8.976-4.922,18.074-8.336,26.782V356h-60v-45.98c-1.675-4.401-3.006-8.889-4.123-13.09
		c-2.137-8.041-3.828-16.193-5.877-24.255V286h-29.104c-0.771,3.336-1.55,6.672-2.354,10H212.5h3.5v60h-54.821
		c-4.138,5.713-9.106,10.605-15.179,13.84V421H91v-45.66V366h11.174c-3.483-2.883-6.545-6.352-9.214-10H91v-19.936
		c7.564,14.869,17.326,30.316,35.203,30.315c2.031,0,4.17-0.2,6.419-0.622c28.461-4.61,39.704-53.911,47.145-86.548
		c1.149-5.04,2.142-9.392,3.023-12.697c3.854-14.648,12.603-26.256,20.35-27c6.556-0.621,11.587,7.697,14.022,12.754
		c3.605,7.367,6.226,18.217,8.76,28.709c5.229,21.647,10.168,42.094,25.107,47.074c4.069,1.293,8.201,0.86,11.951-1.252
		c12.97-7.313,19.849-33.569,29.998-75.803c9.655-40.177,22.863-95.184,42.92-92.224c18.579,3.584,24.972,32.321,31.738,62.742
		c8.077,36.313,17.227,77.457,51.601,85.607c0.587,0.188,1.175,0.345,1.763,0.494V356H366z"/>
	<path d="M252.859,296h5.514c0.332-0.912,0.668-1.822,0.982-2.741c0.821-2.405,1.594-4.827,2.334-7.259h-11.658
		c0.53,2.084,1.081,4.162,1.683,6.227C252.082,293.489,252.463,294.747,252.859,296z"/>
</g>
</svg>
