<?xml version="1.0" encoding="iso-8859-1"?>
<!-- Generator: Adobe Illustrator 16.0.0, SVG Export Plug-In . SVG Version: 6.00 Build 0)  -->
<!DOCTYPE svg PUBLIC "-//W3C//DTD SVG 1.1//EN" "http://www.w3.org/Graphics/SVG/1.1/DTD/svg11.dtd">
<svg version="1.1" id="Capa_1" xmlns="http://www.w3.org/2000/svg" xmlns:xlink="http://www.w3.org/1999/xlink" x="0px" y="0px"
	 width="212.926px" height="212.926px" viewBox="0 0 212.926 212.926" style="enable-background:new 0 0 212.926 212.926;"
	 xml:space="preserve">
<g>
	<g>
		<path d="M155.734,0c-9.774,0-18.719,4.467-24.636,12.133C125.182,4.467,116.238,0,106.463,0c-9.772,0-18.717,4.467-24.636,12.133
			C75.909,4.467,66.964,0,57.192,0C39.9,0,25.832,14.068,25.832,31.359c0,16.387,12.633,29.873,28.672,31.237v85.673
			c0,1.486,1.205,2.688,2.688,2.688h98.542c1.48,0,2.688-1.202,2.688-2.688V62.591c16.041-1.365,28.672-14.851,28.672-31.237
			C187.094,14.068,173.025,0,155.734,0z"/>
	</g>
</g>
<g>
</g>
<g>
</g>
<g>
</g>
<g>
</g>
<g>
</g>
<g>
</g>
<g>
</g>
<g>
</g>
<g>
</g>
<g>
</g>
<g>
</g>
<g>
</g>
<g>
</g>
<g>
</g>
<g>
</g>
</svg>
