<svg height="512pt" viewBox="0 -89 512 511" width="512pt" xmlns="http://www.w3.org/2000/svg"><path d="m441.921875.5h-371.84375c-17.59375 0-31.90625 14.3125-31.90625 31.90625v244.507812c0 4.148438 3.367187 7.511719 7.515625 7.511719h420.625c4.148438 0 7.515625-3.363281 7.515625-7.511719v-244.511718c0-17.589844-14.3125-31.902344-31.90625-31.902344zm0 0" fill="#243133"/><path d="m429.648438 35.503906h-347.296876c-4.148437 0-7.511718 3.363282-7.511718 7.515625v233.894531c0 4.148438 3.363281 7.511719 7.511718 7.511719h347.296876c4.148437 0 7.511718-3.363281 7.511718-7.511719v-233.894531c0-4.152343-3.363281-7.515625-7.511718-7.515625zm0 0" fill="#5d7d84"/><path d="m429.648438 35.503906h-27.050782c4.152344 0 7.515625 3.363282 7.515625 7.515625v233.894531c0 4.148438-3.363281 7.511719-7.515625 7.511719h27.050782c4.148437 0 7.511718-3.363281 7.511718-7.511719v-233.894531c0-4.152343-3.363281-7.515625-7.511718-7.515625zm0 0" fill="#516e72"/><path d="m441.921875.5h-36.585937c17.589843 0 31.902343 14.3125 31.902343 31.90625v244.507812c0 4.148438-3.363281 7.511719-7.515625 7.511719h36.589844c4.148438 0 7.515625-3.363281 7.515625-7.511719v-244.511718c0-17.589844-14.3125-31.902344-31.90625-31.902344zm0 0" fill="#1d2728"/><path d="m256 147.964844 84.367188-42.980469c-.066407-.105469-.132813-.207031-.203126-.3125-.101562-.152344-.207031-.304687-.320312-.453125-.089844-.113281-.1875-.226562-.285156-.335938-.121094-.136718-.242188-.269531-.375-.402343-.105469-.101563-.21875-.203125-.332032-.300781-.136718-.121094-.277343-.234376-.425781-.34375-.121093-.09375-.246093-.179688-.375-.265626-.066406-.046874-.128906-.097656-.199219-.140624-.089843-.058594-.191406-.097657-.285156-.152344-.078125-.042969-.148437-.09375-.230468-.136719l-77.925782-39.703125c-2.144531-1.089844-4.679687-1.089844-6.824218 0l-77.925782 39.703125c-.082031.042969-.152344.09375-.234375.140625-.09375.050781-.191406.09375-.28125.148438-.070312.042968-.128906.09375-.199219.140624-.128906.082032-.253906.171876-.375.265626-.148437.109374-.289062.222656-.425781.34375-.113281.097656-.222656.199218-.332031.300781-.128906.132812-.253906.265625-.375.402343-.097656.109376-.195312.21875-.285156.335938-.113282.148438-.21875.300781-.320313.453125-.070312.105469-.136719.207031-.203125.3125zm0 0" fill="#c90e0e"/><path d="m171.632812 104.984375c-.007812.015625-.019531.03125-.03125.050781-.097656.164063-.179687.332032-.261718.5-.0625.128906-.128906.25-.183594.378906-.074219.183594-.136719.371094-.199219.558594-.042969.125-.089843.25-.125.378906-.058593.210938-.097656.425782-.136719.644532-.019531.113281-.050781.21875-.066406.332031-.042968.332031-.070312.667969-.070312 1.011719v89.515625c0 2.824219 1.585937 5.410156 4.105468 6.695312l77.925782 39.699219c.078125.042969.160156.070312.238281.105469.121094.054687.238281.109375.359375.15625.1875.074219.375.140625.5625.199219.121094.039062.238281.078124.359375.109374.207031.054688.421875.09375.632813.128907.101562.019531.203124.042969.308593.054687.316407.042969.632813.066406.953125.066406v-97.601562zm0 0" fill="#ffdb56"/><path d="m256 245.566406c.320312 0 .636719-.023437.953125-.0625.105469-.015625.203125-.039062.308594-.054687.210937-.039063.421875-.078125.632812-.132813.121094-.03125.238281-.070312.359375-.109375.1875-.058593.375-.125.558594-.199219.121094-.046874.242188-.101562.359375-.15625.078125-.035156.160156-.0625.238281-.101562l77.929688-39.703125c2.515625-1.28125 4.101562-3.867187 4.101562-6.695313v-89.515624c0-.339844-.023437-.679688-.070312-1.011719-.015625-.109375-.042969-.21875-.066406-.332031-.039063-.21875-.078126-.433594-.132813-.644532-.035156-.128906-.085937-.25-.128906-.378906-.0625-.1875-.121094-.375-.199219-.554688-.054688-.128906-.121094-.253906-.179688-.378906-.085937-.171875-.167968-.339844-.265624-.503906-.007813-.015625-.019532-.03125-.03125-.050781l-84.367188 42.984375zm0 0" fill="#80e7ff"/><path d="m509.800781 271.597656c-1.410156-1.40625-3.320312-2.199218-5.3125-2.199218h-496.976562c-4.148438 0-7.511719 3.363281-7.511719 7.515624 0 31.371094 25.523438 56.894532 56.894531 56.894532h398.207031c31.375 0 56.898438-25.523438 56.898438-56.894532 0-1.996093-.792969-3.90625-2.199219-5.316406zm0 0" fill="#ddd"/><path d="m509.800781 271.597656c-1.410156-1.40625-3.320312-2.199218-5.3125-2.199218h-43.085937c1.992187 0 3.902344.792968 5.3125 2.199218 1.410156 1.410156 2.199218 3.320313 2.199218 5.316406 0 31.371094-25.523437 56.894532-56.894531 56.894532h43.085938c31.371093 0 56.894531-25.523438 56.894531-56.894532 0-1.996093-.792969-3.90625-2.199219-5.316406zm0 0" fill="#c4c4c4"/><path d="m311.800781 269.398438h-111.601562c-4.148438 0-7.511719 3.363281-7.511719 7.515624 0 17.757813 14.445312 32.203126 32.207031 32.203126h62.214844c17.757813 0 32.203125-14.445313 32.203125-32.203126 0-4.152343-3.363281-7.515624-7.511719-7.515624zm0 0" fill="#8c8c8c"/><path d="m340.164062 104.671875c-.101562-.152344-.207031-.304687-.320312-.453125-.089844-.117188-.1875-.226562-.285156-.335938-.121094-.136718-.242188-.269531-.375-.402343-.105469-.101563-.214844-.203125-.328125-.300781-.140625-.121094-.28125-.234376-.429688-.34375-.121093-.09375-.246093-.179688-.375-.265626-.066406-.042968-.128906-.097656-.195312-.140624-.09375-.054688-.191407-.097657-.285157-.152344-.078124-.042969-.152343-.09375-.230468-.136719l-77.925782-39.699219h-.003906c-2.144531-1.09375-4.679687-1.09375-6.824218 0l-32.523438 16.570313 85.550781 43.585937 4.050781-1.972656 30.699219-15.640625c-.0625-.105469-.128906-.207031-.199219-.3125zm0 0" fill="#a50e0e"/><path d="m341.304688 107.492188c-.039063-.214844-.078126-.429688-.136719-.640626-.035157-.128906-.082031-.253906-.125-.382812-.0625-.183594-.125-.371094-.199219-.554688-.054688-.128906-.121094-.25-.183594-.375-.082031-.171874-.167968-.339843-.261718-.503906-.011719-.015625-.023438-.03125-.03125-.050781l-34.753907 17.707031v98.429688l32.660157-16.640625c1.96875-1.394531 3.167968-3.667969 3.167968-6.125v-89.515625c0-.339844-.027344-.679688-.070312-1.007813-.015625-.117187-.046875-.226562-.066406-.339843zm0 0" fill="#47dbf4"/></svg>