<?xml version="1.0" encoding="iso-8859-1"?>
<!-- Generator: Adobe Illustrator 16.0.0, SVG Export Plug-In . SVG Version: 6.00 Build 0)  -->
<!DOCTYPE svg PUBLIC "-//W3C//DTD SVG 1.1//EN" "http://www.w3.org/Graphics/SVG/1.1/DTD/svg11.dtd">
<svg version="1.1" id="Capa_1" xmlns="http://www.w3.org/2000/svg" xmlns:xlink="http://www.w3.org/1999/xlink" x="0px" y="0px"
	 width="117.578px" height="117.578px" viewBox="0 0 117.578 117.578" style="enable-background:new 0 0 117.578 117.578;"
	 xml:space="preserve">
<g>
	<path d="M99.934,104.342L79.702,52.776c-1.17-2.979-0.979-7.734,0.425-10.609l5.912-12.106c1.405-2.88,0.114-6.176-3.024-6.812
		c-1.004-0.163-2.021-0.261-3.022-0.323V3.721C79.992,1.667,78.327,0,76.271,0h-0.579c-2.056,0-3.723,1.667-3.723,3.721v19.501
		c-0.826,0.103-1.323,0.189-1.323,0.189c-3.171,0.767-5.771,2-7.71,3.238c-1.218,0.778-2.671,1.24-4.146,1.404
		c-1.479-0.162-2.928-0.626-4.147-1.404c-1.938-1.238-4.538-2.474-7.708-3.238c0,0-0.498-0.087-1.324-0.189V3.721
		C45.611,1.667,43.946,0,41.889,0H41.31c-2.056,0-3.721,1.667-3.721,3.721V22.93c-1,0.062-2.015,0.16-3.02,0.323
		c-3.14,0.633-4.429,3.932-3.022,6.812l5.909,12.107c1.406,2.875,1.596,7.629,0.428,10.609l-20.24,51.562
		c-1.167,2.984,0.339,6.258,3.406,7.168c7.636,2.256,22.141,5.883,36.758,6.052v0.002c0.3,0.002,0.599,0.014,0.897,0.014
		c0.025,0,0.054-0.002,0.082-0.002c0.027,0,0.057,0.002,0.081,0.002c0.299,0,0.599-0.012,0.897-0.014v-0.002
		c14.617-0.169,29.123-3.796,36.76-6.052C99.594,110.6,101.104,107.329,99.934,104.342z"/>
</g>
<g>
</g>
<g>
</g>
<g>
</g>
<g>
</g>
<g>
</g>
<g>
</g>
<g>
</g>
<g>
</g>
<g>
</g>
<g>
</g>
<g>
</g>
<g>
</g>
<g>
</g>
<g>
</g>
<g>
</g>
</svg>
