<?xml version="1.0" encoding="iso-8859-1"?>
<!-- Generator: Adobe Illustrator 19.0.0, SVG Export Plug-In . SVG Version: 6.00 Build 0)  -->
<svg version="1.1" id="Capa_1" xmlns="http://www.w3.org/2000/svg" xmlns:xlink="http://www.w3.org/1999/xlink" x="0px" y="0px"
	 viewBox="0 0 224.482 224.482" style="enable-background:new 0 0 224.482 224.482;" xml:space="preserve">
<g>
	<path d="M112.24,0C50.351,0,0,50.351,0,112.24s50.351,112.241,112.24,112.241S224.482,174.13,224.482,112.24S174.13,0,112.24,0z
		 M112.24,205.165c-51.238,0-92.924-41.686-92.924-92.925c0-51.238,41.686-92.924,92.924-92.924
		c51.239,0,92.925,41.686,92.925,92.924C205.165,163.48,163.479,205.165,112.24,205.165z"/>
	<path d="M112.24,33.07c-43.654,0-79.17,35.516-79.17,79.17c0,43.655,35.516,79.171,79.17,79.171
		c43.655,0,79.171-35.516,79.171-79.171C191.411,68.586,155.896,33.07,112.24,33.07z M140.116,97.247l-0.648,1.66h-19.72v-1.781
		c0-3.304-0.63-5.742-1.811-7.247c-1.116-1.418-2.621-2.079-4.491-2.079c-1.876,0-3.146,0.518-3.971,1.585
		c-0.927,1.201-1.359,2.729-1.359,4.675c0,1.952,0.483,3.462,1.463,4.616c1.067,1.258,3.204,2.597,6.359,3.987
		c8.017,3.422,14.025,6.918,17.863,10.385c4.07,3.678,6.103,8.944,6.103,15.651c0,6.38-2.286,11.606-6.343,15.533
		c-3.679,3.564-8.814,5.804-14.814,6.671v12.004h-11v-12.049c-7-0.878-11.603-3.296-15.872-7.184
		c-4.722-4.292-7.106-10.603-6.961-18.745l0.048-0.403l0.845-1.618h18.94v1.757c0,3.736,1.077,6.398,2.578,7.913
		c1.518,1.535,3.693,2.28,6.169,2.28c1.954,0,3.396-0.513,4.325-1.566c0.984-1.117,1.478-2.587,1.478-4.49
		c0-2.253-0.512-3.98-1.519-5.133c-1.119-1.281-3.253-2.602-6.306-3.925c-8.142-3.24-14.261-6.622-18.056-10.03
		c-4.02-3.609-6.149-8.91-6.149-15.757c0-6.213,1.789-11.416,6.003-15.462c3.833-3.681,9.475-5.966,14.475-6.803V60.907h12v11.068
		c5,1.124,10.906,3.783,14.447,7.902c3.841,4.459,5.951,10.197,5.843,17.038L140.116,97.247z"/>
</g>
<g>
</g>
<g>
</g>
<g>
</g>
<g>
</g>
<g>
</g>
<g>
</g>
<g>
</g>
<g>
</g>
<g>
</g>
<g>
</g>
<g>
</g>
<g>
</g>
<g>
</g>
<g>
</g>
<g>
</g>
</svg>
