<svg xmlns="http://www.w3.org/2000/svg" xmlns:xlink="http://www.w3.org/1999/xlink" version="1.1" x="0px" y="0px" viewBox="0 0 100 125" enable-background="new 0 0 100 100" xml:space="preserve"><g><path fill="#000000" d="M23.048,51.547c-7.264,0-13.153,5.889-13.153,13.154c0,7.264,5.889,13.152,13.153,13.152   c7.265,0,13.154-5.889,13.154-13.152C36.202,57.436,30.312,51.547,23.048,51.547z M23.048,70.914c-3.111,0-5.633-2.523-5.633-5.633   c0-3.111,2.522-5.635,5.633-5.635s5.633,2.523,5.633,5.635C28.681,68.391,26.159,70.914,23.048,70.914z"/><path fill="#000000" d="M72.178,46.518c-8.652,0-15.666,7.015-15.666,15.667s7.014,15.668,15.666,15.668   c8.654,0,15.668-7.016,15.668-15.668S80.832,46.518,72.178,46.518z M72.178,69.137c-3.838,0-6.951-3.113-6.951-6.951   s3.113-6.951,6.951-6.951c3.84,0,6.951,3.113,6.951,6.951S76.018,69.137,72.178,69.137z"/><path fill="#000000" d="M30.526,35.299h-0.773v8.511H18.986l-0.313,6.453c1.385-0.418,2.853-0.649,4.375-0.649   c8.333,0,15.087,6.754,15.087,15.088c0,1.061-0.111,2.096-0.32,3.094h17.689c-0.592-1.764-0.926-3.646-0.926-5.609   c0-9.721,7.879-17.602,17.6-17.602c3.17,0,6.137,0.85,8.705,2.315c0,0,5.672,3.229,7.736,9.678h1.486c0,0-1.283-6.441-9.223-11.721   V43.81V22.146h-29.98L48.195,43.81H31.88v-8.511h-0.773 M63.299,41.488H50.824l2.127-17.021h11.25L63.299,41.488z M78.562,41.488   h-12.02l0.025-17.021h11.994V41.488z"/></g></svg>