<svg width="53" height="34" viewBox="0 0 53 34" fill="none" xmlns="http://www.w3.org/2000/svg">
<path d="M8.46253 33.1695L27.0792 23.1472L29.4205 25.474L25.0782 26.0137C23.4301 26.2184 22.1866 27.6181 22.1866 29.2687C22.1866 31.0779 23.6678 32.55 25.4881 32.55C26.14 32.55 26.7993 32.5143 27.448 32.4418L36.7674 31.4128L38.1197 26.0347L33.6613 19.8313L39.3833 19.0186L41.4636 26.2499L47.5427 26.2499C49.2902 26.2499 50.7122 24.8366 50.7122 23.0999C50.7122 21.3632 49.2902 19.9499 47.5427 19.9499L46.295 19.9499L45.3558 15.2827L41.2153 10.3456C40.1799 9.10867 38.6575 8.39992 37.0389 8.39992C36.7864 8.39992 36.535 8.42197 36.2856 8.45662L31.8441 6.24951L22.7898 8.04922C21.2156 8.36317 20.0735 9.74707 20.0735 11.342C20.0735 13.1932 21.5896 14.6999 23.4523 14.6999L24.0333 14.6999L23.7343 14.8616L4.83977 26.7224C3.79383 27.3787 3.16943 28.5053 3.16943 29.7349L3.16943 30.0362C3.16943 32.0019 4.77743 33.6 6.75522 33.6C7.34897 33.6 7.93956 33.4509 8.46253 33.1695ZM35.8335 26.4662L35.0738 29.4871L27.2155 30.3544C26.644 30.4184 26.0629 30.4499 25.4881 30.4499C24.8331 30.4499 24.2996 29.9197 24.2996 29.2687C24.2996 28.6754 24.7475 28.1714 25.3402 28.0979L33.9687 27.0259L29.0169 22.1045L31.6719 20.6755L35.8335 26.4662ZM23.4523 12.5999C22.7539 12.5999 22.1866 12.0361 22.1866 11.342C22.1866 10.7456 22.6144 10.2259 23.204 10.1083L31.5462 8.45032L33.6402 9.49087L29.3761 11.803L24.3144 12.5842C24.2489 12.5947 24.1855 12.5999 24.12 12.5999L23.4523 12.5999ZM5.28245 30.0362L5.28245 29.7349C5.28245 29.2309 5.53918 28.7678 5.96812 28.498L24.8046 16.6708L35.4457 10.9031C35.9328 10.6396 36.4832 10.4999 37.0389 10.4999C38.0299 10.4999 38.9597 10.9336 39.5925 11.6896L43.3907 16.2182L44.5644 22.0499L47.5427 22.0499C48.1259 22.0499 48.5992 22.5203 48.5992 23.0999C48.5992 23.6795 48.1259 24.1499 47.5427 24.1499L43.0568 24.1499L40.91 16.6813L32.4157 17.8867L7.45568 31.3235C7.24121 31.438 6.99821 31.4999 6.75522 31.4999C5.94276 31.4999 5.28245 30.8437 5.28245 30.0362Z" fill="white"/>
<path d="M46.486 12.6C49.982 12.6 52.8251 9.77446 52.8251 6.30001C52.8251 2.82556 49.982 8.59393e-07 46.486 5.53911e-07C42.99 2.48429e-07 40.147 2.82555 40.147 6.30001C40.147 9.77446 42.99 12.6 46.486 12.6ZM46.486 2.1C48.8167 2.1 50.712 3.98371 50.712 6.30001C50.712 8.61631 48.8167 10.5 46.486 10.5C44.1554 10.5 42.26 8.61631 42.26 6.30001C42.26 3.98371 44.1554 2.1 46.486 2.1Z" fill="white"/>
<path d="M2.11301 15.75L0 15.75L-1.83676e-07 17.85L2.11301 17.85L2.11301 15.75Z" fill="white"/>
<path d="M14.7909 15.75L4.22583 15.75L4.22583 17.85L14.7909 17.85L14.7909 15.75Z" fill="white"/>
<path d="M4.22605 11.55L2.11304 11.55L2.11304 13.6501L4.22605 13.6501L4.22605 11.55Z" fill="white"/>
<path d="M17.9604 11.55L6.33887 11.55L6.33887 13.6501L17.9604 13.6501L17.9604 11.55Z" fill="white"/>
<path d="M6.33884 7.34961L4.22583 7.34961L4.22583 9.44961L6.33884 9.44961L6.33884 7.34961Z" fill="white"/>
<path d="M19.0175 7.34961L8.45239 7.34961L8.45239 9.44961L19.0175 9.44961L19.0175 7.34961Z" fill="white"/>
</svg>
