<svg width="42" height="43" viewBox="0 0 42 43" fill="none" xmlns="http://www.w3.org/2000/svg">
<path d="M41.0045 15.148C40.5494 12.1691 37.8369 2.31213 22.0461 0.539008C17.7362 0.055245 13.5216 0.838657 9.85789 2.80507C7.29857 4.17876 5.25392 5.97544 3.78077 8.14531C1.92287 10.8819 0.987285 14.2026 1.00013 18.015C1.00128 18.3516 1.27925 18.6261 1.61987 18.6224C1.9609 18.6213 2.23656 18.3475 2.23541 18.0109C2.21359 11.5683 4.97678 6.81256 10.4481 3.87586C13.8879 2.0297 17.8503 1.29479 21.9065 1.7502C36.8245 3.42525 39.361 12.5676 39.7831 15.3298C39.7864 15.3506 39.781 15.3692 39.7673 15.385C39.7533 15.4009 39.7354 15.409 39.7138 15.409L28.8167 15.409C27.8161 15.409 26.8756 15.7934 26.1681 16.4915L21.669 20.9314C21.656 20.9443 21.6379 20.9517 21.6195 20.9517L13.7422 20.9517C12.1275 20.9517 10.6995 21.9673 10.1888 23.479L9.01601 26.951C9.00654 26.9793 8.97978 26.9983 8.94964 26.9983L3.82416 26.9983C3.79312 26.9983 3.76579 26.9773 3.75615 26.9461C3.26288 25.3493 2.88471 23.7963 2.63243 22.3301C2.57529 21.9983 2.25657 21.7748 1.92007 21.8313C1.58372 21.8876 1.35747 22.2024 1.41452 22.5342C1.67561 24.0514 2.06596 25.6553 2.57455 27.3017C2.74383 27.8493 3.246 28.2172 3.82408 28.2172L4.71289 28.2172L16.4947 36.33L17.569 38.1661C17.7528 38.4803 18.0954 38.6755 18.463 38.6755L20.7499 38.6755C20.8724 38.6755 20.9914 38.652 21.1034 38.6115L26.8103 41.863C26.9694 41.9536 27.146 41.9999 27.3248 41.9999C27.4145 41.9999 27.5047 41.9883 27.5937 41.9647C27.8599 41.8944 28.0826 41.7258 28.2205 41.4901L29.0764 40.0272C29.361 39.5408 29.1915 38.9166 28.6985 38.6357L22.8393 35.2976C22.8237 35.2621 22.8071 35.227 22.7872 35.1931L21.6438 33.2387C21.602 33.1673 21.5511 33.1029 21.4945 33.0448L21.4945 30.3949C21.4945 30.0583 21.218 29.7854 20.8769 29.7854C20.5358 29.7854 20.2593 30.0583 20.2593 30.3949L20.2593 32.6619L18.9534 32.6619L18.9534 22.2246L20.2593 22.2246L20.2593 26.3204C20.2593 26.657 20.5358 26.9298 20.8769 26.9298C21.218 26.9298 21.4945 26.657 21.4945 26.3204L21.4945 22.1706L21.6194 22.1706C21.968 22.1706 22.2957 22.0366 22.5424 21.7934L27.0415 17.3534C27.5156 16.8856 28.146 16.6279 28.8165 16.6279L39.7138 16.6279C40.0946 16.6279 40.4553 16.4647 40.7036 16.18C40.9516 15.8955 41.0613 15.5192 41.0045 15.148ZM10.188 27.3365L11.3608 23.8644C11.703 22.8512 12.6601 22.1705 13.7422 22.1705L17.7183 22.1705L17.7183 32.6284L17.7182 32.6284L10.1556 27.4209C10.1672 27.3932 10.1783 27.3652 10.188 27.3365ZM16.5911 34.9099L6.87157 28.2171L8.94981 28.2171C9.01214 28.2171 17.2465 33.7898 17.2465 33.7898L16.5911 34.9099ZM22.584 36.5595L27.9052 39.5912L27.2523 40.7072L21.9309 37.6755L22.584 36.5595ZM20.6328 33.9482L21.659 35.7023L20.6328 37.4565L18.5801 37.4565L17.5539 35.7023L18.5801 33.9482L20.6328 33.9482Z" fill="white" stroke="white" stroke-width="0.5"/>
</svg>
