<?xml version="1.0" encoding="iso-8859-1"?>
<!-- Generator: Adobe Illustrator 17.1.0, SVG Export Plug-In . SVG Version: 6.00 Build 0)  -->
<!DOCTYPE svg PUBLIC "-//W3C//DTD SVG 1.1//EN" "http://www.w3.org/Graphics/SVG/1.1/DTD/svg11.dtd">
<svg version="1.1" id="Capa_1" xmlns="http://www.w3.org/2000/svg" xmlns:xlink="http://www.w3.org/1999/xlink" x="0px" y="0px"
	 viewBox="0 0 380.146 380.146" style="enable-background:new 0 0 380.146 380.146;" xml:space="preserve">
<g>
	<path d="M236.339,144.713c0.53-0.189,0.708-0.645,0.47-0.744c-5.267-2.189-16.415-9.64-27.874-9.64
		c-11.457,0-12.677,2.834-20.314,2.835c-7.636-0.001-6.445-2.835-17.901-2.835c-11.46,0-22.588,7.443-27.874,9.64
		c-0.288,0.12-0.246,0.642,0,0.744c9.632,4.004,18.551,11.016,46.934,11.016C216.048,155.728,227.774,147.758,236.339,144.713z"/>
	<path d="M146.021,302.341c3.24,0,5.689-1.136,7.487-3.474c1.834-2.385,2.765-5.544,2.765-9.388v-9.359
		c0-3.771-0.941-6.892-2.797-9.276c-1.822-2.341-4.272-3.479-7.491-3.479c-3.212,0-5.625,1.128-7.375,3.449
		c-1.792,2.375-2.7,5.505-2.7,9.306v9.359c0,3.846,0.919,7.006,2.733,9.393C140.417,301.207,142.831,302.341,146.021,302.341z"/>
	<path d="M344.381,0H35.765c-11.028,0-20,8.972-20,20v340.146c0,11.028,8.972,20,20,20h308.616c11.028,0,20-8.972,20-20V20
		C364.381,8.972,355.409,0,344.381,0z M109.131,311.56H97.989l-8.793-31.649l-8.793,31.649H69.26l-12.534-53.518h12.193
		l6.808,32.477l8.884-32.477h9.132l8.955,32.497l6.773-32.497h12.157L109.131,311.56z M80.236,137.877
		c-5.986-3.479-1.331-7.287,0.47-7.936c23.912-8.611,45.32-51.111,71.153-51.111c25.826,0,26.964,11.273,37.599,11.273
		c12.534,0,11.772-11.273,37.599-11.273c25.834,0,45.359,39.682,71.988,50.23c1.168,0.463,6.526,3.305,2.099,5.688
		c-32.074,17.26-23.994,70.572-111.742,70.572C104.039,205.32,120.474,161.261,80.236,137.877z M168.604,289.436
		c0,6.561-2.112,12.069-6.279,16.37c-4.175,4.311-9.661,6.497-16.305,6.497c-6.599,0-12.044-2.187-16.184-6.5
		c-4.129-4.301-6.223-9.807-6.223-16.367v-9.271c0-6.535,2.087-12.035,6.204-16.348c4.128-4.326,9.567-6.519,16.167-6.519
		c6.644,0,12.135,2.191,16.322,6.514c4.178,4.313,6.297,9.815,6.297,16.353V289.436z M230.242,311.56H217.91v-16.356l0.738-16.973
		l-12.058,33.329h-8.339l-11.984-33.173l0.735,16.772l0.001,16.4h-12.332v-53.518h15.193l12.524,36.222l12.625-36.222h15.227V311.56
		z M275.179,311.56h-37.277v-53.518h37.207v9.961h-24.875v10.95h21.336v9.961h-21.336v12.684h24.945V311.56z M323.158,311.56
		h-11.867l-19.447-32.908v32.908h-12.332v-53.518h11.902l19.447,32.875v-32.875h12.296V311.56z"/>
</g>
<g>
</g>
<g>
</g>
<g>
</g>
<g>
</g>
<g>
</g>
<g>
</g>
<g>
</g>
<g>
</g>
<g>
</g>
<g>
</g>
<g>
</g>
<g>
</g>
<g>
</g>
<g>
</g>
<g>
</g>
</svg>
