<?xml version="1.0" encoding="iso-8859-1"?>
<!-- Generator: Adobe Illustrator 16.0.0, SVG Export Plug-In . SVG Version: 6.00 Build 0)  -->
<!DOCTYPE svg PUBLIC "-//W3C//DTD SVG 1.1//EN" "http://www.w3.org/Graphics/SVG/1.1/DTD/svg11.dtd">
<svg version="1.1" id="Capa_1" xmlns="http://www.w3.org/2000/svg" xmlns:xlink="http://www.w3.org/1999/xlink" x="0px" y="0px"
	 width="95.44px" height="95.439px" viewBox="0 0 95.44 95.439" style="enable-background:new 0 0 95.44 95.439;"
	 xml:space="preserve">
<g>
	<g>
		<path d="M69.352,0H26.087c-4.212,0-7.635,3.423-7.635,7.636v80.168c0,4.213,3.423,7.636,7.635,7.636h43.265
			c4.214,0,7.636-3.423,7.636-7.636V7.636C76.988,3.423,73.566,0,69.352,0z M40.721,6.975c0-1.044,0.84-1.884,1.885-1.884h10.229
			c1.045,0,1.885,0.84,1.885,1.884v0.05c0,1.044-0.84,1.884-1.885,1.884H42.606c-1.045,0-1.885-0.84-1.885-1.884V6.975z
			 M47.72,92.576c-2.277,0-4.135-1.857-4.135-4.138c0-2.276,1.857-4.135,4.135-4.135s4.136,1.856,4.136,4.135
			C51.856,90.719,49.998,92.576,47.72,92.576z M70.625,80.169c0,0.698-0.571,1.272-1.272,1.272H26.087
			c-0.699,0-1.272-0.574-1.272-1.272V15.271c0-0.7,0.573-1.272,1.272-1.272h43.265c0.701,0,1.272,0.572,1.272,1.272V80.169z"/>
		<path d="M59.61,37.661c-0.59-1.817-1.665-1.857-2.389-0.089l-4.412,10.784L48.9,41.513c-0.649-1.135-1.657-1.107-2.242,0.062
			l-5.301,10.6l-3.319-4.745c-0.624-0.889-1.587-0.853-2.139,0.084L29.768,57.89c-0.626,1.056-0.131,1.92,1.094,1.92h34.195
			c0.963,0,1.507-0.75,1.209-1.665L59.61,37.661z"/>
	</g>
</g>
<g>
</g>
<g>
</g>
<g>
</g>
<g>
</g>
<g>
</g>
<g>
</g>
<g>
</g>
<g>
</g>
<g>
</g>
<g>
</g>
<g>
</g>
<g>
</g>
<g>
</g>
<g>
</g>
<g>
</g>
</svg>
