<?xml version="1.0" encoding="iso-8859-1"?>
<!-- Generator: Adobe Illustrator 16.0.0, SVG Export Plug-In . SVG Version: 6.00 Build 0)  -->
<!DOCTYPE svg PUBLIC "-//W3C//DTD SVG 1.1//EN" "http://www.w3.org/Graphics/SVG/1.1/DTD/svg11.dtd">
<svg version="1.1" id="Capa_1" xmlns="http://www.w3.org/2000/svg" xmlns:xlink="http://www.w3.org/1999/xlink" x="0px" y="0px"
	 width="203.576px" height="203.576px" viewBox="0 0 203.576 203.576" style="enable-background:new 0 0 203.576 203.576;"
	 xml:space="preserve">
<g>
	<g id="Layer_22_36_">
		<g>
			<path d="M33.934,0v203.576h135.704L169.643,0H33.934z M104.645,193.359c-3.613,0-6.541-2.936-6.541-6.551
				c0-3.61,2.928-6.535,6.541-6.535c3.616,0,6.543,2.93,6.543,6.535C111.188,190.419,108.265,193.359,104.645,193.359z
				 M150.017,169.817H53.553V19.621h96.474L150.017,169.817z"/>
			<path d="M60.037,69.559h85.389V37.496H60.037V69.559z M62.637,40.096h80.189v26.862H62.637V40.096z"/>
			<path d="M85.704,75.327H59.885v28.924h25.819V75.327z M83.104,101.651H62.485V77.927h20.619V101.651z"/>
			<path d="M114.755,74.677H88.946v28.924h25.809V74.677z M112.155,101.001H91.546V77.277h20.609V101.001z"/>
			<path d="M143.974,75.327h-25.816v28.924h25.816V75.327z M141.374,101.651h-20.617V77.927h20.617V101.651z"/>
			<rect x="59.885" y="110.832" width="23.27" height="2.519"/>
			<rect x="59.885" y="115.463" width="25.819" height="2.519"/>
			<rect x="88.946" y="110.182" width="23.27" height="2.519"/>
			<rect x="88.946" y="114.813" width="25.809" height="2.519"/>
			<rect x="118.416" y="110.629" width="23.268" height="2.519"/>
			<rect x="118.416" y="115.26" width="25.816" height="2.519"/>
			<rect x="59.651" y="120.155" width="23.27" height="2.519"/>
			<rect x="59.651" y="124.786" width="25.816" height="2.519"/>
			<rect x="88.712" y="119.505" width="23.27" height="2.52"/>
			<rect x="88.712" y="124.137" width="25.809" height="2.519"/>
			<rect x="118.178" y="119.952" width="23.272" height="2.519"/>
			<rect x="118.178" y="124.583" width="25.821" height="2.519"/>
			<rect x="59.771" y="129.25" width="23.27" height="2.514"/>
			<rect x="59.771" y="133.881" width="25.816" height="2.519"/>
			<rect x="88.837" y="128.6" width="23.268" height="2.514"/>
			<rect x="88.837" y="133.231" width="25.807" height="2.519"/>
			<rect x="118.3" y="129.047" width="23.267" height="2.514"/>
			<rect x="118.3" y="133.678" width="25.816" height="2.519"/>
			<rect x="59.834" y="142.554" width="83.946" height="2.52"/>
			<rect x="60.207" y="147.013" width="75.637" height="2.514"/>
			<rect x="60.207" y="151.644" width="83.929" height="2.519"/>
			<rect x="59.448" y="156.336" width="75.639" height="2.514"/>
			<rect x="59.448" y="160.967" width="83.932" height="2.519"/>
			<path d="M120.025,26.984h-60.13v7.31h60.125v-7.31H120.025z M117.426,31.699H62.495V29.59h54.926v2.109H117.426z"/>
		</g>
	</g>
</g>
<g>
</g>
<g>
</g>
<g>
</g>
<g>
</g>
<g>
</g>
<g>
</g>
<g>
</g>
<g>
</g>
<g>
</g>
<g>
</g>
<g>
</g>
<g>
</g>
<g>
</g>
<g>
</g>
<g>
</g>
</svg>
