<?xml version="1.0" encoding="utf-8"?>
<!-- Generator: Adobe Illustrator 16.0.0, SVG Export Plug-In . SVG Version: 6.00 Build 0)  -->
<!DOCTYPE svg PUBLIC "-//W3C//DTD SVG 1.1//EN" "http://www.w3.org/Graphics/SVG/1.1/DTD/svg11.dtd">
<svg version="1.1" id="Layer_1" xmlns="http://www.w3.org/2000/svg" xmlns:xlink="http://www.w3.org/1999/xlink" x="0px" y="0px"
	 width="512px" height="512px" viewBox="0 0 512 512" enable-background="new 0 0 512 512" xml:space="preserve">
<g>
	<polygon points="121,391 121,81 81,81 81,431 431,431 431,391 	"/>
	<path d="M165.26,336.771c13.785,0,25-11.215,25-25c0-0.864-0.045-1.725-0.134-2.579l44.485-48.789
		c3.766,0.201,7.541-0.47,10.983-1.914l53.967,30.172c2.973,10.528,12.579,18.109,24.032,18.109c13.785,0,25-11.215,25-25
		c0-0.909-0.05-1.815-0.15-2.716l54.221-69.989c13.135-0.73,23.596-11.647,23.596-24.961c0-13.785-11.215-25-25-25s-25,11.215-25,25
		c0,1.092,0.071,2.178,0.213,3.252l-53.787,69.43c-2.668,0.096-5.27,0.612-7.735,1.526l-55.349-30.944
		c-3.358-9.957-12.721-16.93-23.675-16.93c-13.785,0-25,11.215-25,25c0,0.157,0.002,0.314,0.005,0.472L164.55,286.78
		c-13.459,0.377-24.29,11.443-24.29,24.991C140.26,325.556,151.475,336.771,165.26,336.771z"/>
</g>
</svg>
