<?xml version="1.0" encoding="utf-8"?>
<!-- Generator: Adobe Illustrator 21.1.0, SVG Export Plug-In . SVG Version: 6.00 Build 0)  -->
<svg version="1.1" id="SVG" xmlns="http://www.w3.org/2000/svg" xmlns:xlink="http://www.w3.org/1999/xlink" x="0px" y="0px"
	 viewBox="0 0 219 160" style="enable-background:new 0 0 219 160;" xml:space="preserve">
<style type="text/css">
	.st0{fill:#1A2930;}
	.st1{fill:#B70021;}
	.st2{font-family:'Verdana-Bold';}
	.st3{font-size:14px;}
	.st4{font-size:14px;}
	.st5{font-size:14px;}
	.st6{font-size:14px;}
</style>
<polygon class="st0" points="113.25,23.89 6.75,143.39 26.75,143.39 113.25,46.89 186.39,128.49 145.75,128.39 145.75,85.39
	113.25,120.39 80.75,85.39 80.75,128.39 40.11,128.49 26.75,143.39 113.25,143.39 199.75,143.39 219.75,143.39 "/>
<polygon class="st0" points="97.75,65.39 128.75,65.39 130.75,67.39 130.75,98.39 113.25,80.39 113.25,100.39 97.75,100.39
	95.75,98.39 95.75,67.39 "/>
<text transform="matrix(1 0 0 1 90 16)" class="st1 st2 st3">Клиент</text>
<text transform="matrix(0.6629 -0.7487 0.7487 0.6629 23 120)" class="st1 st2 st4">Ответственность</text>
<text transform="matrix(0.6695 0.7428 -0.7428 0.6695 145 52)" class="st1 st2 st5">Прозрачность</text>
<text transform="matrix(1 0 0 1 81 156.4434)" class="st1 st2 st6">Сотрудник</text>
</svg>
