<svg xmlns="http://www.w3.org/2000/svg" xmlns:xlink="http://www.w3.org/1999/xlink" version="1.1" x="0px" y="0px" viewBox="0 0 300 300" style="enable-background:new 0 0 300 300;" xml:space="preserve">
<style type="text/css">
	.st4{fill:#1A2930;}
	.st9{fill:#b70021;}
</style>
	<g id="ftom">
		<g id="lines_3_">
			<g>
				<path class="st4" d="M149,279.6c-0.1,0-0.1,0-0.2,0c-21.5-0.2-39-41.3-42.5-100c-0.5-7.7-0.7-15.8-0.6-24      c0.2-22.2,2.5-44,6.7-63c8.3-37.7,22.7-60.2,38.6-60.2c0.1,0,0.1,0,0.2,0c10.8,0.1,20.6,10.3,28.4,29.4      c7.4,18.1,12.4,43.2,14,70.7c0.5,7.7,0.7,15.8,0.6,24c-0.2,22.3-2.5,44-6.7,63c-1.9,8.7-4.2,16.8-6.9,24.1l-3.1-1.1      c2.6-7.2,4.9-15.2,6.7-23.7c4.1-18.7,6.4-40.3,6.6-62.3c0.1-8.1-0.1-16.1-0.6-23.8c-1.6-27.1-6.5-51.8-13.8-69.6      c-7.2-17.5-16.2-27.2-25.4-27.3c0,0-0.1,0-0.1,0c-14,0-27.5,22.1-35.4,57.6c-4.1,18.7-6.4,40.3-6.6,62.3      c-0.1,8.1,0.1,16.1,0.6,23.8c1.6,27.1,6.5,51.8,13.8,69.6c7.2,17.5,16.2,27.2,25.4,27.3c0,0,0.1,0,0.1,0      c7.6,0,15.1-6.4,21.7-18.5l2.9,1.6C166.3,272.6,157.8,279.6,149,279.6z"/>
			</g>
			<g>
				<path class="st4" d="M149,279.6c-0.1,0-0.1,0-0.2,0c-21.5-0.2-39-41.3-42.5-100c-0.5-7.7-0.7-15.8-0.6-24      c0.2-22.2,2.5-44,6.7-63c8.3-37.7,22.7-60.2,38.6-60.2c0.1,0,0.1,0,0.2,0c10.8,0.1,20.6,10.3,28.4,29.4      c7.4,18.1,12.4,43.2,14,70.7c0.5,7.7,0.7,15.8,0.6,24c-0.2,22.3-2.5,44-6.7,63c-1.9,8.7-4.2,16.8-6.9,24.1l-3.1-1.1      c2.6-7.2,4.9-15.2,6.7-23.7c4.1-18.7,6.4-40.3,6.6-62.3c0.1-8.1-0.1-16.1-0.6-23.8c-1.6-27.1-6.5-51.8-13.8-69.6      c-7.2-17.5-16.2-27.2-25.4-27.3c0,0-0.1,0-0.1,0c-14,0-27.5,22.1-35.4,57.6c-4.1,18.7-6.4,40.3-6.6,62.3      c-0.1,8.1,0.1,16.1,0.6,23.8c1.6,27.1,6.5,51.8,13.8,69.6c7.2,17.5,16.2,27.2,25.4,27.3c0,0,0.1,0,0.1,0      c7.6,0,15.1-6.4,21.7-18.5l2.9,1.6C166.3,272.6,157.8,279.6,149,279.6z"/>
			</g>
			<g>
				<path class="st4" d="M149,279.6c-0.1,0-0.1,0-0.2,0c-21.5-0.2-39-41.3-42.5-100c-0.5-7.7-0.7-15.8-0.6-24      c0.2-22.2,2.5-44,6.7-63c8.3-37.7,22.7-60.2,38.6-60.2c0.1,0,0.1,0,0.2,0c10.8,0.1,20.6,10.3,28.4,29.4      c7.4,18.1,12.4,43.2,14,70.7c0.5,7.7,0.7,15.8,0.6,24c-0.2,22.3-2.5,44-6.7,63c-1.9,8.7-4.2,16.8-6.9,24.1l-3.1-1.1      c2.6-7.2,4.9-15.2,6.7-23.7c4.1-18.7,6.4-40.3,6.6-62.3c0.1-8.1-0.1-16.1-0.6-23.8c-1.6-27.1-6.5-51.8-13.8-69.6      c-7.2-17.5-16.2-27.2-25.4-27.3c0,0-0.1,0-0.1,0c-14,0-27.5,22.1-35.4,57.6c-4.1,18.7-6.4,40.3-6.6,62.3      c-0.1,8.1,0.1,16.1,0.6,23.8c1.6,27.1,6.5,51.8,13.8,69.6c7.2,17.5,16.2,27.2,25.4,27.3c0,0,0.1,0,0.1,0      c7.6,0,15.1-6.4,21.7-18.5l2.9,1.6C166.3,272.6,157.8,279.6,149,279.6z"/>
			</g>
			<g>
				<path class="st4" d="M70.7,228.1c-14.1,0-24.1-3.8-28.3-11.4c-5.3-9.4-1.4-23,11.2-39.3c12-15.5,31.2-32.3,54.2-47.5      c6.5-4.3,13.4-8.5,20.5-12.5c19.4-10.9,39.4-19.8,57.9-25.7c8.5-2.7,16.7-4.8,24.3-6.1l0.6,3.2c-7.5,1.3-15.6,3.4-23.9,6      c-18.3,5.8-38.1,14.6-57.3,25.4c-7.1,4-13.9,8.2-20.3,12.4c-22.7,15-41.6,31.6-53.4,46.8c-11.6,15-15.5,27.6-10.9,35.7      c6.9,12.2,32.8,13,67.7,1.9c18.3-5.8,38.1-14.6,57.2-25.4c7.1-4,13.9-8.2,20.3-12.4c22.7-15,41.6-31.6,53.4-46.8      c11.6-15,15.5-27.6,10.9-35.7c-3.7-6.6-13-10-26.9-9.7l-0.1-3.3c15.2-0.3,25.5,3.6,29.9,11.4c10.6,18.7-16.3,54.4-65.4,86.8      c-6.5,4.3-13.4,8.5-20.5,12.5c-19.4,10.9-39.4,19.8-57.9,25.7C97.1,225.5,82.5,228.1,70.7,228.1z"/>
			</g>
			<g>
				<path class="st4" d="M70.7,228.1c-14.1,0-24.1-3.8-28.3-11.4c-5.3-9.4-1.4-23,11.2-39.3c12-15.5,31.2-32.3,54.2-47.5      c6.5-4.3,13.4-8.5,20.5-12.5c19.4-10.9,39.4-19.8,57.9-25.7c8.5-2.7,16.7-4.8,24.3-6.1l0.6,3.2c-7.5,1.3-15.6,3.4-23.9,6      c-18.3,5.8-38.1,14.6-57.3,25.4c-7.1,4-13.9,8.2-20.3,12.4c-22.7,15-41.6,31.6-53.4,46.8c-11.6,15-15.5,27.6-10.9,35.7      c6.9,12.2,32.8,13,67.7,1.9c18.3-5.8,38.1-14.6,57.2-25.4c7.1-4,13.9-8.2,20.3-12.4c22.7-15,41.6-31.6,53.4-46.8      c11.6-15,15.5-27.6,10.9-35.7c-3.7-6.6-13-10-26.9-9.7l-0.1-3.3c15.2-0.3,25.5,3.6,29.9,11.4c10.6,18.7-16.3,54.4-65.4,86.8      c-6.5,4.3-13.4,8.5-20.5,12.5c-19.4,10.9-39.4,19.8-57.9,25.7C97.1,225.5,82.5,228.1,70.7,228.1z"/>
			</g>
			<g>
				<path class="st4" d="M70.7,228.1c-14.1,0-24.1-3.8-28.3-11.4c-5.3-9.4-1.4-23,11.2-39.3c12-15.5,31.2-32.3,54.2-47.5      c6.5-4.3,13.4-8.5,20.5-12.5c19.4-10.9,39.4-19.8,57.9-25.7c8.5-2.7,16.7-4.8,24.3-6.1l0.6,3.2c-7.5,1.3-15.6,3.4-23.9,6      c-18.3,5.8-38.1,14.6-57.3,25.4c-7.1,4-13.9,8.2-20.3,12.4c-22.7,15-41.6,31.6-53.4,46.8c-11.6,15-15.5,27.6-10.9,35.7      c6.9,12.2,32.8,13,67.7,1.9c18.3-5.8,38.1-14.6,57.2-25.4c7.1-4,13.9-8.2,20.3-12.4c22.7-15,41.6-31.6,53.4-46.8      c11.6-15,15.5-27.6,10.9-35.7c-3.7-6.6-13-10-26.9-9.7l-0.1-3.3c15.2-0.3,25.5,3.6,29.9,11.4c10.6,18.7-16.3,54.4-65.4,86.8      c-6.5,4.3-13.4,8.5-20.5,12.5c-19.4,10.9-39.4,19.8-57.9,25.7C97.1,225.5,82.5,228.1,70.7,228.1z"/>
			</g>
			<g>
				<path class="st4" d="M229.6,229.7c-3.9,0-8.2-0.3-12.7-0.9c-19.4-2.6-43.6-10.9-68.2-23.2c-6.9-3.5-14-7.3-21.1-11.5      c-19.2-11.3-36.9-24.2-51.2-37.3c-6.6-6-12.5-12.1-17.5-18l2.5-2.1c4.9,5.8,10.7,11.8,17.2,17.7c14.2,12.9,31.7,25.7,50.6,36.9      c7,4.1,14,8,20.9,11.4c24.3,12.2,48.2,20.3,67.2,22.9c18.8,2.5,31.7-0.4,36.4-8.4c7.1-12.1-5.2-34.9-32.2-59.6      c-14.2-12.9-31.7-25.7-50.6-36.9c-7-4.1-14-8-20.9-11.4C125.6,97.1,101.8,89,82.7,86.4c-18.8-2.5-31.7,0.4-36.4,8.4      c-3.9,6.5-2.1,16.3,5.1,28.2l-2.8,1.7c-7.8-13-9.6-23.9-5.1-31.6C54.5,74.6,98.8,80,151.4,106.4c6.9,3.5,14,7.3,21.1,11.5      c19.2,11.3,36.9,24.2,51.2,37.3c28.6,26.1,40.9,50,32.8,63.7C252.2,226,243,229.7,229.6,229.7z"/>
			</g>
			<g>
				<path class="st4" d="M229.6,229.7c-3.9,0-8.2-0.3-12.7-0.9c-19.4-2.6-43.6-10.9-68.2-23.2c-6.9-3.5-14-7.3-21.1-11.5      c-19.2-11.3-36.9-24.2-51.2-37.3c-6.6-6-12.5-12.1-17.5-18l2.5-2.1c4.9,5.8,10.7,11.8,17.2,17.7c14.2,12.9,31.7,25.7,50.6,36.9      c7,4.1,14,8,20.9,11.4c24.3,12.2,48.2,20.3,67.2,22.9c18.8,2.5,31.7-0.4,36.4-8.4c7.1-12.1-5.2-34.9-32.2-59.6      c-14.2-12.9-31.7-25.7-50.6-36.9c-7-4.1-14-8-20.9-11.4C125.6,97.1,101.8,89,82.7,86.4c-18.8-2.5-31.7,0.4-36.4,8.4      c-3.9,6.5-2.1,16.3,5.1,28.2l-2.8,1.7c-7.8-13-9.6-23.9-5.1-31.6C54.5,74.6,98.8,80,151.4,106.4c6.9,3.5,14,7.3,21.1,11.5      c19.2,11.3,36.9,24.2,51.2,37.3c28.6,26.1,40.9,50,32.8,63.7C252.2,226,243,229.7,229.6,229.7z"/>
			</g>
			<g>
				<path class="st4" d="M229.6,229.7c-3.9,0-8.2-0.3-12.7-0.9c-19.4-2.6-43.6-10.9-68.2-23.2c-6.9-3.5-14-7.3-21.1-11.5      c-19.2-11.3-36.9-24.2-51.2-37.3c-6.6-6-12.5-12.1-17.5-18l2.5-2.1c4.9,5.8,10.7,11.8,17.2,17.7c14.2,12.9,31.7,25.7,50.6,36.9      c7,4.1,14,8,20.9,11.4c24.3,12.2,48.2,20.3,67.2,22.9c18.8,2.5,31.7-0.4,36.4-8.4c7.1-12.1-5.2-34.9-32.2-59.6      c-14.2-12.9-31.7-25.7-50.6-36.9c-7-4.1-14-8-20.9-11.4C125.6,97.1,101.8,89,82.7,86.4c-18.8-2.5-31.7,0.4-36.4,8.4      c-3.9,6.5-2.1,16.3,5.1,28.2l-2.8,1.7c-7.8-13-9.6-23.9-5.1-31.6C54.5,74.6,98.8,80,151.4,106.4c6.9,3.5,14,7.3,21.1,11.5      c19.2,11.3,36.9,24.2,51.2,37.3c28.6,26.1,40.9,50,32.8,63.7C252.2,226,243,229.7,229.6,229.7z"/>
			</g>
		</g>
		<g id="deco_23_">
				<g id="deco_26_">
					<path class="st9" d="M219.3,96.3c-3.6,0-7-1.9-8.9-5.2c-1.4-2.4-1.7-5.1-1.1-7.8c0.7-2.7,2.4-4.9,4.7-6.2       c2.4-1.4,5.1-1.7,7.8-1c2.6,0.7,4.8,2.4,6.2,4.8l0,0c1.4,2.4,1.7,5.1,1.1,7.8c-0.7,2.7-2.4,4.9-4.7,6.2       C222.8,95.8,221.1,96.3,219.3,96.3z M219.2,79c-1.2,0-2.4,0.3-3.4,0.9c-1.6,0.9-2.7,2.4-3.2,4.2c-0.5,1.8-0.2,3.7,0.7,5.3       c1.9,3.3,6.2,4.5,9.5,2.6c1.6-0.9,2.7-2.4,3.2-4.2c0.5-1.8,0.2-3.7-0.7-5.3l0,0c-0.9-1.6-2.4-2.8-4.2-3.3       C220.4,79.1,219.8,79,219.2,79z"/>
				</g>
				<g id="deco_25_">
					<path class="st9" d="M176,261.1c-5.7,0-10.3-4.6-10.3-10.2s4.6-10.2,10.3-10.2s10.3,4.6,10.3,10.2S181.7,261.1,176,261.1z        M176,244c-3.9,0-7,3.1-7,6.9s3.1,6.9,7,6.9c3.9,0,7-3.1,7-6.9S179.8,244,176,244z"/>
				</g>
				<g id="deco_24_">
					<path class="st9" d="M54.7,141.3c-1.7,0-3.5-0.4-5.1-1.4c-4.9-2.8-6.5-9.1-3.7-14c1.4-2.4,3.6-4.1,6.2-4.8       c2.6-0.7,5.4-0.4,7.8,1c2.4,1.4,4.1,3.6,4.7,6.2c0.7,2.6,0.3,5.4-1.1,7.8C61.7,139.4,58.3,141.3,54.7,141.3z M54.9,124       c-0.6,0-1.2,0.1-1.8,0.2c-1.8,0.5-3.3,1.7-4.2,3.3c-1.9,3.3-0.8,7.6,2.5,9.5c3.3,1.9,7.6,0.7,9.5-2.6c0.9-1.6,1.2-3.5,0.7-5.3       c-0.5-1.8-1.6-3.3-3.2-4.2C57.3,124.3,56.1,124,54.9,124z"/>
				</g>
			</g>
			<g id="_x32_">
				<path class="st9" d="M150,170.8c-8.2,0-14.8-6.7-14.8-14.8c0-8.2,6.7-14.8,14.8-14.8c8.2,0,14.8,6.7,14.8,14.8      C164.8,164.1,158.2,170.8,150,170.8z M150,144.4c-6.4,0-11.5,5.2-11.5,11.5c0,6.4,5.2,11.5,11.5,11.5c6.4,0,11.5-5.2,11.5-11.5      C161.5,149.6,156.4,144.4,150,144.4z"/>
			</g>
	</g>
</svg>