<svg xmlns="http://www.w3.org/2000/svg" xmlns:xlink="http://www.w3.org/1999/xlink" version="1.1" x="0px" y="0px" viewBox="0 0 300 300" style="enable-background:new 0 0 300 300;" xml:space="preserve">
<style type="text/css">
	.st4{fill:#1A2930;}
	.st9{fill:#b70021;}
</style>
	<g id="specialist">
		<g id="man">
			<g>
				<path class="st4" d="M146.4,160.5c-31.8,0-57.6-31.5-57.6-70.3s25.8-70.3,57.6-70.3S204,51.5,204,90.2S178.1,160.5,146.4,160.5z       M146.4,23.5c-29.8,0-54,29.9-54,66.7s24.2,66.7,54,66.7s54-29.9,54-66.7S176.1,23.5,146.4,23.5z"/>
			</g>
			<g>
				<path class="st9" d="M146.4,189.2l-11.9-11.4l11.9-9.6l11.9,9.6L146.4,189.2z M139.8,178l6.5,6.2l6.5-6.2l-6.5-5.2L139.8,178z"/>
			</g>
			<g>
				<path class="st4" d="M146.4,288.7c-32.6,0-63-1.1-85.7-3.2c-35.7-3.3-40.5-7.6-40.5-11.4c0-51,38.6-95.7,93.8-108.8l1.5-0.4      l30.8,78.9l30.8-78.9l1.5,0.4c55.3,13,93.8,57.7,93.8,108.8c0,3.8-4.8,8.1-40.5,11.4C209.4,287.5,179,288.7,146.4,288.7z       M113.4,169.1c-52.8,13.1-89.6,56-89.6,104.9c0,0.2,1.1,4.6,37.9,7.9c22.4,2,52.5,3.1,84.6,3.1s62.2-1.1,84.6-3.1      c36.8-3.3,37.9-7.7,37.9-7.9c0-48.9-36.8-91.8-89.6-104.9l-33,84.6L113.4,169.1z"/>
			</g>
			<g>
				<polygon class="st9" points="157.8,216.6 146.4,198 135,216.6 131.9,214.7 146.4,191.1 160.8,214.7     "/>
			</g>
		</g>
		<g id="glasses">
			<g>
				<path class="st9" d="M135,102.6h-27.5L102,82.3h46.8v3.6h-3.9L135,102.6z M110.2,99h22.8l7.8-13.1h-34.1L110.2,99z"/>
			</g>
			<g>
				<path class="st9" d="M185.3,102.6h-27.5l-9.9-16.7h-3.9v-3.6h46.8L185.3,102.6z M159.8,99h22.8l3.5-13.1H152L159.8,99z"/>
			</g>
		</g>
		<g id="deco_20_">
			<rect x="192.3" y="220.7" class="st9" width="27.6" height="3.6"/>
		</g>
	</g>
</svg>