<svg xmlns="http://www.w3.org/2000/svg" xmlns:xlink="http://www.w3.org/1999/xlink" version="1.1" x="0px" y="0px" viewBox="0 0 300 300" style="enable-background:new 0 0 300 300;" xml:space="preserve">
<style type="text/css">
	.st4{fill:#1A2930;}
	.st9{fill:#b70021;}
</style>
	<g id="crown">
			<g>
				<path class="st4" d="M231,229.7H61L38.3,115.9l70,70.7l37.7-84.3l37.7,84.3l70-70.7L231,229.7z M63.7,226.4h164.6l20-100.5      l-65.6,66.4l-36.7-82l-36.7,82l-65.6-66.4L63.7,226.4z"/>
			</g>
		<g id="deco_60_">
			<g>
				<rect x="62.3" y="240.8" class="st9" width="167.3" height="3.3"/>
			</g>
			<g>
				<g>
					<path class="st9" d="M32.2,111.7c-3.2,0-6.4-1.8-8-4.8c-1.1-2.1-1.4-4.6-0.7-6.9c0.7-2.3,2.3-4.2,4.4-5.3       c4.4-2.3,9.9-0.6,12.2,3.8c1.1,2.1,1.4,4.6,0.7,6.9c-0.7,2.3-2.3,4.2-4.4,5.3v0C35.1,111.3,33.6,111.7,32.2,111.7z M32.1,96.8       c-0.9,0-1.8,0.2-2.7,0.7c-1.4,0.7-2.3,1.9-2.8,3.4c-0.5,1.5-0.3,3,0.4,4.4c1.5,2.8,5,3.9,7.8,2.4c1.4-0.7,2.3-1.9,2.8-3.4       c0.5-1.5,0.3-3-0.4-4.4C36.2,97.9,34.2,96.8,32.1,96.8z"/>
				</g>
				<g>
					<path class="st9" d="M259.8,111.7c-1.4,0-2.9-0.3-4.2-1v0c-2.1-1.1-3.7-3-4.4-5.3c-0.7-2.3-0.5-4.8,0.7-6.9       c2.3-4.4,7.8-6.1,12.2-3.8c2.1,1.1,3.7,3,4.4,5.3c0.7,2.3,0.5,4.8-0.7,6.9C266.2,109.9,263,111.7,259.8,111.7z M257.1,107.7       c2.8,1.5,6.3,0.4,7.8-2.4c0.7-1.4,0.9-2.9,0.4-4.4c-0.4-1.5-1.4-2.7-2.8-3.4c-2.8-1.5-6.3-0.4-7.8,2.4       c-0.7,1.4-0.9,2.9-0.4,4.4C254.8,105.8,255.7,107,257.1,107.7L257.1,107.7z"/>
				</g>
				<g>
					<path class="st9" d="M146,95c-5,0-9.1-4-9.1-9c0-5,4.1-9,9.1-9s9.1,4,9.1,9C155,91,151,95,146,95z M146,80.3       c-3.2,0-5.8,2.6-5.8,5.7c0,3.2,2.6,5.7,5.8,5.7c3.2,0,5.8-2.6,5.8-5.7C151.8,82.8,149.2,80.3,146,80.3z"/>
				</g>
			</g>
			<g>
						<path class="st9" d="M146,210.8L131.7,184l14.3-26.8l14.3,26.8L146,210.8z M135.4,184l10.6,19.8l10.6-19.8L146,164.2        L135.4,184z"/>
			</g>
		</g>
	</g>
</svg>