<svg xmlns="http://www.w3.org/2000/svg" xmlns:xlink="http://www.w3.org/1999/xlink" version="1.1" x="0px" y="0px" viewBox="0 0 300 300" style="enable-background:new 0 0 300 300;" xml:space="preserve">
<style type="text/css">
	.st4{fill:#1A2930;}
	.st9{fill:#b70021;}
</style>
	<g id="beige">
		<g id="lines">
			<g>
				<rect x="97.9" y="207.8" class="st9" width="104.3" height="3.5"/>
			</g>
			<g>
				<rect x="97.9" y="224" class="st9" width="104.3" height="3.5"/>
			</g>
			<g>
				<rect x="97.9" y="240.2" class="st9" width="104.3" height="3.5"/>
			</g>
		</g>
		<g id="man1_1_">
			<g>
				<path class="st9" d="M150,155c-9.5,0-17.2-9.3-17.2-20.7s7.7-20.7,17.2-20.7s17.2,9.3,17.2,20.7S159.5,155,150,155z M150,117      c-7.5,0-13.7,7.7-13.7,17.2s6.1,17.2,13.7,17.2s13.7-7.7,13.7-17.2S157.5,117,150,117z"/>
			</g>
			<g>
				<path class="st9" d="M150,191.8c-8.8,0-17.1-0.3-23.2-0.9c-10.2-0.9-12.1-2.3-12.1-4.4c0-14.4,10.8-27,26.3-30.6l0.8,3.5      c-13.7,3.2-23.3,14.1-23.6,26.5c2.3,1,13.1,2.3,31.8,2.3s29.4-1.3,31.8-2.3c-0.3-12.4-9.9-23.3-23.6-26.5l0.8-3.5      c15.5,3.7,26.3,16.2,26.3,30.6c0,2.1-1.9,3.4-12.1,4.4C167.1,191.5,158.8,191.8,150,191.8z"/>
			</g>
		</g>
		<g id="base_5_">
			<g>
				<path class="st4" d="M213.6,285.1H86.4c-8.3,0-15-6.7-15-15v-190c0-8.3,6.7-15,15-15h46.7v3.5H86.4c-6.3,0-11.4,5.1-11.4,11.4      v190c0,6.3,5.1,11.4,11.4,11.4h127.3c6.3,0,11.4-5.1,11.4-11.4v-190c0-6.3-5.1-11.4-11.4-11.4h-46.8v-3.5h46.8      c8.3,0,15,6.7,15,15v190C228.6,278.4,221.9,285.1,213.6,285.1z"/>
			</g>
			<g>
				<path class="st4" d="M158.1,88.7h-16.2c-2.6,0-4.7-2.1-4.7-4.7V23.8c0-2.6,2.1-4.7,4.7-4.7h16.2c2.6,0,4.7,2.1,4.7,4.7V84      C162.8,86.6,160.7,88.7,158.1,88.7z M141.9,22.6c-0.6,0-1.2,0.5-1.2,1.2V84c0,0.6,0.5,1.2,1.2,1.2h16.2c0.6,0,1.2-0.5,1.2-1.2      V23.8c0-0.6-0.5-1.2-1.2-1.2H141.9z"/>
			</g>
			<g>
				<path class="st4" d="M168.6,96.7h-37.1c-2.1,0-3.8-1.7-3.8-3.8V80.8c0-2.1,1.7-3.8,3.8-3.8h1.7v3.5h-1.7c-0.1,0-0.2,0.1-0.2,0.2      V93c0,0.1,0.1,0.2,0.2,0.2h37.1c0.1,0,0.2-0.1,0.2-0.2V80.8c0-0.1-0.1-0.2-0.2-0.2h-1.7V77h1.7c2.1,0,3.8,1.7,3.8,3.8V93      C172.3,95,170.6,96.7,168.6,96.7z"/>
			</g>
		</g>
	</g>
</svg>