<svg xmlns="http://www.w3.org/2000/svg" xmlns:xlink="http://www.w3.org/1999/xlink" version="1.1" x="0px" y="0px" viewBox="0 0 380 369.5" style="enable-background:new 0 0 380 369.5;" xml:space="preserve">
<style type="text/css">
	.st1{fill:none;stroke:#1A2930;stroke-width:4;stroke-miterlimit:10;}
	.st2{fill:none;stroke:#b70021;stroke-width:4;stroke-miterlimit:10;}
</style>
	<g id="tie__x2B__bag_2_1_">
		<g id="base_25_">
			<g>
				<ellipse class="st1" cx="157.5" cy="125" rx="58.8" ry="72.6"/>
				<g>
					<path class="st1" d="M225.7,219.6c-10.6-5.8-22.3-10.3-34.6-13.2"/>
					<path class="st1" d="M123.9,206.3c-56.1,13.3-97.5,59-97.5,113.4c0,9.1,65.5,13.6,131.1,13.6c18.8,0,37.6-0.4,54.8-1.1"/>
				</g>
			</g>
			<g>
				<g>
					<path class="st1" d="M212.3,275.8c19.3,6.2,41.6,9.7,61.9,10.6"/>
					<path class="st1" d="M296.7,286.4c21.6-0.9,42.8-4.4,61.9-10.6"/>
					<line class="st1" x1="212.3" y1="275.8" x2="212.3" y2="275.8"/>
					<line class="st1" x1="358.6" y1="275.9" x2="358.6" y2="275.8"/>
				</g>
				<path class="st1" d="M365.5,225.2v44.2c0,2.4-1.5,4.6-3.8,5.4c-1,0.3-2.1,0.7-3.1,1v64.3c0,3.1-2.5,5.7-5.7,5.7H218      c-3.1,0-5.7-2.6-5.7-5.7v-64.3c-1-0.3-2-0.7-3.1-1c-2.3-0.8-3.9-2.9-3.9-5.4v-44.2c0-3.1,2.5-5.7,5.7-5.7h148.7      C363,219.6,365.5,222.1,365.5,225.2z"/>
				<path class="st1" d="M310.8,214.4v-13.9c0-3.4-2.5-6.1-5.7-6.1h-39.3c-3.1,0-5.7,2.7-5.7,6.1v13.9"/>
			</g>
		</g>
		<g id="deco_23_">
			<path class="st2" d="M274.2,280v13.3c0,1,0.8,1.9,1.9,1.9h18.7c1,0,1.9-0.8,1.9-1.9V280c0-1-0.8-1.9-1.9-1.9h-18.7     C275.1,278.2,274.2,279,274.2,280z"/>
			<g>
				<g id="deco_24_">
					<polyline class="st2" points="175.7,229.8 157.8,245.5 140,229.8      "/>
					<polyline class="st2" points="163.1,240.9 175.7,297.1 157.8,313.6 140,297.1 152.6,240.9      "/>
				</g>
			</g>
		</g>
	</g>
</svg>