<svg xmlns="http://www.w3.org/2000/svg" xmlns:xlink="http://www.w3.org/1999/xlink" version="1.1" x="0px" y="0px" viewBox="0 0 380 369.5" style="enable-background:new 0 0 380 369.5;" xml:space="preserve">
<style type="text/css">
	.st1{fill:none;stroke:#1A2930;stroke-width:4;stroke-miterlimit:10;}
	.st3{fill:none;stroke:#b70021;stroke-width:4;stroke-miterlimit:10;}
</style>
	<g id="hat_2_2_">
		<g id="base_23_">
			<g>
				<g>
					<g id="man__x2B__arrows_2_2_">
						<g id="base_24_">
							<g>
								<path class="st1" d="M129.4,122.4c2.4,36.9,27.4,65.8,58,65.8s55.6-29,58-65.8"/>
								<path class="st1" d="M246.2,205.7c-8.1-3.7-16.7-6.7-25.6-8.8"/>
								<path class="st1" d="M277.8,226c7.9,6.9,14.9,14.7,20.6,23.3"/>
								<path class="st1" d="M154.1,196.9c-55.5,13.1-96.4,58.3-96.4,112c0,9,64.8,13.4,129.6,13.4c17.1,0,34.1-0.3,50-0.9"/>
								<path class="st1" d="M299,316.1c-3.3,0.6-7.1,1.1-11.2,1.6"/>
								<path class="st1" d="M247.2,321c11.3-0.6,21.8-1.3,31.1-2.2"/>
							</g>
						</g>
					</g>
					<g>
						<g>
							<path class="st3" d="M246,111.4V97.6c0-14-4.9-27.6-14.1-38.2c-23.2-26.5-65.8-26.5-89,0c-9.2,10.5-14.1,24.2-14.1,38.2v13.8         H246z"/>
							<path class="st3" d="M249.4,120.4c1.9-1.2,3.1-3.3,3.1-5.6v-0.7c0-1.5-1.2-2.7-2.7-2.7H124.9c-1.5,0-2.7,1.2-2.7,2.7v0.7         c0,2.3,1.2,4.4,3.1,5.6C147.1,133.8,227.6,133.8,249.4,120.4z"/>
						</g>
						<g>
							<line class="st3" x1="168.7" y1="83.4" x2="162.8" y2="44.7"/>
							<line class="st3" x1="210.7" y1="44.2" x2="204.6" y2="83.4"/>
						</g>
					</g>
				</g>
			</g>
			<g>
				<path class="st1" d="M309.3,335.5h3.9c3.5,0,6.4-2.9,6.4-6.5v-18.8c0-19,0.9-38,2.6-56.9v0c0.2-2.5-1.7-4.7-4.2-4.7h-2.4      l0.3-2.1c1.5-12.6,2.2-25.3,2.2-38.1v-45.1h-8.7h-8.7v45.1c0,12.7,0.8,25.4,2.2,38.1l0.3,2.1h-2.4c-2.5,0-4.5,2.2-4.2,4.7v0      c1.8,18.9,2.6,37.9,2.6,56.9v18.8c0,3.6,2.9,6.5,6.4,6.5H309.3z"/>
				<line class="st1" x1="303.1" y1="248.7" x2="315.5" y2="248.7"/>
			</g>
			<g>
				<path class="st1" d="M248,225.8c1.4,1.8,3.2,3.4,5.3,4.4c0.2,0.1,0.5,0.2,0.7,0.3c0,0,0,0,0,0c0,0,0,0,0,0c2.3,1,4,3,4.7,5.4      c0,0.1,0.3,0.9,0.3,0.9l22.5,95.7c0.5,1.7,2.1,2.9,3.9,2.9h1c1.3,0,2.5-0.6,3.2-1.6c0.8-1,1-2.3,0.7-3.6l-19.8-100.6l-0.8-3.2      c-0.7-4-4.1-6.9-7.8-7c-1,0-2.1-0.3-3.1-0.8c-3.5-1.9-5-6.4-3.2-10.1v-22.3h-9.5v23.7C243.8,215.4,244.7,221.5,248,225.8z"/>
				<g>
					<path class="st1" d="M255.1,231.2l-19.5,99.2c-0.3,1.2,0,2.5,0.7,3.6c0.8,1,2,1.6,3.2,1.6h0.9c1.8,0,3.4-1.2,3.9-2.9l18.5-78.8       "/>
					<path class="st1" d="M270.9,231.2c0.3-0.2,0.7-0.4,1.1-0.6c0,0,0,0,0,0c0,0,0,0,0,0c0.2-0.1,0.5-0.2,0.7-0.3       c2.2-1.1,4-2.6,5.3-4.4c3.3-4.4,4.2-10.4,1.8-15.8v-23.7h-9.5v22.3c1.8,3.7,0.3,8.2-3.2,10.1c-1,0.5-2,0.8-3.1,0.8       c-0.3,0-0.7,0-1,0.1c0,0,0,0,0,0"/>
				</g>
				<ellipse class="st1" cx="262.7" cy="228.1" rx="3.4" ry="3.4"/>
			</g>
		</g>
		<g id="deco_22_">
			<line class="st3" x1="310.5" y1="269.8" x2="310.5" y2="312.8"/>
			<line class="st3" x1="122" y1="246.6" x2="149.2" y2="246.6"/>
		</g>
	</g>
</svg>