<?xml version="1.0" encoding="iso-8859-1"?>
<!-- Generator: Adobe Illustrator 16.0.0, SVG Export Plug-In . SVG Version: 6.00 Build 0)  -->
<!DOCTYPE svg PUBLIC "-//W3C//DTD SVG 1.1//EN" "http://www.w3.org/Graphics/SVG/1.1/DTD/svg11.dtd">
<svg version="1.1" id="Capa_1" xmlns="http://www.w3.org/2000/svg" xmlns:xlink="http://www.w3.org/1999/xlink" x="0px" y="0px"
	 width="115.796px" height="115.795px" viewBox="0 0 115.796 115.795" style="enable-background:new 0 0 115.796 115.795;"
	 xml:space="preserve">
<g>
	<path d="M32.629,38.141h-29v-29h29V38.141z M96.544,8.403L77.294,37.63h38.502L96.544,8.403z M96.544,75.946
		c-8.34,0-15.125,6.785-15.125,15.125s6.785,15.125,15.125,15.125s15.125-6.785,15.125-15.125S104.884,75.946,96.544,75.946z
		 M20.631,43.093h-5v13.679h-0.002v15.166h5V59.426h13.559H55.52v12.512h5V59.426h33.524v12.512h5V56.772h0.001V41.606h-5v12.82
		H34.188H20.631V43.093z M9.075,75.354L0,91.071l9.075,15.719h18.148l9.075-15.719l-9.075-15.717H9.075z M40.231,86.422
		l6.814,20.971h22.051l6.814-20.971L58.07,73.461L40.231,86.422z"/>
</g>
<g>
</g>
<g>
</g>
<g>
</g>
<g>
</g>
<g>
</g>
<g>
</g>
<g>
</g>
<g>
</g>
<g>
</g>
<g>
</g>
<g>
</g>
<g>
</g>
<g>
</g>
<g>
</g>
<g>
</g>
</svg>
