<?xml version="1.0" encoding="iso-8859-1"?>
<!-- Generator: Adobe Illustrator 19.0.0, SVG Export Plug-In . SVG Version: 6.00 Build 0)  -->
<svg version="1.1" id="Capa_1" xmlns="http://www.w3.org/2000/svg" xmlns:xlink="http://www.w3.org/1999/xlink" x="0px" y="0px"
	 viewBox="0 0 232.679 232.679" style="enable-background:new 0 0 232.679 232.679;" xml:space="preserve">
<path d="M216.173,142.959V42.277c7-1.454,11.5-7.471,11.5-14.659c0-8.271-6.273-15-14.188-15h-77.151
	C133.024,5.195,125.588,0,116.95,0c-8.638,0-16.073,5.195-19.383,12.618H19.526c-7.915,0-14.52,6.729-14.52,15
	c0,7.553,5.167,13.802,12.167,14.834v100.333c-7,1.032-12.167,7.281-12.167,14.834c0,8.271,6.605,15,14.52,15h86.646v5.852
	c-10,4.149-17.511,14.28-17.511,26.099c0,15.5,12.699,28.109,28.199,28.109s28.055-12.609,28.055-28.109
	c0-11.819-7.743-21.95-17.743-26.099v-5.852h86.312c7.915,0,14.188-6.729,14.188-15C227.673,150.43,223.173,144.413,216.173,142.959
	z M116.95,211.839c-4.009,0-7.27-3.261-7.27-7.27s3.261-7.27,7.27-7.27s7.27,3.261,7.27,7.27S120.959,211.839,116.95,211.839z
	 M90.273,99.477l0.19-0.501c1.616-4.265,1.617-8.962,0-13.227l-0.19-0.501l12.471-12.471l0.551,0.891
	c7.03,11.357,7.03,26.033,0,37.39l-0.551,0.891L90.273,99.477z M92.681,122.011l-0.891,0.551c-11.357,7.031-26.033,7.031-37.39,0
	l-0.891-0.551l12.471-12.471l0.501,0.19c4.265,1.616,8.962,1.616,13.227,0l0.501-0.19L92.681,122.011z M194.173,114.618v14h-70v-14
	H194.173z M124.173,99.618v-14h70v14H124.173z M194.173,70.618h-70v-14h70V70.618z M47.975,67.243
	c11.711-11.711,29.729-13.8,43.815-5.08l0.891,0.551L80.21,75.184l-0.501-0.19c-6.844-2.594-14.601-0.937-19.76,4.222
	c-5.159,5.159-6.816,12.915-4.222,19.76l0.19,0.501l-12.47,12.47l-0.551-0.891C34.175,96.971,36.264,78.954,47.975,67.243z"/>
<g>
</g>
<g>
</g>
<g>
</g>
<g>
</g>
<g>
</g>
<g>
</g>
<g>
</g>
<g>
</g>
<g>
</g>
<g>
</g>
<g>
</g>
<g>
</g>
<g>
</g>
<g>
</g>
<g>
</g>
</svg>
