<?xml version="1.0" encoding="iso-8859-1"?>
<!-- Generator: Adobe Illustrator 16.0.0, SVG Export Plug-In . SVG Version: 6.00 Build 0)  -->
<!DOCTYPE svg PUBLIC "-//W3C//DTD SVG 1.1//EN" "http://www.w3.org/Graphics/SVG/1.1/DTD/svg11.dtd">
<svg version="1.1" id="Capa_1" xmlns="http://www.w3.org/2000/svg" xmlns:xlink="http://www.w3.org/1999/xlink" x="0px" y="0px"
	 width="48px" height="47.999px" viewBox="0 0 48 47.999" style="enable-background:new 0 0 48 47.999;" xml:space="preserve">
<g>
	<path d="M35.505,16.825c0-5.443-4.454-9.773-9.896-9.773h-0.125V17.32h9.896C35.505,17.072,35.505,16.948,35.505,16.825
		 M34.267,19.423c0-0.248-0.123-0.619-0.246-0.742c-0.248-0.248-0.496-0.372-0.742-0.372l0,0h-8.784V9.155
		c0-0.248-0.124-0.495-0.371-0.743c-0.247-0.247-0.495-0.247-0.742-0.247c-5.938,0.124-10.763,4.948-10.763,10.887
		c0,5.939,4.948,10.886,10.887,10.886C29.32,29.814,34.021,25.236,34.267,19.423z M43.298,5.443v26.598
		c0,0.99-0.865,1.855-1.855,1.855H6.557c-0.99,0-1.855-0.865-1.855-1.855V5.443c0-0.99,0.866-1.856,1.855-1.856H41.32
		C42.433,3.587,43.298,4.33,43.298,5.443z M23.257,20.412c-0.248,0-0.495-0.124-0.742-0.247c-0.248-0.248-0.371-0.495-0.371-0.742
		v-9.031c-4.33,0.619-7.546,4.33-7.546,8.66c0,4.825,3.958,8.783,8.783,8.783l0,0c4.33,0,7.917-3.093,8.66-7.299L23.257,20.412z
		 M5.938,2.474h36.125c0.742,0,1.236-0.495,1.236-1.237C43.298,0.495,42.804,0,42.062,0H5.938C5.195,0,4.701,0.495,4.701,1.237
		C4.701,1.979,5.195,2.474,5.938,2.474z M33.525,36c0,0.742-0.494,1.236-1.236,1.236h-7.053v8.289h3.094
		c0.742,0,1.236,0.494,1.236,1.236c0,0.743-0.494,1.237-1.236,1.237h-8.536c-0.742,0-1.237-0.494-1.237-1.237
		c0-0.742,0.495-1.236,1.237-1.236h2.969v-8.289h-7.051c-0.742,0-1.237-0.494-1.237-1.236s0.495-1.236,1.237-1.236h16.701
		C33.031,34.764,33.525,35.258,33.525,36z"/>
</g>
<g>
</g>
<g>
</g>
<g>
</g>
<g>
</g>
<g>
</g>
<g>
</g>
<g>
</g>
<g>
</g>
<g>
</g>
<g>
</g>
<g>
</g>
<g>
</g>
<g>
</g>
<g>
</g>
<g>
</g>
</svg>
