<?xml version="1.0" encoding="iso-8859-1"?>
<!-- Generator: Adobe Illustrator 16.0.0, SVG Export Plug-In . SVG Version: 6.00 Build 0)  -->
<!DOCTYPE svg PUBLIC "-//W3C//DTD SVG 1.1//EN" "http://www.w3.org/Graphics/SVG/1.1/DTD/svg11.dtd">
<svg version="1.1" id="Capa_1" xmlns="http://www.w3.org/2000/svg" xmlns:xlink="http://www.w3.org/1999/xlink" x="0px" y="0px"
	 width="503.169px" height="503.169px" viewBox="0 0 453.169 503.169" style="enable-background:new 0 0 503.169 503.169;"
	 xml:space="preserve">
<g>
	<g>
		<path d="M225.077,131.705c-2.926,4.571-7.334,7.134-9.84,5.728c-2.515-1.396-6.751,1.272-9.457,5.958L46.095,419.307
			c-2.715,4.686-7.822,11.791-11.398,15.864l-16.935,19.25c-3.576,4.073-5.25,11.637-2.687,16.399
			c12.297,22.825,38.872,29.997,53.263,32.235c5.355,0.841,11.246-3.118,13.072-8.233l7.622-21.258
			c1.817-5.106,5.661-12.947,8.568-17.537l174.506-275.611c2.906-4.581,1.415-10.433-3.309-13.082l-0.88-0.488
			c-4.733-2.639-6.168-8.462-3.204-13.005l22.08-33.813c2.965-4.542,9.734-7.755,15.128-7.201l6.771,0.708
			c5.384,0.574,13.206,3.758,17.461,7.115l56.964,45.106c4.246,3.375,10.872,3.069,14.793-0.669l4.867-4.628
			c3.931-3.739,5.164-10.71,2.63-15.5C351.531,43.252,272.085,9.42,245.015,0.498c-5.145-1.702-11.504,1.128-14.066,5.91
			l-14.927,27.817c-2.562,4.771-0.258,9.275,4.839,11.121c5.9,2.152,13.196,6.015,17.786,12.756
			c4.112,6.034,8.797,11.073,12.594,14.707c3.911,3.749,5.049,10.108,2.123,14.679L225.077,131.705z"/>
	</g>
</g>
<g>
</g>
<g>
</g>
<g>
</g>
<g>
</g>
<g>
</g>
<g>
</g>
<g>
</g>
<g>
</g>
<g>
</g>
<g>
</g>
<g>
</g>
<g>
</g>
<g>
</g>
<g>
</g>
<g>
</g>
</svg>
