<?xml version="1.0" encoding="iso-8859-1"?>
<!-- Generator: Adobe Illustrator 18.1.1, SVG Export Plug-In . SVG Version: 6.00 Build 0)  -->
<svg version="1.1" id="Capa_1" xmlns="http://www.w3.org/2000/svg" xmlns:xlink="http://www.w3.org/1999/xlink" x="0px" y="0px"
	 viewBox="0 0 612 612" style="enable-background:new 0 0 612 612;" xml:space="preserve">
<g>
	<path d="M446.805,370.381c3.6,0,7.006-1.815,9.003-4.896c2.282-3.523,2.3-8.056,0.045-11.599l-77.246-121.281l66.634,9.806
		c0.522,0.077,1.045,0.116,1.564,0.116c3.6,0,7.006-1.816,9.003-4.896c2.282-3.523,2.3-8.056,0.045-11.599L315.05,4.965
		C313.081,1.873,309.667,0,306,0s-7.08,1.873-9.049,4.965L156.148,226.033c-2.255,3.543-2.239,8.075,0.045,11.599
		c2.284,3.525,6.418,5.391,10.567,4.78l66.634-9.806l-77.246,121.281c-2.255,3.543-2.239,8.074,0.045,11.599
		c2.284,3.525,6.418,5.393,10.567,4.782l64.169-9.443l-74.781,117.412c-2.255,3.541-2.239,8.074,0.045,11.599
		c2.284,3.525,6.418,5.393,10.567,4.78l115.066-16.932v110.142C281.826,601.176,292.65,612,306,612s24.175-10.824,24.175-24.175
		V477.683l115.066,16.932c0.522,0.077,1.045,0.116,1.564,0.116c3.6,0,7.006-1.815,9.003-4.896c2.282-3.525,2.3-8.056,0.045-11.599
		l-74.781-117.412l64.169,9.443C445.763,370.344,446.285,370.381,446.805,370.381z"/>
</g>
<g>
</g>
<g>
</g>
<g>
</g>
<g>
</g>
<g>
</g>
<g>
</g>
<g>
</g>
<g>
</g>
<g>
</g>
<g>
</g>
<g>
</g>
<g>
</g>
<g>
</g>
<g>
</g>
<g>
</g>
</svg>
