<?xml version="1.0" encoding="iso-8859-1"?>
<!-- Generator: Adobe Illustrator 16.0.0, SVG Export Plug-In . SVG Version: 6.00 Build 0)  -->
<!DOCTYPE svg PUBLIC "-//W3C//DTD SVG 1.1//EN" "http://www.w3.org/Graphics/SVG/1.1/DTD/svg11.dtd">
<svg version="1.1" id="Capa_1" xmlns="http://www.w3.org/2000/svg" xmlns:xlink="http://www.w3.org/1999/xlink" x="0px" y="0px"
	 width="63.617px" height="63.617px" viewBox="0 0 63.617 63.617" style="enable-background:new 0 0 63.617 63.617;"
	 xml:space="preserve">
<g>
	<g>
		<path d="M0,62.092h7.442v-7.443H0V62.092z M0.521,55.17h6.401v6.401H0.521V55.17z"/>
		<path d="M0,53.701h7.442v-7.442H0V53.701z M1.042,47.299h5.359v5.359H1.042V47.299z"/>
		<path d="M0,44.999h7.442v-7.443H0V44.999z M1.562,39.118H5.88v4.317H1.562V39.118z"/>
		<path d="M0,35.973h7.442V28.53H0V35.973z M2.083,30.614h3.276v3.276H2.083V30.614z"/>
		<path d="M28.125,62.092h7.442v-7.443h-7.442V62.092z M28.646,55.17h6.401v6.401h-6.401V55.17z"/>
		<path d="M35.567,46.258h-7.442v7.441h7.442V46.258z M34.526,52.66h-5.359V47.3h5.359V52.66z"/>
		<path d="M35.567,37.556h-7.442v7.442h7.442V37.556z M34.004,43.437h-4.317v-4.318h4.317V43.437z"/>
		<path d="M35.567,28.53h-7.442v7.442h7.442V28.53z M33.484,33.89h-3.276v-3.276h3.276V33.89z"/>
		<path d="M37.5,62.092h7.442v-7.443H37.5V62.092z M38.021,55.17h6.4v6.401h-6.4V55.17z"/>
		<path d="M37.5,53.701h7.442v-7.442H37.5V53.701z M38.542,47.299h5.359v5.359h-5.359V47.299z"/>
		<path d="M37.5,44.999h7.442v-7.443H37.5V44.999z M39.062,39.118h4.317v4.317h-4.317V39.118z"/>
		<path d="M46.875,62.092h7.442v-7.443h-7.442V62.092z M47.396,55.17h6.4v6.401h-6.4V55.17z"/>
		<path d="M54.317,46.258h-7.442v7.441h7.442V46.258z M53.276,52.66h-5.359V47.3h5.359V52.66z"/>
		<path d="M56.174,62.092h7.442v-7.443h-7.442V62.092z M56.696,55.17h6.4v6.401h-6.4V55.17z"/>
		<path d="M56.174,53.701h7.442v-7.442h-7.442V53.701z M57.216,47.299h5.358v5.359h-5.358V47.299z"/>
		<path d="M46.875,44.999h7.442v-7.443h-7.442V44.999z M48.437,39.118h4.317v4.317h-4.317V39.118z"/>
		<path d="M37.5,35.973h7.442V28.53H37.5V35.973z M39.583,30.614h3.275v3.276h-3.275V30.614z"/>
		<path d="M35.567,19.589h-7.442v7.442h7.442V19.589z M32.963,24.428h-2.234v-2.234h2.234V24.428z"/>
		<path d="M18.75,62.092h7.442v-7.443H18.75V62.092z M19.271,55.17h6.401v6.401h-6.401V55.17z"/>
		<path d="M26.192,46.258H18.75v7.441h7.442V46.258z M25.151,52.66h-5.359V47.3h5.359V52.66z"/>
		<path d="M26.192,37.556H18.75v7.442h7.442V37.556z M24.63,43.437h-4.317v-4.318h4.317V43.437z"/>
		<path d="M26.192,28.53H18.75v7.442h7.442V28.53z M24.109,33.89h-3.276v-3.276h3.276V33.89z"/>
		<path d="M26.192,19.589H18.75v7.442h7.442V19.589z M23.588,24.428h-2.234v-2.234h2.234V24.428z"/>
		<path d="M35.567,10.553h-7.442v7.443h7.442V10.553z M32.442,14.871H31.25v-1.193h1.192V14.871z"/>
		<path d="M9.375,62.092h7.442v-7.443H9.375V62.092z M9.896,55.17h6.401v6.401H9.896V55.17z"/>
		<path d="M16.817,46.258H9.375v7.441h7.442V46.258z M15.776,52.66h-5.359V47.3h5.359V52.66z"/>
		<path d="M16.817,37.556H9.375v7.442h7.442V37.556z M15.255,43.437h-4.317v-4.318h4.317V43.437z"/>
		<path d="M16.817,28.53H9.375v7.442h7.442V28.53z M14.734,33.89h-3.276v-3.276h3.276V33.89z"/>
		<path d="M16.817,19.589H9.375v7.442h7.442V19.589z M14.213,24.428h-2.234v-2.234h2.234V24.428z"/>
		<path d="M16.817,10.553H9.375v7.443h7.442V10.553z M13.692,14.871H12.5v-1.193h1.192V14.871z"/>
		<rect x="28.125" y="1.525" width="7.442" height="7.442"/>
	</g>
</g>
<g>
</g>
<g>
</g>
<g>
</g>
<g>
</g>
<g>
</g>
<g>
</g>
<g>
</g>
<g>
</g>
<g>
</g>
<g>
</g>
<g>
</g>
<g>
</g>
<g>
</g>
<g>
</g>
<g>
</g>
</svg>
