<?xml version="1.0" encoding="utf-8"?>
<!-- Generator: Adobe Illustrator 16.0.0, SVG Export Plug-In . SVG Version: 6.00 Build 0)  -->
<!DOCTYPE svg PUBLIC "-//W3C//DTD SVG 1.1//EN" "http://www.w3.org/Graphics/SVG/1.1/DTD/svg11.dtd">
<svg version="1.1" id="Layer_1" xmlns="http://www.w3.org/2000/svg" xmlns:xlink="http://www.w3.org/1999/xlink" x="0px" y="0px"
	 width="512px" height="512px" viewBox="0 0 512 512" enable-background="new 0 0 512 512" xml:space="preserve">
<path d="M473.391,247.292h-51.623l-31.133-74.615l-31.344,63.121l-72.262-117.099l-33.086,24.374L192.129,46l-40.045,84.883
	l-36.777-40.99L56.031,247.292H38.609v17.416h51.623l31.133,74.614l31.344-63.12l72.262,117.099l33.086-24.374L319.871,466
	l40.045-84.883l36.777,40.99l59.277-157.399h17.42V247.292z M125.084,162.996l18.479,48.021l28.211-32.243l50.496,38.307
	l35.273-45.158l19.512,49.83l15.4-18.684l27.311,44.223H92.637L125.084,162.996z M386.918,349.004l-18.48-48.021l-28.213,32.243
	l-50.492-38.307l-35.273,45.158l-19.514-49.83l-15.398,18.685l-27.313-44.224h227.129L386.918,349.004z"/>
</svg>
