<?xml version="1.0" encoding="iso-8859-1"?>
<!-- Generator: Adobe Illustrator 16.0.0, SVG Export Plug-In . SVG Version: 6.00 Build 0)  -->
<!DOCTYPE svg PUBLIC "-//W3C//DTD SVG 1.1//EN" "http://www.w3.org/Graphics/SVG/1.1/DTD/svg11.dtd">
<svg version="1.1" id="Capa_1" xmlns="http://www.w3.org/2000/svg" xmlns:xlink="http://www.w3.org/1999/xlink" x="0px" y="0px"
	 width="44.748px" height="44.748px" viewBox="0 0 44.748 44.748" style="enable-background:new 0 0 44.748 44.748;"
	 xml:space="preserve">
<g>
	<g>
		<path d="M44.748,22.374c0-1.76-0.211-3.471-0.598-5.113c-4.881,4.611-12.771,7.615-21.659,7.615
			c-9.008,0-16.986-3.086-21.852-7.801C0.226,18.774,0,20.548,0,22.374c0,0.432,0.015,0.861,0.04,1.287
			c5.291,4.375,13.387,7.182,22.451,7.182c8.92,0,16.905-2.717,22.2-6.973C44.727,23.374,44.748,22.878,44.748,22.374z"/>
		<path d="M6.164,37.772c4.079,4.291,9.835,6.975,16.209,6.975c6.018,0,11.482-2.393,15.51-6.27
			c-4.49,1.553-9.556,2.434-14.916,2.434C16.841,40.911,11.102,39.763,6.164,37.772z"/>
		<path d="M44.348,26.573c-5.59,3.869-13.322,6.27-21.855,6.27c-8.674,0-16.516-2.482-22.125-6.465
			c0.524,2.893,1.605,5.59,3.13,7.982c5.351,2.844,12.116,4.551,19.471,4.551c6.561,0,12.655-1.357,17.693-3.668
			C42.46,32.692,43.741,29.751,44.348,26.573z"/>
		<path d="M1.279,14.927c4.358,4.762,12.236,7.949,21.212,7.949c8.86,0,16.647-3.109,21.038-7.77
			c-0.528-1.535-1.217-2.998-2.051-4.363c-3.877,4.135-10.598,6.877-18.228,6.877c-8.325,0-15.569-3.264-19.217-8.039
			C2.89,11.218,1.958,13.011,1.279,14.927z"/>
		<path d="M34.65,3.685c-3.526-2.326-7.746-3.684-12.277-3.684c-4.048,0-7.846,1.086-11.125,2.975
			c2.2,2.887,6.747,4.879,12.004,4.879C28.064,7.854,32.283,6.183,34.65,3.685z"/>
		<path d="M9.578,4.036c-1.591,1.113-3.03,2.428-4.282,3.906c3.106,4.521,9.978,7.678,17.956,7.678
			c7.305,0,13.68-2.646,17.089-6.561c-1.172-1.578-2.549-2.994-4.088-4.215c-2.739,3.006-7.537,5.01-13.001,5.01
			C17.31,9.854,12.151,7.487,9.578,4.036z"/>
	</g>
</g>
<g>
</g>
<g>
</g>
<g>
</g>
<g>
</g>
<g>
</g>
<g>
</g>
<g>
</g>
<g>
</g>
<g>
</g>
<g>
</g>
<g>
</g>
<g>
</g>
<g>
</g>
<g>
</g>
<g>
</g>
</svg>
