<svg width="271" height="78" viewBox="0 0 271 78" fill="none" xmlns="http://www.w3.org/2000/svg">
<path d="M36.1202 46.4969C36.2015 48.4627 35.7992 50.4183 34.9488 52.1927C34.0983 53.967 32.8255 55.506 31.2418 56.6748C27.9894 59.1258 23.1964 60.3517 16.8626 60.3525C14.627 60.3651 12.3942 60.1934 10.1869 59.8393C8.36512 59.5681 6.59218 59.0351 4.92304 58.2569C3.58643 57.6392 2.41371 56.7164 1.49936 55.5628C0.663757 54.4561 0.226509 53.0999 0.258448 51.7139C0.21839 50.5025 0.514597 49.3037 1.11427 48.2502C1.14294 48.2029 1.17191 48.1559 1.20115 48.1094C1.6136 47.4606 2.24694 46.9828 2.9843 46.7641C3.72166 46.5454 4.51328 46.6006 5.21311 46.9195C6.40355 47.4542 7.62091 47.9269 8.86029 48.3358C11.2547 49.0869 13.7545 49.4478 16.2637 49.4046C17.6612 49.4805 19.0562 49.2164 20.3291 48.635C20.7365 48.4639 21.0861 48.1795 21.3365 47.8156C21.5868 47.4517 21.7273 47.0236 21.7413 46.5822C21.75 46.2061 21.6597 45.8344 21.4794 45.5042C21.2992 45.1739 21.0353 44.8968 20.7142 44.7005C19.6539 44.1164 18.4922 43.7392 17.2909 43.5889L14.723 43.0756C9.75898 42.1068 6.06442 40.5815 3.63933 38.4999C1.21325 36.419 0.000762111 33.4398 0.00187124 29.5621C-0.0332351 27.5912 0.426128 25.6428 1.33805 23.8948C2.24996 22.1468 3.5854 20.6549 5.2225 19.5551C7.04121 18.3417 9.05261 17.4452 11.1712 16.9038C13.6716 16.2529 16.2474 15.9365 18.8312 15.963C20.8236 15.954 22.8133 16.1114 24.7795 16.4334C26.446 16.6918 28.0716 17.1663 29.6154 17.8446C30.8759 18.3909 31.9901 19.2259 32.8678 20.2823C33.6697 21.2892 34.0937 22.5449 34.0663 23.8316C34.0976 24.9997 33.848 26.1583 33.3385 27.2101C32.9968 27.8694 32.4292 28.3838 31.7392 28.6595C31.0493 28.9351 30.2832 28.9534 29.5808 28.7112L29.4441 28.6641C28.5311 28.3512 27.5326 28.0661 26.4487 27.8089C25.364 27.5521 24.2656 27.3382 23.1536 27.1673C22.1488 27.0051 21.1331 26.9194 20.1153 26.9108C18.6328 26.847 17.1516 27.0646 15.7501 27.5521C15.3117 27.6779 14.9253 27.9412 14.6479 28.3031C14.3705 28.665 14.2168 29.1063 14.2094 29.5621C14.2089 29.8704 14.2872 30.1736 14.437 30.4431C14.5868 30.7126 14.8031 30.9393 15.0653 31.1017C16.0755 31.6607 17.1765 32.0371 18.3176 32.2134L20.9712 32.8122C26.4487 34.067 30.343 35.7918 32.6541 37.9867C33.8002 39.0804 34.7017 40.4041 35.2991 41.8709C35.8965 43.3377 36.1763 44.9143 36.1202 46.4969Z" fill="white"/>
<path d="M206.578 39.9573H225.183C227.123 39.6728 228.635 39.6541 229.719 38.628C230.286 38.0413 230.724 37.3423 231.004 36.5763C231.284 35.8102 231.4 34.9941 231.345 34.1804C231.37 31.6782 230.859 29.1996 229.848 26.9106C228.875 24.723 227.445 22.7689 225.654 21.1799C223.77 19.5333 221.593 18.2566 219.235 17.4167C216.585 16.4765 213.788 16.0131 210.975 16.0482C208.302 16.0474 205.645 16.4658 203.101 17.2882C200.509 18.0951 198.123 19.4532 196.106 21.2693C194.089 23.0853 192.49 25.3162 191.418 27.8086C190.12 30.8765 189.493 34.1862 189.578 37.5161C189.503 40.9421 190.129 44.3473 191.418 47.5228C192.547 50.2377 194.273 52.6639 196.468 54.6217C198.662 56.5339 201.226 57.975 204 58.8554C207.03 59.8191 210.193 60.2954 213.372 60.2667C215.521 60.2546 217.667 60.0831 219.791 59.7535C221.942 59.4537 224.027 58.7884 225.954 57.7862C226.753 57.408 227.464 56.8654 228.039 56.1939C228.614 55.5224 229.041 54.7371 229.291 53.8894C229.542 53.0417 229.61 52.1507 229.492 51.2747C229.375 50.3987 229.073 49.5574 228.607 48.8059C228.255 48.2231 227.828 47.6891 227.336 47.2178C227.073 46.9711 226.74 46.8118 226.383 46.7621C226.026 46.7123 225.662 46.7744 225.342 46.9399C221.986 48.5701 218.302 49.413 214.57 49.4044C212.266 49.4491 209.983 48.9663 207.895 47.9931C207.069 47.5208 206.294 46.9669 205.579 46.3396C203.113 44.4997 203.681 39.9573 206.578 39.9573ZM213.624 24.0589C218.175 24.0589 221.295 25.8763 221.295 29.1691C221.295 32.4618 218.459 32.5759 213.909 32.5759C209.358 32.5759 205.954 32.4618 205.954 29.1691C205.954 25.8763 209.074 24.0589 213.624 24.0589Z" fill="white"/>
<path d="M57.086 4.18605C54.6276 0.910473 51.154 1.22811 49.8994 1.22811C48.6523 1.22767 47.4072 1.32785 46.1762 1.52767L43.3945 1.98042V51.6047C43.3945 52.0556 43.4198 52.4694 43.4568 52.8661C43.4558 52.9168 43.4492 52.966 43.4492 53.0169C43.4515 54.9731 44.2307 56.8484 45.6157 58.2308C47.0007 59.6133 48.8782 60.3898 50.8358 60.3898C52.7933 60.3898 54.6708 59.6133 56.0559 58.2308C57.4409 56.8484 58.2201 54.9731 58.2224 53.0169V10.9997C58.2224 9.57502 58.7906 6.45724 57.086 4.18605Z" fill="white"/>
<path d="M79.855 18.4432C79.1076 17.9043 78.2419 17.5524 77.3303 17.4168C76.2125 17.2365 75.0815 17.1507 73.9494 17.1604C72.7023 17.1598 71.4572 17.2599 70.2263 17.4597L70.1895 17.4657C69.4228 17.5911 68.7258 17.985 68.2229 18.5768C67.7201 19.1686 67.4442 19.9198 67.4446 20.6961L67.3133 53.0168C67.3036 54.1171 67.5385 55.2058 68.0011 56.2043C68.2956 56.9315 68.7571 57.5792 69.3484 58.0952C70.3644 59.1669 71.6787 59.9092 73.1215 60.2262C74.5642 60.5432 76.069 60.4202 77.441 59.8732C78.8131 59.3262 79.9893 58.3803 80.8175 57.158C81.6457 55.9356 82.0877 54.493 82.0864 53.0168C82.0864 52.8538 82.0724 52.6943 82.062 52.5339C82.0717 52.5027 82.0826 52.4688 82.0864 52.449V25.1382C82.1427 23.5788 81.9233 22.0218 81.4385 20.5385C81.1092 19.7103 80.5621 18.9863 79.855 18.4432Z" fill="white"/>
<path d="M74.4159 13.8387C78.9661 13.8387 82.6548 11.1695 82.6548 7.8768C82.6548 4.58408 80.382 -3.19531 74.4159 1.9149C68.7539 6.76462 66.177 6.00358 66.177 9.2963C66.177 12.589 69.8657 13.8387 74.4159 13.8387Z" fill="white"/>
<path d="M265.473 15.542H262.757C260.888 15.62 259.058 16.1013 257.392 16.953C255.727 17.8046 254.265 19.0063 253.108 20.4756C252.964 17.9075 250.396 16.0674 246.896 16.0674C242.976 16.0674 240.239 17.9748 240.239 20.7057V55.2076C240.239 57.8134 243.225 59.9336 246.896 59.9336C250.582 59.9336 253.816 57.7253 253.816 55.2076V39.5329C253.816 32.1315 258.362 27.7086 262.757 27.7086H265.473C268.273 27.7086 270.728 24.8455 270.728 21.5815C270.728 18.3641 268.273 15.542 265.473 15.542Z" fill="white"/>
<path d="M132.407 28.3212C131.297 25.6791 129.599 23.3244 127.443 21.4358C125.235 19.56 122.653 18.1752 119.868 17.3733C116.769 16.4672 113.554 16.0206 110.325 16.0477C107.354 16.0139 104.392 16.3588 101.509 17.0742C99.1813 17.633 96.9571 18.5567 94.9188 19.811C93.8651 20.5222 92.9512 21.4209 92.2225 22.4622C91.5229 23.5891 91.1799 24.9007 91.2382 26.2255V67.2794C91.2382 67.752 91.1777 69.553 91.1777 70.0501C91.1777 74.4403 94.3576 77.9993 98.2802 77.9993C101.86 77.9993 104.812 75.0327 105.303 71.1782C105.358 70.9967 105.385 70.8077 105.383 70.6179L105.788 63.0661C105.787 62.615 105.883 62.1688 106.07 61.7581C106.257 61.3474 106.53 60.9817 106.871 60.6859C107.212 60.3901 107.613 60.1712 108.046 60.0439C108.479 59.9166 108.935 59.8841 109.381 59.9484C110.459 60.1052 111.547 60.1827 112.636 60.1805C115.644 60.2184 118.638 59.756 121.494 58.8121C124.047 57.9617 126.374 56.5434 128.298 54.6639C130.242 52.717 131.732 50.3663 132.663 47.7789C133.747 44.7037 134.268 41.459 134.204 38.1995C134.286 34.8186 133.675 31.4567 132.407 28.3212ZM114.177 48.1209C112.942 48.7248 111.587 49.0396 110.212 49.0414C104.721 49.0414 104.246 44.3682 104.246 38.2532C104.246 32.1382 104.721 26.8973 110.212 26.8973C115.704 26.8973 120.156 31.8543 120.156 37.9693C120.173 40.5788 119.322 43.1201 117.737 45.194C116.924 46.5511 115.666 47.5852 114.177 48.1209Z" fill="white"/>
<path d="M182.347 28.3212C181.238 25.6791 179.54 23.3244 177.384 21.4358C175.176 19.56 172.594 18.1752 169.809 17.3733C166.71 16.4672 163.495 16.0206 160.266 16.0477C157.295 16.0139 154.333 16.3588 151.45 17.0742C149.122 17.633 146.898 18.5567 144.86 19.811C143.806 20.5222 142.892 21.4209 142.163 22.4622C141.464 23.5891 141.121 24.9007 141.179 26.2255V67.2794C141.179 67.752 141.119 69.553 141.119 70.0501C141.119 74.4403 144.299 77.9993 148.221 77.9993C151.801 77.9993 154.753 75.0327 155.244 71.1782C155.299 70.9967 155.326 70.8077 155.324 70.6179L155.729 63.0661C155.728 62.615 155.824 62.1689 156.011 61.7581C156.198 61.3474 156.471 60.9817 156.812 60.6859C157.153 60.3901 157.554 60.1712 157.987 60.0439C158.42 59.9166 158.875 59.8841 159.322 59.9484C160.4 60.1052 161.488 60.1827 162.577 60.1805C165.585 60.2184 168.579 59.756 171.435 58.8121C173.988 57.9617 176.315 56.5434 178.239 54.6639C180.183 52.717 181.673 50.3663 182.604 47.7789C183.688 44.7037 184.209 41.459 184.145 38.1995C184.227 34.8186 183.616 31.4567 182.347 28.3212ZM164.118 48.1209C162.883 48.7248 161.528 49.0396 160.153 49.0414C154.662 49.0414 154.187 44.3682 154.187 38.2532C154.187 32.1382 154.662 26.8973 160.153 26.8973C165.645 26.8973 170.097 31.8543 170.097 37.9693C170.113 40.5788 169.263 43.1201 167.678 45.194C166.865 46.5511 165.607 47.5852 164.118 48.1209Z" fill="white"/>
</svg>
