<svg width="17" height="21" viewBox="0 0 17 21" fill="none" xmlns="http://www.w3.org/2000/svg">
<path d="M4.07664 17.0599L4.52925 16.666C1.87484 13.6158 0.6 10.7628 0.6 8.17802C0.600159 4.02169 4.12255 0.6 8.50004 0.6C12.8776 0.6 16.4 4.02169 16.4 8.17802C16.4 10.7627 15.1251 13.6157 12.4707 16.666C10.5265 18.9 8.60678 20.3377 8.5393 20.388L4.07664 17.0599ZM4.07664 17.0599L4.52926 16.666C6.47419 18.901 8.39493 20.3391 8.46072 20.3881C8.47002 20.3949 8.48334 20.4 8.49996 20.4C8.51679 20.4 8.53015 20.3948 8.5392 20.3881L4.07664 17.0599ZM8.50004 11.7905C6.46148 11.7905 4.76894 10.1948 4.76894 8.17802C4.76894 6.16126 6.4615 4.56559 8.50004 4.56559C10.5386 4.56559 12.2311 6.16126 12.2311 8.17802C12.2311 10.1948 10.5386 11.7905 8.50004 11.7905Z" stroke="#504EC1" stroke-width="1.2"/>
</svg>
