<?xml version="1.0" encoding="iso-8859-1"?>
<!-- Generator: Adobe Illustrator 19.0.0, SVG Export Plug-In . SVG Version: 6.00 Build 0)  -->
<svg version="1.1" id="Capa_1" xmlns="http://www.w3.org/2000/svg" xmlns:xlink="http://www.w3.org/1999/xlink" x="0px" y="0px"
	 viewBox="0 0 512 512" style="enable-background:new 0 0 512 512;" xml:space="preserve">
<circle style="fill:#6861FF;" cx="256" cy="256" r="256"/>
<path style="fill:#5454D6;" d="M512,256c0-11.241-0.731-22.311-2.136-33.169l-85.801-85.801L87.937,374.97l134.894,134.895
	C233.689,511.269,244.759,512,256,512C397.385,512,512,397.385,512,256z"/>
<rect x="87.94" y="137.03" style="fill:#FFFFFF;" width="336.13" height="237.94"/>
<rect x="255.57" y="137.03" style="fill:#F0F0F0;" width="168.49" height="237.94"/>
<path style="fill:#495959;" d="M113,158.333V266h128V158.333H113z M205.036,178.333L133,231.644v-53.31h72.036V178.333z M147.22,246
	L221,191.4V246H147.22z"/>
<path style="fill:#3F4A4A;" d="M271,246v106.333h128V246H271z M362.659,266L291,318.225V266H362.659z M305.598,332.333L379,278.838
	v53.495H305.598z"/>
<g>
	<rect x="113" y="288" style="fill:#495959;" width="128" height="20"/>
	<rect x="113" y="331.33" style="fill:#495959;" width="128" height="20"/>
</g>
<g>
	<rect x="271" y="158.33" style="fill:#3F4A4A;" width="128" height="20"/>
	<rect x="271" y="201.67" style="fill:#3F4A4A;" width="128" height="20"/>
</g>
<g>
</g>
<g>
</g>
<g>
</g>
<g>
</g>
<g>
</g>
<g>
</g>
<g>
</g>
<g>
</g>
<g>
</g>
<g>
</g>
<g>
</g>
<g>
</g>
<g>
</g>
<g>
</g>
<g>
</g>
</svg>
