<?xml version="1.0"?>
<svg xmlns="http://www.w3.org/2000/svg" xmlns:xlink="http://www.w3.org/1999/xlink" version="1.1" viewBox="0 0 192 192" width="500px" height="500px"><g fill="none" fill-rule="nonzero" stroke="none" stroke-width="1" stroke-linecap="butt" stroke-linejoin="miter" stroke-miterlimit="10" stroke-dasharray="" stroke-dashoffset="0" font-family="none" font-weight="none" font-size="none" text-anchor="none" style="mix-blend-mode: normal"><path d="M0,192v-192h192v192z" fill="none"/><g fill="#ffffff"><g id="surface1"><path d="M93.795,11.52c-5.235,0.03 -10.485,0.345 -15.78,0.99c-10.125,1.245 -20.16,3.315 -29.79,7.74c-15.315,7.035 -26.175,18.975 -29.325,36.33c-1.335,7.32 -2.415,14.745 -3.03,22.215c-1.185,14.505 -0.45,29.055 3.66,43.35c3.24,11.265 9.21,21.39 19.665,27.96c4.425,2.775 10.26,4.125 13.305,5.535c0.855,0.405 1.065,0.645 1.11,0.705c0.045,0.045 0.165,0.15 0.15,1.05c-0.105,9.18 0,26.94 0,26.94l0.015,3.825h6.855l1.11,-1.08c0,0 17.415,-16.755 23.715,-23.655c1.14,-1.23 1.725,-1.92 1.845,-1.995c0.105,-0.075 -0.075,-0.12 1.095,-0.15c8.265,-0.165 16.515,-0.48 24.765,-0.93c10.875,-0.6 21.96,-1.635 32.625,-6.09c9.285,-3.885 17.04,-10.23 21.735,-19.74c4.8,-9.75 7.365,-20.085 8.325,-30.78c1.59,-17.805 1.035,-35.64 -3.885,-53.22c-2.895,-10.305 -8.715,-19.02 -17.64,-25.17c-10.68,-7.35 -22.725,-10.11 -34.515,-11.865c-6.885,-1.02 -13.815,-1.695 -20.775,-1.905c-1.74,-0.045 -3.48,-0.075 -5.235,-0.06zM98.82,19.26c6.615,0.18 13.23,0.825 19.86,1.815c11.37,1.695 22.095,4.275 31.29,10.605c7.455,5.13 12.105,12.06 14.595,20.895c4.59,16.44 5.175,33.285 3.63,50.49c-0.885,9.915 -3.24,19.26 -7.575,28.065c-3.825,7.77 -9.795,12.705 -17.805,16.05c-9.3,3.885 -19.41,4.92 -30.06,5.505c-8.16,0.45 -16.335,0.75 -24.51,0.915c-2.055,0.045 -4.065,0.585 -5.49,1.635c-1.425,1.05 -2.07,2.025 -2.955,2.985c-4.5,4.92 -13.47,13.575 -18.36,18.315c-0.03,-5.73 -0.075,-12.66 0,-19.05c0.03,-1.965 -0.42,-3.975 -1.545,-5.565c-1.125,-1.59 -2.67,-2.55 -4.155,-3.24c-4.335,-2.01 -10.005,-3.54 -12.465,-5.085c-8.595,-5.4 -13.47,-13.5 -16.365,-23.58c-3.795,-13.185 -4.515,-26.76 -3.39,-40.575c0.6,-7.17 1.635,-14.355 2.94,-21.48c2.73,-15.015 11.31,-24.465 24.96,-30.735c8.625,-3.96 17.835,-5.91 27.54,-7.095c6.615,-0.81 13.23,-1.065 19.86,-0.87zM100.44,38.4c-3.165,0 -6.24,0.36 -9.225,1.02c-2.055,0.48 -3.36,2.535 -2.895,4.605c0.465,2.07 2.535,3.36 4.605,2.895c2.415,-0.555 4.935,-0.84 7.515,-0.84c18.75,0 33.87,15.12 33.87,33.855c0,2.595 -0.285,5.115 -0.84,7.545c-0.465,2.055 0.825,4.125 2.895,4.59c2.07,0.465 4.125,-0.84 4.59,-2.91c0.675,-2.97 1.035,-6.045 1.035,-9.225c0,-22.89 -18.645,-41.535 -41.55,-41.535zM62.13,46.095c-0.63,-0.03 -1.275,0.015 -1.95,0.165c-6.975,1.545 -13.905,6.6 -14.1,15.63c0.195,1.26 0.18,2.61 0.645,3.75c2.28,5.58 4.26,11.34 7.11,16.62c13.875,25.65 34.86,43.485 61.605,54.81c3.195,1.35 6.495,1.635 9.72,0.285c4.44,-1.845 8.205,-4.695 10.71,-8.79c3.435,-5.625 3.48,-9.525 -2.175,-13.68c-3.705,-2.73 -7.35,-5.535 -11.1,-8.205c-5.715,-4.05 -11.895,-4.755 -16.155,2.355c-0.225,0.36 -0.555,0.66 -0.84,0.96c-2.19,2.325 -4.875,2.895 -7.725,1.725c-10.815,-4.455 -19.17,-11.64 -24.21,-22.335c-2.97,-6.285 -2.16,-9.435 3.39,-13.62c0.555,-0.405 1.08,-0.84 1.59,-1.305c2.43,-2.22 3.075,-4.86 1.635,-7.845c-3.255,-6.81 -7.59,-12.885 -13.08,-18.12c-1.485,-1.41 -3.18,-2.295 -5.07,-2.4zM100.38,49.92c-1.695,0 -3.375,0.135 -5.025,0.42c-1.395,0.18 -2.58,1.11 -3.09,2.415c-0.51,1.32 -0.255,2.805 0.645,3.885c0.915,1.065 2.355,1.56 3.735,1.26c1.2,-0.195 2.46,-0.3 3.735,-0.3c12.48,0 22.5,10.02 22.5,22.5c0,1.275 -0.105,2.535 -0.3,3.735c-0.3,1.38 0.195,2.82 1.26,3.735c1.08,0.9 2.565,1.155 3.885,0.645c1.305,-0.51 2.235,-1.695 2.415,-3.09c0.285,-1.65 0.42,-3.33 0.42,-5.025c0,-16.62 -13.56,-30.18 -30.18,-30.18zM99.84,61.44c-1.38,-0.015 -2.67,0.705 -3.375,1.905c-0.69,1.2 -0.69,2.67 0,3.87c0.705,1.2 1.995,1.92 3.375,1.905c6.405,0 11.52,5.115 11.52,11.52c-0.015,1.38 0.705,2.67 1.905,3.375c1.2,0.69 2.67,0.69 3.87,0c1.2,-0.705 1.92,-1.995 1.905,-3.375c0,-10.56 -8.64,-19.2 -19.2,-19.2z"/></g></g></g></svg>
